<?xml version="1.0" encoding="UTF-8"?>
<svg width="216px" height="44px" viewBox="0 0 216 44" version="1.1" xmlns="http://www.w3.org/2000/svg">
    <g transform="translate(3.000000, 3.000000)">
        <path d="M201.026402,0.5 L8.9735982,0.5 C5.99488122,0.5 4.90769924,0.792472871 3.81683947,1.37587106 C2.76452179,1.93865672 1.93865672,2.76452179 1.37587106,3.81683947 C0.792472871,4.90769924 0.5,5.99488122 0.5,8.9735982 L0.5,29.0264018 C0.5,32.0051188 0.792472871,33.0923008 1.37587106,34.1831605 C1.93865672,35.2354782 2.76452179,36.0613433 3.81683947,36.6241289 C4.90769924,37.2075271 5.99488122,37.5 8.9735982,37.5 L201.026402,37.5 C204.005119,37.5 205.092301,37.2075271 206.183161,36.6241289 C207.235478,36.0613433 208.061343,35.2354782 208.624129,34.1831605 C209.207527,33.0923008 209.5,32.0051188 209.5,29.0264018 L209.5,8.9735982 C209.5,5.99488122 209.207527,4.90769924 208.624129,3.81683947 C208.061343,2.76452179 207.235478,1.93865672 206.183161,1.37587106 C205.092301,0.792472871 204.005119,0.5 201.026402,0.5 Z" stroke-opacity="0.5" stroke="#CCCCCC" fill="#FEFEFE"></path>
        <path d="M18.0907828,26.1407314 C18.2438673,26.1407314 18.3795557,26.1233355 18.4978483,26.0885436 C18.6161408,26.0537516 18.7135581,25.9632927 18.7901004,25.8171666 C18.8666426,25.6710405 18.9257888,25.4518515 18.9675391,25.1595994 C19.0092894,24.8673473 19.0301646,24.463761 19.0301646,23.9488406 L19.0301646,23.447837 C19.0301646,23.266919 19.0232062,23.0790427 19.0092894,22.8842079 C19.0232062,22.8146241 19.0301646,22.7311235 19.0301646,22.6337061 L19.0301646,22.3205789 C19.0301646,21.9865765 19.0127686,21.5760318 18.9779767,21.088945 C18.9431848,20.6018582 18.8909969,20.0312707 18.8214131,19.3771827 L18.5082858,17.0182906 C19.1484571,16.8512894 19.6772943,16.7677888 20.0947973,16.7677888 C20.108714,16.7677888 20.1922146,16.7782264 20.3452991,16.7991016 C20.4983835,16.8199767 20.6688639,16.8443311 20.8567403,16.8721646 C21.0446166,16.8999981 21.232493,16.9243525 21.4203693,16.9452276 C21.6082457,16.9661028 21.7369758,16.9765403 21.8065596,16.9765403 C22.0013944,16.9765403 22.1544788,16.9487068 22.2658129,16.8930397 C22.3910638,16.7121218 22.4536893,16.5033703 22.4536893,16.2667852 C22.4536893,15.9745331 22.3562719,15.77274 22.1614372,15.6614059 C21.5011639,15.6181093 20.9882194,15.5853361 20.6226035,15.5630865 L20.3452991,15.5465925 C19.9834631,15.5257174 19.7433989,15.5118006 19.6251064,15.5048422 C19.5068139,15.4978838 19.4511468,15.4978838 19.4581052,15.5048422 C19.4650636,15.5118006 19.4059173,15.5152798 19.2806664,15.5152798 C18.9605808,15.5152798 18.6335367,15.536155 18.2995343,15.5779053 L17.1931513,15.7031562 L13.7696267,16.3294107 C13.6165422,16.552079 13.54,16.7538721 13.54,16.93479 C13.54,17.3662098 13.7905018,17.5819197 14.2915054,17.5819197 C14.3889228,17.5401694 14.5315697,17.4984191 14.719446,17.4566688 C14.9073224,17.4149185 15.1265114,17.3801266 15.3770132,17.3522931 C15.6275151,17.3244595 15.8919336,17.3001052 16.170269,17.27923 C16.4486043,17.2583549 16.7269396,17.2409589 17.005275,17.2270422 C17.2279433,17.8672134 17.3601525,18.549135 17.4019029,19.2728069 C17.4019029,19.7738105 17.4088612,20.2435014 17.422778,20.6818796 C17.4366948,21.1202577 17.4540907,21.506448 17.4749659,21.8404504 C17.495841,22.1744528 17.5167162,22.4458298 17.5375913,22.6545813 C17.5584665,22.8633328 17.5689041,22.9885837 17.5689041,23.030334 C17.5689041,23.2251687 17.5480289,23.4339202 17.5062786,23.6565885 C17.4645283,23.8792568 17.4436532,24.1297586 17.4436532,24.4080939 C17.4436532,24.5333448 17.440174,24.6933877 17.4332156,24.8882224 C17.4262572,25.0830571 17.4366948,25.2744127 17.4645283,25.462289 C17.4923618,25.6501654 17.5515081,25.8102082 17.6419671,25.9424175 C17.7324261,26.0746268 17.8820313,26.1407314 18.0907828,26.1407314 Z M28.653609,25.5562272 C29.1963629,25.5562272 29.6590954,25.5075185 30.0418065,25.4101012 C30.4245176,25.3126838 30.7515616,25.2013497 31.0229386,25.0760988 C31.2943155,24.9508479 31.5169838,24.8255969 31.6909434,24.700346 C31.864903,24.5750951 32.0145082,24.4846362 32.1397591,24.4289691 C32.9747652,23.5104625 33.4827272,22.70329 33.6636451,22.0074516 L33.7053954,20.5044408 C33.6775619,19.6833515 33.5488318,18.9388045 33.3192051,18.2707997 C33.0895785,17.6027949 32.7938472,17.0356866 32.4320112,16.5694749 C32.0701753,16.1032632 31.6526723,15.7414273 31.1795022,15.4839671 C30.7063321,15.2265069 30.2192453,15.0977768 29.7182417,15.0977768 C29.0641536,15.0977768 28.3683153,15.1951942 27.6307266,15.3900289 C27.2132236,15.5848636 26.8096374,15.8423238 26.4199679,16.1624095 C26.0302984,16.4824951 25.6789,16.8826022 25.3657728,17.3627306 C25.0526455,17.8428591 24.8021437,18.4204049 24.6142674,19.0953681 C24.426391,19.7703313 24.3324528,20.5670662 24.3324528,21.4855729 L24.3324528,21.7987001 C24.3324528,21.8961175 24.3394112,21.9935349 24.353328,22.0909522 C24.7290807,23.2877942 25.278793,24.1645505 26.0024649,24.7212212 C26.7261368,25.2778919 27.6098515,25.5562272 28.653609,25.5562272 Z M28.4866078,24.2410927 C28.0830215,24.2410927 27.7142272,24.1575921 27.3802248,23.9905909 C27.0462224,23.8235897 26.7609287,23.6044006 26.5243436,23.3330237 C26.2877586,23.0616467 26.1068406,22.7485195 25.9815897,22.3936419 C25.8563388,22.0387644 25.7937134,21.6734492 25.7937134,21.2976965 C25.7937134,20.5879414 25.9955065,19.6694348 26.3990927,18.5421766 C26.6495945,17.8463383 27.0914519,17.3035844 27.7246648,16.9139149 C28.3578777,16.5242454 29.1059039,16.3294107 29.9687435,16.3294107 C30.1914117,16.3294107 30.4453927,16.4407448 30.7306865,16.6634131 C31.0159802,16.8860814 31.2769196,17.188771 31.5135046,17.5714821 C31.7500897,17.9541932 31.9518828,18.403009 32.118884,18.9179293 C32.2858852,19.4328497 32.3693858,19.982562 32.3693858,20.5670662 C32.3693858,20.7201507 32.3589482,20.9184646 32.3380731,21.162008 C32.3171979,21.4055515 32.2789268,21.7012828 32.2232597,22.0492019 C32.0840921,22.3692876 31.9240492,22.6615397 31.7431313,22.9259582 C31.5622133,23.1903768 31.3291075,23.4200035 31.0438137,23.6148382 C30.75852,23.809673 30.4106008,23.9627574 30.0000562,24.0740915 C29.5895116,24.1854257 29.0850288,24.2410927 28.4866078,24.2410927 Z M38.50668,26.8504866 C39.1886016,26.5443177 39.8287729,26.3564413 40.4271939,26.2868575 C40.5802783,26.2729407 40.7855506,26.1929193 41.0430108,26.0467933 C41.300471,25.9006672 41.5579312,25.7371452 41.8153914,25.5562272 C42.0728516,25.3753092 42.3024783,25.2117872 42.5042714,25.0656612 C42.7060645,24.9195351 42.8347946,24.8325553 42.8904617,24.8047218 C43.1966305,24.4011356 43.4784451,24.0358204 43.7359053,23.7087764 C43.9933654,23.3817324 44.2334297,23.0929595 44.456098,22.8424576 C45.1936866,21.8265337 45.5763977,20.7201507 45.6042312,19.5233087 C45.6042312,18.966638 45.3885213,18.0690066 44.9571016,16.8304143 C44.8457674,16.6216628 44.6718078,16.4129113 44.4352228,16.2041598 C44.1986378,15.9954083 43.9168232,15.8075319 43.5897792,15.6405307 C43.2627352,15.4735295 42.89742,15.3343618 42.4938338,15.2230277 C42.0902476,15.1116936 41.6588278,15.0560265 41.1995745,15.0560265 C40.4898193,15.0560265 39.7591891,15.1882358 39.0076837,15.4526544 C38.8267657,15.2995699 38.6180142,15.2230277 38.3814291,15.2230277 C37.852592,15.2230277 37.5046728,15.4178624 37.3376716,15.8075319 C37.2263375,16.6842882 37.1428369,17.4671064 37.0871698,18.1559864 C37.0315027,18.8448663 37.0036692,19.4398081 37.0036692,19.9408117 C37.0036692,21.0680699 37.073253,22.1013898 37.2124207,23.0407716 C37.3515884,23.9801534 37.4211722,24.7977634 37.4211722,25.4936018 L37.4211722,25.8693545 C37.4211722,25.9806886 37.4142138,26.078106 37.4002971,26.1616066 C37.4977144,26.6208599 37.8665088,26.8504866 38.50668,26.8504866 Z M38.9450582,25.2848503 C38.8058905,24.7699299 38.6980356,24.2584887 38.6214934,23.7505267 C38.5449512,23.2425647 38.4892841,22.7659154 38.4544922,22.3205789 C38.4197003,21.8752423 38.3988251,21.4855729 38.3918667,21.1515705 C38.3849083,20.817568 38.3814291,20.5670662 38.3814291,20.400065 C38.3814291,18.4656344 38.4927633,17.206167 38.7154316,16.6216628 C38.7571819,16.6355796 38.8267657,16.6425379 38.9241831,16.6425379 C38.9659334,16.6425379 39.0737883,16.6286212 39.2477479,16.6007876 C39.4217075,16.5729541 39.6200214,16.5416414 39.8426897,16.5068495 C40.065358,16.4720575 40.2880262,16.4407448 40.5106945,16.4129113 C40.7333628,16.3850777 40.9073224,16.371161 41.0325733,16.371161 C41.4361595,16.371161 41.7840787,16.4407448 42.0763308,16.5799125 C42.479917,16.7608305 42.8104403,16.93479 43.0679004,17.1017912 C43.3253606,17.2687925 43.5271538,17.442752 43.6732798,17.62367 C43.8194059,17.804588 43.9272608,18.0063811 43.9968446,18.2290494 C44.0664285,18.4517177 44.1151372,18.7091778 44.1429707,19.0014299 L44.1429707,19.2936821 C44.1429707,19.9756036 44.0246782,20.598379 43.7880931,21.162008 C43.5515081,21.7256371 43.2731728,22.2196823 42.9530871,22.6441437 C42.6330015,23.0686051 42.316395,23.4165243 42.0032678,23.6879012 C41.6901405,23.9592782 41.4500763,24.136717 41.2830751,24.2202176 C40.0583996,24.9021392 39.2790606,25.2570167 38.9450582,25.2848503 Z M50.4472662,26.8504866 C51.1291877,26.5443177 51.769359,26.3564413 52.36778,26.2868575 C52.5208644,26.2729407 52.7261368,26.1929193 52.9835969,26.0467933 C53.2410571,25.9006672 53.4985173,25.7371452 53.7559775,25.5562272 C54.0134377,25.3753092 54.2430644,25.2117872 54.4448575,25.0656612 C54.6466506,24.9195351 54.7753807,24.8325553 54.8310478,24.8047218 C55.1372166,24.4011356 55.4190312,24.0358204 55.6764914,23.7087764 C55.9339516,23.3817324 56.1740158,23.0929595 56.3966841,22.8424576 C57.1342727,21.8265337 57.5169838,20.7201507 57.5448173,19.5233087 C57.5448173,18.966638 57.3291075,18.0690066 56.8976877,16.8304143 C56.7863535,16.6216628 56.612394,16.4129113 56.3758089,16.2041598 C56.1392239,15.9954083 55.8574093,15.8075319 55.5303653,15.6405307 C55.2033213,15.4735295 54.8380062,15.3343618 54.4344199,15.2230277 C54.0308337,15.1116936 53.5994139,15.0560265 53.1401606,15.0560265 C52.4304055,15.0560265 51.6997752,15.1882358 50.9482698,15.4526544 C50.7673518,15.2995699 50.5586003,15.2230277 50.3220153,15.2230277 C49.7931781,15.2230277 49.4452589,15.4178624 49.2782577,15.8075319 C49.1669236,16.6842882 49.083423,17.4671064 49.0277559,18.1559864 C48.9720889,18.8448663 48.9442553,19.4398081 48.9442553,19.9408117 C48.9442553,21.0680699 49.0138392,22.1013898 49.1530068,23.0407716 C49.2921745,23.9801534 49.3617583,24.7977634 49.3617583,25.4936018 L49.3617583,25.8693545 C49.3617583,25.9806886 49.3547999,26.078106 49.3408832,26.1616066 C49.4383005,26.6208599 49.8070949,26.8504866 50.4472662,26.8504866 Z M50.8856443,25.2848503 C50.7464766,24.7699299 50.6386217,24.2584887 50.5620795,23.7505267 C50.4855373,23.2425647 50.4298702,22.7659154 50.3950783,22.3205789 C50.3602864,21.8752423 50.3394112,21.4855729 50.3324528,21.1515705 C50.3254944,20.817568 50.3220153,20.5670662 50.3220153,20.400065 C50.3220153,18.4656344 50.4333494,17.206167 50.6560177,16.6216628 C50.697768,16.6355796 50.7673518,16.6425379 50.8647692,16.6425379 C50.9065195,16.6425379 51.0143744,16.6286212 51.188334,16.6007876 C51.3622936,16.5729541 51.5606075,16.5416414 51.7832758,16.5068495 C52.0059441,16.4720575 52.2286123,16.4407448 52.4512806,16.4129113 C52.6739489,16.3850777 52.8479085,16.371161 52.9731594,16.371161 C53.3767456,16.371161 53.7246648,16.4407448 54.0169169,16.5799125 C54.4205031,16.7608305 54.7510264,16.93479 55.0084866,17.1017912 C55.2659467,17.2687925 55.4677399,17.442752 55.6138659,17.62367 C55.759992,17.804588 55.8678469,18.0063811 55.9374308,18.2290494 C56.0070146,18.4517177 56.0557233,18.7091778 56.0835568,19.0014299 L56.0835568,19.2936821 C56.0835568,19.9756036 55.9652643,20.598379 55.7286792,21.162008 C55.4920942,21.7256371 55.2137589,22.2196823 54.8936732,22.6441437 C54.5735876,23.0686051 54.2569811,23.4165243 53.9438539,23.6879012 C53.6307266,23.9592782 53.3906624,24.136717 53.2236612,24.2202176 C51.9989857,24.9021392 51.2196467,25.2570167 50.8856443,25.2848503 Z M62.6102206,15.682281 C62.6593517,15.682281 62.8710495,15.6405924 62.9038036,15.6266757 C63.1085165,15.2787565 63.1035788,14.9899219 63.2305008,14.6907114 C63.3574228,14.3915009 63.455685,14.1131655 63.5252874,13.8557053 C63.5948898,13.5982451 63.6419738,13.3581809 63.6665393,13.1355126 C63.6911049,12.9128444 63.7033877,12.6971345 63.7033877,12.488383 C63.7033877,12.4187991 63.6951991,12.3422569 63.6788221,12.2587563 C63.5396173,11.6742521 63.3267159,11.382 63.0401178,11.382 C62.9254785,11.382 62.806745,11.4237503 62.6839173,11.5072509 L62.3768479,12.217006 C62.2262783,12.732658 62.3850364,15.3134867 62.3768479,15.3691538 C62.3850364,15.5779053 62.4628273,15.682281 62.6102206,15.682281 Z M70.4247852,26.3703581 C71.3711254,26.3703581 72.1504643,26.1963985 72.7628021,25.8484793 C73.3751398,25.5005601 73.8274348,25.0065149 74.1196869,24.3663436 C74.2031875,24.1854257 74.2692921,24.0358204 74.3180008,23.9175279 C74.3667095,23.7992354 74.4015014,23.6635469 74.4223766,23.5104625 C74.4432517,23.357378 74.4606477,23.1590641 74.4745644,22.9155207 C74.4884812,22.6719773 74.502398,22.341454 74.5163147,21.923951 C74.4188974,21.5760318 74.248417,21.252467 74.0048735,20.9532565 C73.7613301,20.654046 73.4760364,20.3896275 73.1489924,20.1600008 C72.8219483,19.9303741 72.4809876,19.7251018 72.12611,19.5441839 C71.7712324,19.3632659 71.43723,19.2101815 71.1241028,19.0849305 C70.8109755,18.9596796 70.5430777,18.8587831 70.3204095,18.7822409 C70.0977412,18.7056986 69.9585735,18.6535108 69.9029065,18.6256772 C69.6245711,18.4725928 69.3810277,18.2429661 69.1722762,17.9367973 C68.9635247,17.6306284 68.8591489,17.296626 68.8591489,16.93479 C68.8591489,16.7260385 68.9217744,16.4998911 69.0470253,16.2563477 C69.1722762,16.0128042 69.3392774,15.7866568 69.5480289,15.5779053 C69.7567804,15.3691538 69.9968446,15.1951942 70.2682216,15.0560265 C70.5395986,14.9168588 70.8214131,14.847275 71.1136652,14.847275 C71.2389161,14.847275 71.3954797,14.8890253 71.5833561,14.9725259 C71.7712324,15.0560265 71.9556296,15.1499647 72.1365476,15.2543404 C72.3174655,15.3587162 72.4809876,15.4561335 72.6271136,15.5465925 C72.7732397,15.6370515 72.8602195,15.682281 72.888053,15.682281 C73.3612231,15.682281 73.5978081,15.4874463 73.5978081,15.0977768 C73.5978081,14.9307756 73.5143075,14.756816 73.3473063,14.575898 C73.1803051,14.3949801 72.9819912,14.231458 72.7523645,14.085332 C72.5227379,13.9392059 72.2931112,13.8174342 72.0634845,13.7200169 C71.8338579,13.6225995 71.6564191,13.5738908 71.5311682,13.5738908 C71.1693323,13.5738908 70.3760765,13.7826423 69.151401,14.2001453 C67.9267255,15.1186519 67.3143878,16.0719505 67.3143878,17.0600409 C67.3143878,17.5053775 67.6066399,18.1942575 68.1911441,19.1266809 C68.7060645,19.4885168 69.1931513,19.7598938 69.6524047,19.9408117 C69.9446568,20.0521459 70.27518,20.1739176 70.6439743,20.3061269 C71.0127686,20.4383361 71.364167,20.5948998 71.6981694,20.7758177 C72.0321718,20.9567357 72.3105072,21.179404 72.5331754,21.4438226 C72.7558437,21.7082411 72.8671778,22.0283268 72.8671778,22.4040795 C72.8671778,22.8215825 72.8358651,23.1903768 72.7732397,23.5104625 C72.7106142,23.8305481 72.6305928,24.0880083 72.5331754,24.282843 C72.4496748,24.3663436 72.3313823,24.4533234 72.1782979,24.5437824 C72.0252134,24.6342414 71.8582122,24.7107836 71.6772943,24.7734091 C71.4963763,24.8360345 71.3189375,24.8882224 71.1449779,24.9299727 C70.9710183,24.971723 70.8283715,24.9925982 70.7170373,24.9925982 C69.9655319,24.9925982 69.2627352,24.8603889 68.6086471,24.5959703 C68.5112298,24.4985529 68.4103332,24.4080939 68.3059574,24.3245933 C68.2015817,24.2410927 68.0763308,24.1610713 67.9302047,24.0845291 C67.7840787,24.0079869 67.5996815,23.9314447 67.3770132,23.8549024 C67.154345,23.7783602 66.8760096,23.6844221 66.5420072,23.5730879 C66.1105874,23.628755 65.8948776,23.8792568 65.8948776,24.3245933 C65.8948776,24.5055113 65.9888157,24.6829501 66.1766921,24.8569097 C66.3645684,25.0308693 66.6185494,25.1943913 66.9386351,25.3474757 L67.8153914,25.7649787 C68.2189777,25.9319799 68.6016887,26.0746268 68.9635247,26.1929193 C69.3253606,26.3112118 69.8124475,26.3703581 70.4247852,26.3703581 Z M87.2919069,26.6834853 C87.7094099,26.6834853 87.9320781,26.5443177 87.9599117,26.2659823 L88.1686632,24.1158418 C88.1964967,23.7679227 88.2243303,23.4547954 88.2521638,23.1764601 C88.2799973,22.8981247 88.2869557,22.6545813 88.2730389,22.4458298 L88.2730389,22.1118274 C88.2869557,21.9726597 88.31131,21.7708666 88.346102,21.506448 C88.3808939,21.2420294 88.4226442,20.9497773 88.4713529,20.6296917 C88.5200616,20.309606 88.565291,19.9860412 88.6070413,19.6589972 C88.6487916,19.3319532 88.690542,19.0292635 88.7322923,18.7509281 C88.7740426,18.4725928 88.8088345,18.2429661 88.836668,18.0620482 C88.8645015,17.8811302 88.8784183,17.7837128 88.8784183,17.7697961 C89.4072555,18.549135 89.835196,19.2310566 90.1622401,19.8155608 C90.4892841,20.400065 90.7745778,20.8871519 91.0181212,21.2768214 C91.2616647,21.6664908 91.4947705,21.9587429 91.7174388,22.1535777 C91.9401071,22.3484124 92.211484,22.4458298 92.5315697,22.4458298 C92.5594032,22.4458298 92.5767991,22.4423506 92.5837575,22.4353922 C92.5907159,22.4284338 92.6081119,22.4249546 92.6359454,22.4249546 C93.317867,21.8265337 93.7701619,21.3185717 93.9928302,20.9010686 C94.2294152,20.6644836 94.4660003,20.4244194 94.7025853,20.180876 C94.9391703,19.9373325 95.1618386,19.6694348 95.3705901,19.3771827 L96.1220955,18.31255 C96.1777626,19.0779722 96.2334297,19.7077059 96.2890967,20.2017511 C96.3447638,20.6957963 96.3934725,21.106341 96.4352228,21.433385 C96.4769731,21.760429 96.5082858,22.0352852 96.529161,22.2579534 C96.5500361,22.4806217 96.5604737,22.6963316 96.5604737,22.9050831 C96.5883072,23.4895873 96.6335367,24.0323412 96.6961622,24.5333448 C96.7587876,25.0343485 96.8318507,25.5075185 96.9153513,25.9528551 C97.0127686,26.133773 97.1936866,26.224232 97.4581052,26.224232 C97.8616914,26.224232 98.0982765,26.0850644 98.1678603,25.806729 C98.2096106,25.6814781 98.2304857,25.5214353 98.2304857,25.3266006 C98.2304857,25.2152664 98.2235274,25.0865363 98.2096106,24.9404103 C98.1956938,24.7942842 98.1748187,24.6377206 98.1469851,24.4707194 C98.0774013,23.955799 98.0217342,23.4721914 97.9799839,23.0198964 C97.9382336,22.5676015 97.9173585,22.1466193 97.9173585,21.7569498 C97.889525,21.6595325 97.854733,21.4646977 97.8129827,21.1724456 C97.7712324,20.8801935 97.7294821,20.5740246 97.6877318,20.253939 C97.6459815,19.9338533 97.6111896,19.638122 97.5833561,19.3667451 C97.5555225,19.0953681 97.5416058,18.9248877 97.5416058,18.8553039 L97.5416058,18.6465524 C97.5416058,18.1177152 97.4163549,17.3383763 97.1658531,16.3085355 C96.929268,16.099784 96.6648495,15.9954083 96.3725974,15.9954083 C96.2473464,15.9954083 96.1360123,16.0232418 96.0385949,16.0789089 L95.1409635,17.2270422 C94.7095437,17.8254631 94.3790205,18.2777581 94.1493938,18.5839269 C93.9197672,18.8900958 93.7910371,19.057097 93.7632035,19.0849305 C93.6518694,19.3354324 93.408326,19.6485596 93.0325733,20.0243123 L92.301943,20.7340674 C91.9261903,20.0103956 91.5852295,19.384141 91.2790606,18.8553039 C90.9728917,18.3264667 90.6841188,17.8532967 90.4127419,17.4357937 C90.1413649,17.0182906 89.8873839,16.6425379 89.6507989,16.3085355 C89.4142138,15.9745331 89.1706704,15.6335723 88.9201686,15.2856532 C88.8227512,15.2299861 88.6835836,15.2021525 88.5026656,15.2021525 C88.1547464,15.2021525 87.911203,15.2717364 87.7720353,15.4109041 C87.6607012,15.9119077 87.5737214,16.3607234 87.5110959,16.7573513 C87.4484705,17.1539791 87.3962826,17.5158151 87.3545323,17.8428591 C87.312782,18.1699031 87.2779901,18.476072 87.2501566,18.7613657 C87.222323,19.0466594 87.2014479,19.328474 87.1875311,19.6068093 L87.1875311,19.7529354 C87.1875311,19.8503527 87.1805727,19.982562 87.166656,20.1495632 C87.1527392,20.3165644 87.1249057,20.5183576 87.0831554,20.7549426 C87.0274883,21.1167785 86.985738,21.3638012 86.9579045,21.4960104 C86.9300709,21.6282197 86.912675,21.7430331 86.9057166,21.8404504 C86.8987582,21.9378678 86.8917998,22.0735563 86.8848414,22.2475159 C86.877883,22.4214754 86.8674455,22.7311235 86.8535287,23.1764601 C86.8535287,23.3712948 86.8430911,23.5139417 86.822216,23.6044006 C86.8013408,23.6948596 86.7839449,23.7679227 86.7700281,23.8235897 C86.7561113,23.8792568 86.7387154,23.9349239 86.7178402,23.9905909 C86.6969651,24.046258 86.6795691,24.136717 86.6656523,24.2619679 C86.6517356,24.3872188 86.6378188,24.5681368 86.623902,24.8047218 C86.6099853,25.0413068 86.6030269,25.3613925 86.6030269,25.7649787 C86.6030269,26.1268147 86.6447772,26.3703581 86.7282778,26.495609 C86.8117784,26.6208599 86.9996548,26.6834853 87.2919069,26.6834853 Z M101.800136,26.078106 C101.883637,26.078106 101.981054,26.06071 102.092389,26.0259181 C102.203723,25.9911262 102.287223,25.9737302 102.34289,25.9737302 C102.384641,25.9737302 102.447266,25.987647 102.530767,26.0154805 C102.795185,25.987647 103.014374,25.9632927 103.188334,25.9424175 C103.362294,25.9215424 103.522336,25.9041464 103.668462,25.8902296 C103.814589,25.8763129 103.964194,25.8623961 104.117278,25.8484793 C104.270363,25.8345626 104.451281,25.8206458 104.660032,25.806729 C104.896617,25.7928123 105.067098,25.7301868 105.171473,25.6188527 C105.275849,25.5075185 105.328037,25.3753092 105.328037,25.2222248 C105.328037,25.0552236 105.279328,24.9264935 105.181911,24.8360345 C105.084494,24.7455755 104.973159,24.6794709 104.847908,24.6377206 C104.722658,24.5959703 104.590448,24.571616 104.451281,24.5646576 C104.312113,24.5576992 104.200779,24.55422 104.117278,24.55422 L104.242529,22.8633328 C104.228612,22.8215825 104.221654,22.6058726 104.221654,22.2162031 L104.221654,21.5586359 C104.221654,21.3011757 104.228612,21.0054444 104.242529,20.671442 L104.179904,18.6465524 C104.15207,18.5352183 104.134674,18.3925714 104.127716,18.2186118 C104.120757,18.0446522 104.11032,17.8567759 104.096403,17.6549827 C104.082486,17.4531896 104.06857,17.2479173 104.054653,17.0391658 C104.040736,16.8304143 104.012902,16.6355796 103.971152,16.4546616 C104.082486,16.4546616 104.186862,16.4511824 104.284279,16.444224 C104.381697,16.4372656 104.472156,16.4337864 104.555656,16.4337864 C104.639157,16.4337864 104.719178,16.4372656 104.795721,16.444224 C104.872263,16.4511824 104.945326,16.4546616 105.01491,16.4546616 C105.293245,16.2180765 105.432413,15.9675747 105.432413,15.7031562 C105.432413,15.591822 105.415017,15.501363 105.380225,15.4317792 C105.345433,15.3621954 105.27237,15.3100075 105.161036,15.2752156 C105.049702,15.2404237 104.893138,15.2160693 104.691345,15.2021525 C104.489552,15.1882358 104.228612,15.1812774 103.908527,15.1812774 C103.783276,15.1395271 103.626712,15.1047352 103.438836,15.0769016 C103.250959,15.0490681 103.038729,15.0351513 102.802144,15.0351513 C102.468141,15.0351513 102.207202,15.0455889 102.019326,15.0664641 C101.831449,15.0873392 101.685323,15.1221311 101.580947,15.1708398 C101.476572,15.2195485 101.410467,15.282174 101.382633,15.3587162 C101.3548,15.4352584 101.340883,15.5222382 101.340883,15.6196556 C101.340883,15.8144903 101.438301,16.0510753 101.633135,16.3294107 C102.008888,16.371161 102.328974,16.3920361 102.593392,16.3920361 L102.593392,16.4964119 C102.593392,16.5799125 102.600351,16.7225593 102.614267,16.9243525 C102.628184,17.1261456 102.64558,17.3592514 102.666455,17.62367 C102.68733,17.8880886 102.708206,18.1699031 102.729081,18.4691136 C102.749956,18.7683241 102.760393,19.0501386 102.760393,19.3145572 L102.760393,19.8573111 C102.81606,19.9547285 102.843894,20.1286881 102.843894,20.3791899 C102.843894,20.3931067 102.826498,20.5566287 102.791706,20.8697559 C102.756914,21.1828832 102.739518,21.5899486 102.739518,22.0909522 C102.739518,22.3136205 102.760393,22.4945385 102.802144,22.6337061 C102.718643,23.3434613 102.676893,23.9210071 102.676893,24.3663436 L102.676893,24.5959703 C102.468141,24.6516374 102.273307,24.700346 102.092389,24.7420963 C101.911471,24.7838466 101.758386,24.8360345 101.633135,24.89866 C101.507884,24.9612854 101.406988,25.0378276 101.330446,25.1282866 C101.253903,25.2187456 101.215632,25.3474757 101.215632,25.5144769 C101.215632,25.8902296 101.410467,26.078106 101.800136,26.078106 Z M108.563685,26.913112 C108.75852,26.913112 108.918563,26.8852785 109.043814,26.8296114 C109.238648,26.5234425 109.419566,26.241628 109.586568,25.9841678 C109.753569,25.7267076 109.906653,25.479685 110.045821,25.2431 L111.235705,23.6565885 C111.722791,23.2390855 112.300337,22.5362888 112.968342,21.5481983 C113.427595,22.0770355 113.845098,22.5432472 114.220851,22.9468334 C114.596604,23.3504196 114.923648,23.7052972 115.201983,24.0114661 C115.410735,24.3037182 115.598611,24.5855327 115.765612,24.8569097 C115.932613,25.1282866 116.089177,25.3683509 116.235303,25.5771024 C116.381429,25.7858539 116.524076,25.9528551 116.663244,26.078106 C116.802411,26.2033569 116.941579,26.2659823 117.080747,26.2659823 C117.275581,26.2659823 117.435624,26.1859609 117.560875,26.0259181 C117.686126,25.8658753 117.748752,25.6675614 117.748752,25.4309763 C117.748752,25.4031428 117.745272,25.3718301 117.738314,25.3370381 C117.731356,25.3022462 117.727876,25.2709335 117.727876,25.2431 C117.393874,24.700346 117.094663,24.2515303 116.830245,23.8966527 C116.565826,23.5417752 116.322283,23.2460439 116.099615,23.0094589 C115.876946,22.7728738 115.685591,22.5676015 115.525548,22.3936419 C115.365505,22.2196823 115.222858,22.0422435 115.097607,21.8613256 L113.845098,20.4626905 C113.859015,20.4487737 113.949474,20.344398 114.116475,20.1495632 C114.283477,19.9547285 114.460915,19.745977 114.648792,19.5233087 C114.836668,19.3006404 115.014107,19.0918889 115.181108,18.8970542 C115.348109,18.7022195 115.445527,18.5978437 115.47336,18.5839269 C115.849113,18.1942575 116.155282,17.8637342 116.391867,17.5923573 C116.628452,17.3209803 116.816328,17.0983121 116.955496,16.9243525 C117.094663,16.7503929 117.192081,16.6112252 117.247748,16.5068495 C117.303415,16.4024737 117.331248,16.3294107 117.331248,16.2876604 C117.331248,16.1345759 117.247748,15.9849707 117.080747,15.8388446 C116.913745,15.6927186 116.746744,15.6196556 116.579743,15.6196556 C116.454492,15.6196556 116.245741,15.7623024 115.953489,16.0475961 C115.661236,16.3328899 115.334192,16.6773299 114.972356,17.0809161 L113.928599,18.31255 C113.733764,18.5073847 113.549367,18.7022195 113.375407,18.8970542 C113.201448,19.0918889 113.037926,19.2867237 112.884841,19.4815584 C112.606506,19.1614728 112.356004,18.966638 112.133336,18.8970542 C112.091586,18.8135536 112.015043,18.7196154 111.903709,18.6152397 C111.792375,18.5108639 111.677562,18.403009 111.559269,18.2916748 C111.440977,18.1803407 111.329643,18.0759649 111.225267,17.9785476 C111.120891,17.8811302 111.054787,17.804588 111.026953,17.7489209 L109.586568,16.4964119 C109.503067,16.4685783 109.440442,16.4546616 109.398691,16.4546616 C109.009022,16.4546616 108.723728,16.7329969 108.54281,17.2896676 C108.681978,17.5540862 108.925521,17.8254631 109.27344,18.1037985 C109.66311,18.4238841 109.990154,18.7022195 110.254572,18.9388045 C110.518991,19.1753895 110.752097,19.3876202 110.95389,19.5754966 C111.155683,19.7633729 111.329643,19.9303741 111.475769,20.0765002 C111.621895,20.2226263 111.7715,20.3583147 111.924585,20.4835656 C111.72975,20.7897345 111.503602,21.1028618 111.246142,21.4229474 C110.988682,21.7430331 110.724263,22.0631187 110.452886,22.3832043 C110.181509,22.70329 109.913612,23.012938 109.649193,23.3121485 C109.384775,23.611359 109.148189,23.8862152 108.939438,24.136717 C108.925521,24.1506337 108.855937,24.2445719 108.730686,24.4185315 C108.605436,24.5924911 108.469747,24.790805 108.323621,25.0134733 C108.177495,25.2361416 108.034848,25.4553307 107.89568,25.6710405 C107.756513,25.8867504 107.673012,26.0363557 107.645179,26.1198563 C107.645179,26.3842749 107.714762,26.5825888 107.85393,26.7147981 C107.993098,26.8470074 108.229683,26.913112 108.563685,26.913112 Z M123.969546,26.1407314 C124.122631,26.1407314 124.258319,26.1233355 124.376612,26.0885436 C124.494904,26.0537516 124.592322,25.9632927 124.668864,25.8171666 C124.745406,25.6710405 124.804552,25.4518515 124.846303,25.1595994 C124.888053,24.8673473 124.908928,24.463761 124.908928,23.9488406 L124.908928,23.447837 C124.908928,23.266919 124.90197,23.0790427 124.888053,22.8842079 C124.90197,22.8146241 124.908928,22.7311235 124.908928,22.6337061 L124.908928,22.3205789 C124.908928,21.9865765 124.891532,21.5760318 124.85674,21.088945 C124.821948,20.6018582 124.76976,20.0312707 124.700177,19.3771827 L124.387049,17.0182906 C125.027221,16.8512894 125.556058,16.7677888 125.973561,16.7677888 C125.987478,16.7677888 126.070978,16.7782264 126.224063,16.7991016 C126.377147,16.8199767 126.547627,16.8443311 126.735504,16.8721646 C126.92338,16.8999981 127.111257,16.9243525 127.299133,16.9452276 C127.487009,16.9661028 127.615739,16.9765403 127.685323,16.9765403 C127.880158,16.9765403 128.033242,16.9487068 128.144576,16.8930397 C128.269827,16.7121218 128.332453,16.5033703 128.332453,16.2667852 C128.332453,15.9745331 128.235035,15.77274 128.040201,15.6614059 C127.191278,15.6057388 126.585899,15.5674677 126.224063,15.5465925 C125.862227,15.5257174 125.622162,15.5118006 125.50387,15.5048422 C125.385577,15.4978838 125.32991,15.4978838 125.336869,15.5048422 C125.343827,15.5118006 125.284681,15.5152798 125.15943,15.5152798 C124.839344,15.5152798 124.5123,15.536155 124.178298,15.5779053 L123.071915,15.7031562 L119.64839,16.3294107 C119.495306,16.552079 119.418764,16.7538721 119.418764,16.93479 C119.418764,17.3662098 119.669265,17.5819197 120.170269,17.5819197 C120.267686,17.5401694 120.410333,17.4984191 120.59821,17.4566688 C120.786086,17.4149185 121.005275,17.3801266 121.255777,17.3522931 C121.506279,17.3244595 121.770697,17.3001052 122.049033,17.27923 C122.327368,17.2583549 122.605703,17.2409589 122.884039,17.2270422 C123.106707,17.8672134 123.238916,18.549135 123.280666,19.2728069 C123.280666,19.7738105 123.287625,20.2435014 123.301542,20.6818796 C123.315458,21.1202577 123.332854,21.506448 123.353729,21.8404504 C123.374605,22.1744528 123.39548,22.4458298 123.416355,22.6545813 C123.43723,22.8633328 123.447668,22.9885837 123.447668,23.030334 C123.447668,23.2251687 123.426792,23.4339202 123.385042,23.6565885 C123.343292,23.8792568 123.322417,24.1297586 123.322417,24.4080939 C123.322417,24.5333448 123.318938,24.6933877 123.311979,24.8882224 C123.305021,25.0830571 123.315458,25.2744127 123.343292,25.462289 C123.371125,25.6501654 123.430272,25.8102082 123.520731,25.9424175 C123.61119,26.0746268 123.760795,26.1407314 123.969546,26.1407314 Z M138.770028,26.5999847 C139.06228,26.5999847 139.23624,26.5095258 139.291907,26.3286078 C139.31974,26.2172737 139.333657,26.133773 139.333657,26.078106 C139.333657,25.9946054 139.305824,25.8589169 139.250157,25.6710405 C139.194489,25.4831642 139.128385,25.2813711 139.051843,25.0656612 C138.9753,24.8499513 138.905717,24.644679 138.843091,24.4498442 C138.780466,24.2550095 138.749153,24.1088834 138.749153,24.0114661 C138.693486,23.9279655 138.627381,23.7574851 138.550839,23.5000249 C138.474297,23.2425647 138.390796,22.9607502 138.300337,22.6545813 C138.209878,22.3484124 138.102023,22.0422435 137.976772,21.7360747 C137.851521,21.4299058 137.719312,21.1863624 137.580145,21.0054444 C137.524477,20.9497773 137.444456,20.8140889 137.34008,20.598379 C137.235705,20.3826691 137.12437,20.1530424 137.006078,19.909499 C136.887785,19.6659556 136.776451,19.4398081 136.672075,19.2310566 C136.5677,19.0223051 136.494637,18.8831374 136.452886,18.8135536 C136.452886,18.7578865 136.400699,18.6256772 136.296323,18.4169257 C136.191947,18.2081742 136.063217,17.9611516 135.910132,17.6758579 C135.757048,17.3905642 135.593526,17.0983121 135.419566,16.7991016 C135.245607,16.4998911 135.085564,16.2215557 134.939438,15.9640955 C134.793312,15.7066354 134.67154,15.501363 134.574123,15.3482786 C134.476705,15.1951942 134.434955,15.1325687 134.448872,15.1604022 C134.337538,14.9238172 134.121828,14.8055247 133.801742,14.8055247 C133.398156,14.8055247 133.147654,14.9725259 133.050237,15.3065283 C133.008487,15.4596127 132.921507,15.682281 132.789297,15.9745331 C132.657088,16.2667852 132.5214,16.5764333 132.382232,16.9034773 C132.243064,17.2305213 132.110855,17.5575654 131.985604,17.8846094 C131.860353,18.2116534 131.776853,18.4795512 131.735102,18.6883027 L131.025347,20.5879414 C131.025347,20.6296917 131.000993,20.7514634 130.952284,20.9532565 C130.903576,21.1550496 130.847908,21.3846763 130.785283,21.6421365 C130.722658,21.8995967 130.66699,22.1570569 130.618282,22.4145171 C130.569573,22.6719773 130.545219,22.8702912 130.545219,23.0094589 L130.545219,23.1764601 C130.545219,23.2321271 130.552177,23.2877942 130.566094,23.3434613 C130.510427,23.5661295 130.451281,23.7992354 130.388655,24.0427788 C130.32603,24.2863222 130.266883,24.5194281 130.211216,24.7420963 C130.155549,24.9647646 130.11032,25.1700369 130.075528,25.3579133 C130.040736,25.5457896 130.02334,25.6884365 130.02334,25.7858539 C130.02334,26.0085221 130.1973,26.1198563 130.545219,26.1198563 C130.893138,26.1198563 131.108848,26.0224389 131.192348,25.8276042 C131.331516,25.3126838 131.456767,24.8325553 131.568101,24.3872188 C131.679435,23.9418822 131.769894,23.5313376 131.839478,23.1555849 C132.076063,23.0025005 132.500525,22.8563744 133.112862,22.7172067 C133.7252,22.5780391 134.400163,22.4945385 135.137752,22.4667049 L136.661638,22.4040795 C136.745138,22.4736633 136.835597,22.5884766 136.933015,22.7485195 C137.030432,22.9085623 137.113933,23.1068762 137.183517,23.3434613 L137.434018,24.3454685 L138.164649,26.4121084 C138.2899,26.5373593 138.491693,26.5999847 138.770028,26.5999847 Z M132.152605,21.6316989 C132.361357,20.6992755 132.625775,19.9060198 132.945861,19.2519318 C133.25203,18.0829233 133.586032,17.2131254 133.947868,16.6425379 C134.19837,17.0739577 134.417559,17.4705856 134.605436,17.8324215 C134.793312,18.1942575 134.949876,18.5143431 135.075126,18.7926784 C135.311711,19.0710138 135.499588,19.4119746 135.638756,19.8155608 L136.098009,21.1724456 C135.931008,21.2141959 135.74661,21.2455086 135.544817,21.2663838 C135.343024,21.2872589 135.141231,21.3046549 134.939438,21.3185717 C134.737645,21.3324884 134.546289,21.3464052 134.365371,21.360322 C134.184453,21.3742387 134.031369,21.3951139 133.906118,21.4229474 C133.794784,21.3951139 133.690408,21.3811971 133.592991,21.3811971 C133.523407,21.3811971 133.415552,21.3951139 133.269426,21.4229474 C133.1233,21.4507809 132.973695,21.4786145 132.82061,21.506448 C132.667526,21.5342815 132.524879,21.5621151 132.39267,21.5899486 C132.26046,21.6177821 132.180439,21.6316989 132.152605,21.6316989 Z M143.571313,21.3185717 C143.571313,20.0660626 143.578271,19.4258913 143.592188,19.3980578 C143.592188,19.1893063 143.574792,18.876179 143.54,18.458676 C143.505208,18.041173 143.487812,17.5958365 143.487812,17.1226664 C143.487812,16.9974155 143.592188,16.8930397 143.800939,16.8095391 C144.009691,16.7260385 144.235838,16.6634131 144.479382,16.6216628 C144.722925,16.5799125 144.942114,16.5485998 145.136949,16.5277246 C145.331784,16.5068495 145.415284,16.4964119 145.387451,16.4964119 C145.624036,16.4964119 145.881496,16.5312038 146.159831,16.6007876 C146.786086,16.7956224 147.214026,17.0182906 147.443653,17.2687925 C147.67328,17.5192943 147.788093,17.9020054 147.788093,18.4169257 L147.788093,18.7718033 C147.788093,18.8970542 147.774176,19.0292635 147.746343,19.1684312 C147.440174,20.0312707 146.674752,20.6018582 145.450076,20.8801935 C145.157824,20.9915276 144.862093,21.0924242 144.562882,21.1828832 C144.263672,21.2733422 143.988816,21.3185717 143.738314,21.3185717 L143.571313,21.3185717 Z M142.068302,21.0935839 L142.070621,21.1701261 C142.073714,21.2319784 142.079899,21.3092938 142.089177,21.4020723 C142.103094,21.5412399 142.113531,21.687366 142.12049,21.8404504 C142.127448,21.9935349 142.137886,22.1431401 142.151802,22.2892662 C142.165719,22.4353922 142.172678,22.5432472 142.172678,22.612831 L142.172678,22.7172067 C142.200511,23.1764601 142.221386,23.5730879 142.235303,23.9070903 C142.24922,24.2410927 142.263137,24.5263865 142.277053,24.7629715 C142.29097,25.0273901 142.304887,25.2500583 142.318804,25.4309763 L142.318804,25.4101012 C142.346637,25.6466862 142.360554,25.8728337 142.360554,26.0885436 C142.360554,26.3042534 142.381429,26.4921298 142.423179,26.6521726 C142.46493,26.8122154 142.534514,26.9409455 142.631931,27.0383629 C142.729348,27.1357803 142.882433,27.184489 143.091184,27.184489 C143.286019,27.184489 143.432145,27.1427387 143.529562,27.0592381 C143.62698,26.9757375 143.693084,26.8678825 143.727876,26.7356732 C143.762668,26.6034639 143.780064,26.4608171 143.780064,26.3077326 L143.780064,25.8902296 C143.780064,25.6397278 143.769627,25.4135804 143.748752,25.2117872 C143.727876,25.0099941 143.707001,24.7977634 143.686126,24.5750951 C143.665251,24.3524269 143.644376,24.0949667 143.623501,23.8027146 C143.602625,23.5104625 143.592188,23.1416681 143.592188,22.6963316 L143.696564,22.6963316 C143.849648,22.7102484 144.016649,22.6928524 144.197567,22.6441437 C144.378485,22.595435 144.580278,22.5293304 144.802947,22.4458298 C145.206533,22.2927453 145.547494,22.177932 145.825829,22.1013898 C146.104164,22.0248476 146.358145,21.9483054 146.587772,21.8717631 C146.817399,21.7952209 147.040067,21.7012828 147.255777,21.5899486 C147.471487,21.4786145 147.704593,21.3046549 147.955094,21.0680699 C148.219513,20.8314848 148.431744,20.6227333 148.591786,20.4418153 C148.751829,20.2608974 148.87708,20.090417 148.967539,19.9303741 C149.057998,19.7703313 149.120624,19.5998509 149.155415,19.418933 C149.190207,19.238015 149.22152,19.0292635 149.249354,18.7926784 C149.249354,18.2360078 149.204124,17.7802336 149.113665,17.4253561 C149.023206,17.0704785 148.890997,16.7782264 148.717037,16.5485998 C148.543078,16.3189731 148.320409,16.1276176 148.049033,15.9745331 C147.777656,15.8214487 147.454091,15.6614059 147.078338,15.4944047 C146.633001,15.4248208 146.274645,15.3691538 146.003268,15.3274035 C145.731891,15.2856532 145.540535,15.264778 145.429201,15.264778 C144.942114,15.264778 144.329777,15.3621954 143.592188,15.5570301 L143.383436,15.5570301 C143.174685,15.5570301 142.986809,15.5639885 142.819807,15.5779053 C142.652806,15.591822 142.510159,15.6300931 142.391867,15.6927186 C142.273574,15.755344 142.183115,15.8527614 142.12049,15.9849707 C142.057864,16.11718 142.026552,16.3015771 142.026552,16.5381622 C142.026552,16.6634131 142.030031,16.7782264 142.036989,16.8826022 C142.043948,16.9869779 142.047427,17.0809161 142.047427,17.1644167 C142.047427,17.2340005 142.043948,17.2896676 142.036989,17.3314179 C142.030031,17.3731682 142.026552,17.4079601 142.026552,17.4357937 C142.068302,17.6027949 142.096135,17.7941504 142.110052,18.0098603 C142.123969,18.2255702 142.130927,18.4656344 142.130927,18.730053 C142.130927,19.5372255 142.117011,20.1391257 142.089177,20.5357535 C142.061344,20.9323814 142.054385,21.1306953 142.068302,21.1306953 L142.068302,21.0935839 Z M158.413545,26.5999847 C159.401635,26.5999847 159.89568,26.3425246 159.89568,25.8276042 C159.89568,25.4657682 159.721721,25.2152664 159.373802,25.0760988 L159.1233,25.0760988 C158.831048,25.0760988 158.427462,25.0969739 157.912541,25.1387242 C157.550705,25.1665577 157.27237,25.1874329 157.077535,25.2013497 C156.8827,25.2152664 156.778325,25.2222248 156.764408,25.2222248 C156.680907,25.208308 156.489552,25.1909121 156.190341,25.1700369 C155.891131,25.1491618 155.574524,25.1282866 155.240522,25.1074115 C154.906519,25.0865363 154.589913,25.062182 154.290703,25.0343485 C153.991492,25.0065149 153.793178,24.9786814 153.695761,24.9508479 C153.737511,24.1854257 153.758386,23.5591711 153.758386,23.0720843 L153.758386,22.3727668 C153.758386,22.1988072 153.765345,22.0004932 153.779261,21.777825 C153.793178,21.5551567 153.814053,21.342926 153.841887,21.1411329 C153.86972,20.9393398 153.904512,20.8106097 153.946263,20.7549426 C154.141097,20.7410258 154.325494,20.7305883 154.499454,20.7236299 C154.673414,20.7166715 154.836936,20.7131923 154.99002,20.7131923 C155.087437,20.7131923 155.181376,20.7166715 155.271835,20.7236299 C155.362294,20.7305883 155.442315,20.7340674 155.511899,20.7340674 C155.6789,20.6923171 156.096403,20.671442 156.764408,20.671442 C157.334995,20.671442 157.731623,20.6262125 157.954291,20.5357535 C158.17696,20.4452945 158.288294,20.2469806 158.288294,19.9408117 C158.288294,19.7598938 158.256981,19.6068093 158.194356,19.4815584 C158.13173,19.3563075 158.030834,19.2936821 157.891666,19.2936821 C157.808165,19.2936821 157.693352,19.2902029 157.547226,19.2832445 C157.4011,19.2762861 157.237578,19.2728069 157.05666,19.2728069 C156.875742,19.2728069 156.701782,19.2693277 156.534781,19.2623693 C156.36778,19.2554109 156.221654,19.2519318 156.096403,19.2519318 C155.818068,19.2519318 155.501461,19.2867237 155.146584,19.3563075 C154.791706,19.4258913 154.391599,19.4676416 153.946263,19.4815584 C153.960179,19.4815584 153.953221,19.384141 153.925387,19.1893063 C153.897554,18.9944716 153.883637,18.7161362 153.883637,18.3543003 C153.883637,18.2151326 153.894075,18.0272563 153.91495,17.7906712 C153.935825,17.5540862 153.963659,17.3175011 153.99845,17.0809161 C154.033242,16.8443311 154.078472,16.6286212 154.134139,16.4337864 C154.189806,16.2389517 154.252431,16.1067424 154.322015,16.0371586 C154.934353,15.8423238 155.456232,15.7449065 155.887652,15.7449065 L156.012902,15.7449065 C156.235571,15.6753226 156.660032,15.6266139 157.286287,15.5987804 C157.648123,15.5848636 157.926458,15.5605093 158.121293,15.5257174 C158.316127,15.4909255 158.455295,15.4387376 158.538796,15.3691538 C158.622296,15.2995699 158.671005,15.2195485 158.684922,15.1290895 C158.698838,15.0386305 158.705797,14.9307756 158.705797,14.8055247 C158.705797,14.61069 158.653609,14.4402096 158.549233,14.2940835 C158.444857,14.1479574 158.337003,14.0748944 158.225668,14.0748944 L158.163043,14.0748944 C158.17696,14.0748944 158.062146,14.0818528 157.818603,14.0957696 C157.57506,14.1096863 157.300203,14.1305615 156.994035,14.158395 C156.687866,14.1862286 156.395614,14.2140621 156.117278,14.2418956 C155.838943,14.2697292 155.658025,14.2975627 155.574524,14.3253962 C155.630191,14.3253962 155.532774,14.3497506 155.282272,14.3984593 C155.03177,14.4471679 154.739518,14.502835 154.405516,14.5654605 C154.071513,14.6280859 153.754907,14.6941906 153.455697,14.7637744 C153.156486,14.8333582 152.979047,14.8959837 152.92338,14.9516507 C152.714629,15.3413202 152.554586,16.0858673 152.443252,17.1852919 L152.338876,19.3771827 C152.394543,19.5441839 152.422377,19.8642695 152.422377,20.3374396 C152.422377,20.6992755 152.391064,21.1585288 152.328438,21.7151995 C152.265813,22.2718702 152.2345,22.9050831 152.2345,23.6148382 C152.2345,24.0184245 152.255375,24.4394067 152.297126,24.8777848 C152.338876,25.316163 152.394543,25.7788955 152.464127,26.2659823 C152.686795,26.4329835 153.055589,26.5164841 153.57051,26.5164841 C153.626177,26.5164841 153.747949,26.5095258 153.935825,26.495609 C154.123701,26.4816922 154.384641,26.4608171 154.718643,26.4329835 C155.358814,26.4886506 155.845901,26.5269217 156.179904,26.5477969 C156.513906,26.568672 156.694824,26.586068 156.722658,26.5999847 C156.806158,26.586068 156.914013,26.5791096 157.046222,26.5791096 L157.515913,26.5791096 C157.641164,26.5791096 157.78729,26.5825888 157.954291,26.5895472 C158.121293,26.5965056 158.274377,26.5999847 158.413545,26.5999847 Z M165.44847,26.3703581 C166.394811,26.3703581 167.17415,26.1963985 167.786487,25.8484793 C168.398825,25.5005601 168.85112,25.0065149 169.143372,24.3663436 C169.226873,24.1854257 169.292977,24.0358204 169.341686,23.9175279 C169.390395,23.7992354 169.425187,23.6635469 169.446062,23.5104625 C169.466937,23.357378 169.484333,23.1590641 169.49825,22.9155207 C169.512166,22.6719773 169.526083,22.341454 169.54,21.923951 C169.442583,21.5760318 169.272102,21.252467 169.028559,20.9532565 C168.785015,20.654046 168.499722,20.3896275 168.172678,20.1600008 C167.845634,19.9303741 167.504673,19.7251018 167.149795,19.5441839 C166.794918,19.3632659 166.460915,19.2101815 166.147788,19.0849305 C165.834661,18.9596796 165.566763,18.8587831 165.344095,18.7822409 C165.121426,18.7056986 164.982259,18.6535108 164.926592,18.6256772 C164.648256,18.4725928 164.404713,18.2429661 164.195961,17.9367973 C163.98721,17.6306284 163.882834,17.296626 163.882834,16.93479 C163.882834,16.7260385 163.94546,16.4998911 164.070711,16.2563477 C164.195961,16.0128042 164.362963,15.7866568 164.571714,15.5779053 C164.780466,15.3691538 165.02053,15.1951942 165.291907,15.0560265 C165.563284,14.9168588 165.845098,14.847275 166.13735,14.847275 C166.262601,14.847275 166.419165,14.8890253 166.607041,14.9725259 C166.794918,15.0560265 166.979315,15.1499647 167.160233,15.2543404 C167.341151,15.3587162 167.504673,15.4561335 167.650799,15.5465925 C167.796925,15.6370515 167.883905,15.682281 167.911738,15.682281 C168.384908,15.682281 168.621493,15.4874463 168.621493,15.0977768 C168.621493,14.9307756 168.537993,14.756816 168.370992,14.575898 C168.20399,14.3949801 168.005676,14.231458 167.77605,14.085332 C167.546423,13.9392059 167.316796,13.8174342 167.08717,13.7200169 C166.857543,13.6225995 166.680104,13.5738908 166.554853,13.5738908 C166.193018,13.5738908 165.399762,13.7826423 164.175086,14.2001453 C162.950411,15.1186519 162.338073,16.0719505 162.338073,17.0600409 C162.338073,17.5053775 162.630325,18.1942575 163.214829,19.1266809 C163.72975,19.4885168 164.216837,19.7598938 164.67609,19.9408117 C164.968342,20.0521459 165.298865,20.1739176 165.66766,20.3061269 C166.036454,20.4383361 166.387852,20.5948998 166.721855,20.7758177 C167.055857,20.9567357 167.334192,21.179404 167.556861,21.4438226 C167.779529,21.7082411 167.890863,22.0283268 167.890863,22.4040795 C167.890863,22.8215825 167.85955,23.1903768 167.796925,23.5104625 C167.734299,23.8305481 167.654278,24.0880083 167.556861,24.282843 C167.47336,24.3663436 167.355068,24.4533234 167.201983,24.5437824 C167.048899,24.6342414 166.881897,24.7107836 166.70098,24.7734091 C166.520062,24.8360345 166.342623,24.8882224 166.168663,24.9299727 C165.994704,24.971723 165.852057,24.9925982 165.740723,24.9925982 C164.989217,24.9925982 164.28642,24.8603889 163.632332,24.5959703 C163.534915,24.4985529 163.434018,24.4080939 163.329643,24.3245933 C163.225267,24.2410927 163.100016,24.1610713 162.95389,24.0845291 C162.807764,24.0079869 162.623367,23.9314447 162.400699,23.8549024 C162.17803,23.7783602 161.899695,23.6844221 161.565692,23.5730879 C161.134273,23.628755 160.918563,23.8792568 160.918563,24.3245933 C160.918563,24.5055113 161.012501,24.6829501 161.200377,24.8569097 C161.388254,25.0308693 161.642235,25.1943913 161.96232,25.3474757 L162.839077,25.7649787 C163.242663,25.9319799 163.625374,26.0746268 163.98721,26.1929193 C164.349046,26.3112118 164.836133,26.3703581 165.44847,26.3703581 Z" fill="#1C41BF"></path>
        <path d="M187.8125,25.34375 C187.8125,26.8109029 186.623049,28 185.156658,28 C183.689451,28 182.5,26.8109029 182.5,25.34375 C182.5,23.8765971 183.689451,22.6875 185.156658,22.6875 C186.623049,22.6883178 187.8125,23.8765971 187.8125,25.34375 Z M182.5,14.4085 C189.994167,14.4410833 196.066,20.4959167 196.087958,28 L199.5,28 C199.47875,18.6280417 191.881875,11.0325833 182.5,11 C182.5,13.2723333 182.5,14.4085 182.5,14.4085 Z M182.524501,16.7697434 L182.509631,20.1775026 C186.794816,20.2401175 190.257543,23.7289263 190.282782,28.0095355 L193.694791,28.0244233 C193.677795,21.8547071 188.701625,16.8406134 182.524501,16.7697434 Z" fill="#B7B7B7"></path>
    </g>
</svg>