<?xml version="1.0" encoding="UTF-8"?>
<svg width="228px" height="44px" viewBox="0 0 228 44" version="1.1" xmlns="http://www.w3.org/2000/svg" xmlns:xlink="http://www.w3.org/1999/xlink">
    <defs>
        <path id="path" d="M8.9735982,-3.62544108e-16 L213.026402,3.62544108e-16 C216.146717,-2.10648567e-16 217.278219,0.324889639 218.41896,0.934964463 C219.559701,1.54503929 220.454961,2.4402993 221.065036,3.58104004 C221.67511,4.72178078 222,5.85328261 222,8.9735982 L222,29.0264018 C222,32.1467174 221.67511,33.2782192 221.065036,34.41896 C220.454961,35.5597007 219.559701,36.4549607 218.41896,37.0650355 C217.278219,37.6751104 216.146717,38 213.026402,38 L8.9735982,38 C5.85328261,38 4.72178078,37.6751104 3.58104004,37.0650355 C2.4402993,36.4549607 1.54503929,35.5597007 0.934964463,34.41896 C0.324889639,33.2782192 1.40432378e-16,32.1467174 -2.41696072e-16,29.0264018 L6.95113141e-16,8.9735982 C-4.03880753e-16,5.85328261 0.324889639,4.72178078 0.934964463,3.58104004 C1.54503929,2.4402993 2.4402993,1.54503929 3.58104004,0.934964463 C4.72178078,0.324889639 5.85328261,2.10648567e-16 8.9735982,-3.62544108e-16 Z"></path>
    </defs>
    <g fill="none" transform="translate(3.000000, 3.000000)">
        <mask id="mask" fill="white">
            <use xlink:href="#path"></use>
        </mask>
        <path fill="rgb(255, 255, 243)" stroke="rgba(102, 102, 102, 0.2)" stroke-width="1" d="M8.9735982,0.25 L213.026402,0.25 C216.075918,0.25 217.18526,0.558681255 218.30106,1.15541776 C219.397589,1.741848 220.258152,2.60241054 220.844582,3.69893975 C221.441319,4.81474001 221.75,5.92408192 221.75,8.9735982 L221.75,8.9735982 L221.75,29.0264018 C221.75,32.0759181 221.441319,33.18526 220.844582,34.3010602 C220.258152,35.3975895 219.397589,36.258152 218.30106,36.8445822 C217.18526,37.4413187 216.075918,37.75 213.026402,37.75 L213.026402,37.75 L8.9735982,37.75 C5.92408192,37.75 4.81474001,37.4413187 3.69893975,36.8445822 C2.60241054,36.258152 1.741848,35.3975895 1.15541776,34.3010602 C0.558681255,33.18526 0.25,32.0759181 0.25,29.0264018 L0.25,29.0264018 L0.25,8.9735982 C0.25,5.92408192 0.558681255,4.81474001 1.15541776,3.69893975 C1.741848,2.60241054 2.60241054,1.741848 3.69893975,1.15541776 C4.81474001,0.558681255 5.92408192,0.25 8.9735982,0.25 L8.9735982,0.25 Z"></path>
        <rect fill="rgb(51, 51, 51)" mask="url(#mask)" x="0" y="0" width="38" height="38"></rect>
        <path fill="rgba(194, 135, 78, 0.9)" mask="url(#mask)" d="M14.852459,27.5737705 C14.852459,29.4662138 13.3182163,31 11.4267564,31 C9.53424271,31 8,29.4662138 8,27.5737705 C8,25.6813272 9.53424271,24.147541 11.4267564,24.147541 C13.3182163,24.1485958 14.852459,25.6813272 14.852459,27.5737705 Z M8,13.411 C17.6983333,13.4531667 25.556,21.2888333 25.5844167,31 L30,31 C29.9725,18.8715833 20.14125,9.04216667 8,9 C8,11.9406667 8,13.411 8,13.411 Z M8.01933766,16.4535519 L8,20.8580124 C13.5729388,20.9389408 18.076261,25.4481563 18.109085,30.9807578 L22.5464481,31 C22.524344,23.0257655 16.0527699,16.54515 8.01933766,16.4535519 Z"></path>
        <path fill="mediumblue" mask="url(#mask)" transform="translate(127.540000, 19.283245) rotate(-0.250000) translate(-127.540000, -19.283245)" d="M54.0907828,26.1407314 C54.2438673,26.1407314 54.3795557,26.1233355 54.4978483,26.0885436 C54.6161408,26.0537516 54.7135581,25.9632927 54.7901004,25.8171666 C54.8666426,25.6710405 54.9257888,25.4518515 54.9675391,25.1595994 C55.0092894,24.8673473 55.0301646,24.463761 55.0301646,23.9488406 L55.0301646,23.447837 C55.0301646,23.266919 55.0232062,23.0790427 55.0092894,22.8842079 C55.0232062,22.8146241 55.0301646,22.7311235 55.0301646,22.6337061 L55.0301646,22.3205789 C55.0301646,21.9865765 55.0127686,21.5760318 54.9779767,21.088945 C54.9431848,20.6018582 54.8909969,20.0312707 54.8214131,19.3771827 L54.5082858,17.0182906 C55.1484571,16.8512894 55.6772943,16.7677888 56.0947973,16.7677888 C56.108714,16.7677888 56.1922146,16.7782264 56.3452991,16.7991016 C56.4983835,16.8199767 56.6688639,16.8443311 56.8567403,16.8721646 C57.0446166,16.8999981 57.232493,16.9243525 57.4203693,16.9452276 C57.6082457,16.9661028 57.7369758,16.9765403 57.8065596,16.9765403 C58.0013944,16.9765403 58.1544788,16.9487068 58.2658129,16.8930397 C58.3910638,16.7121218 58.4536893,16.5033703 58.4536893,16.2667852 C58.4536893,15.9745331 58.3562719,15.77274 58.1614372,15.6614059 C57.5011639,15.6181093 56.9882194,15.5853361 56.6226035,15.5630865 L56.3452991,15.5465925 C55.9834631,15.5257174 55.7433989,15.5118006 55.6251064,15.5048422 C55.5068139,15.4978838 55.4511468,15.4978838 55.4581052,15.5048422 C55.4650636,15.5118006 55.4059173,15.5152798 55.2806664,15.5152798 C54.9605808,15.5152798 54.6335367,15.536155 54.2995343,15.5779053 L53.1931513,15.7031562 L49.7696267,16.3294107 C49.6165422,16.552079 49.54,16.7538721 49.54,16.93479 C49.54,17.3662098 49.7905018,17.5819197 50.2915054,17.5819197 C50.3889228,17.5401694 50.5315697,17.4984191 50.719446,17.4566688 C50.9073224,17.4149185 51.1265114,17.3801266 51.3770132,17.3522931 C51.6275151,17.3244595 51.8919336,17.3001052 52.170269,17.27923 C52.4486043,17.2583549 52.7269396,17.2409589 53.005275,17.2270422 C53.2279433,17.8672134 53.3601525,18.549135 53.4019029,19.2728069 C53.4019029,19.7738105 53.4088612,20.2435014 53.422778,20.6818796 C53.4366948,21.1202577 53.4540907,21.506448 53.4749659,21.8404504 C53.495841,22.1744528 53.5167162,22.4458298 53.5375913,22.6545813 C53.5584665,22.8633328 53.5689041,22.9885837 53.5689041,23.030334 C53.5689041,23.2251687 53.5480289,23.4339202 53.5062786,23.6565885 C53.4645283,23.8792568 53.4436532,24.1297586 53.4436532,24.4080939 C53.4436532,24.5333448 53.440174,24.6933877 53.4332156,24.8882224 C53.4262572,25.0830571 53.4366948,25.2744127 53.4645283,25.462289 C53.4923618,25.6501654 53.5515081,25.8102082 53.6419671,25.9424175 C53.7324261,26.0746268 53.8820313,26.1407314 54.0907828,26.1407314 Z M64.653609,25.5562272 C65.1963629,25.5562272 65.6590954,25.5075185 66.0418065,25.4101012 C66.4245176,25.3126838 66.7515616,25.2013497 67.0229386,25.0760988 C67.2943155,24.9508479 67.5169838,24.8255969 67.6909434,24.700346 C67.864903,24.5750951 68.0145082,24.4846362 68.1397591,24.4289691 C68.9747652,23.5104625 69.4827272,22.70329 69.6636451,22.0074516 L69.7053954,20.5044408 C69.6775619,19.6833515 69.5488318,18.9388045 69.3192051,18.2707997 C69.0895785,17.6027949 68.7938472,17.0356866 68.4320112,16.5694749 C68.0701753,16.1032632 67.6526723,15.7414273 67.1795022,15.4839671 C66.7063321,15.2265069 66.2192453,15.0977768 65.7182417,15.0977768 C65.0641536,15.0977768 64.3683153,15.1951942 63.6307266,15.3900289 C63.2132236,15.5848636 62.8096374,15.8423238 62.4199679,16.1624095 C62.0302984,16.4824951 61.6789,16.8826022 61.3657728,17.3627306 C61.0526455,17.8428591 60.8021437,18.4204049 60.6142674,19.0953681 C60.426391,19.7703313 60.3324528,20.5670662 60.3324528,21.4855729 L60.3324528,21.7987001 C60.3324528,21.8961175 60.3394112,21.9935349 60.353328,22.0909522 C60.7290807,23.2877942 61.278793,24.1645505 62.0024649,24.7212212 C62.7261368,25.2778919 63.6098515,25.5562272 64.653609,25.5562272 Z M64.4866078,24.2410927 C64.0830215,24.2410927 63.7142272,24.1575921 63.3802248,23.9905909 C63.0462224,23.8235897 62.7609287,23.6044006 62.5243436,23.3330237 C62.2877586,23.0616467 62.1068406,22.7485195 61.9815897,22.3936419 C61.8563388,22.0387644 61.7937134,21.6734492 61.7937134,21.2976965 C61.7937134,20.5879414 61.9955065,19.6694348 62.3990927,18.5421766 C62.6495945,17.8463383 63.0914519,17.3035844 63.7246648,16.9139149 C64.3578777,16.5242454 65.1059039,16.3294107 65.9687435,16.3294107 C66.1914117,16.3294107 66.4453927,16.4407448 66.7306865,16.6634131 C67.0159802,16.8860814 67.2769196,17.188771 67.5135046,17.5714821 C67.7500897,17.9541932 67.9518828,18.403009 68.118884,18.9179293 C68.2858852,19.4328497 68.3693858,19.982562 68.3693858,20.5670662 C68.3693858,20.7201507 68.3589482,20.9184646 68.3380731,21.162008 C68.3171979,21.4055515 68.2789268,21.7012828 68.2232597,22.0492019 C68.0840921,22.3692876 67.9240492,22.6615397 67.7431313,22.9259582 C67.5622133,23.1903768 67.3291075,23.4200035 67.0438137,23.6148382 C66.75852,23.809673 66.4106008,23.9627574 66.0000562,24.0740915 C65.5895116,24.1854257 65.0850288,24.2410927 64.4866078,24.2410927 Z M74.50668,26.8504866 C75.1886016,26.5443177 75.8287729,26.3564413 76.4271939,26.2868575 C76.5802783,26.2729407 76.7855506,26.1929193 77.0430108,26.0467933 C77.300471,25.9006672 77.5579312,25.7371452 77.8153914,25.5562272 C78.0728516,25.3753092 78.3024783,25.2117872 78.5042714,25.0656612 C78.7060645,24.9195351 78.8347946,24.8325553 78.8904617,24.8047218 C79.1966305,24.4011356 79.4784451,24.0358204 79.7359053,23.7087764 C79.9933654,23.3817324 80.2334297,23.0929595 80.456098,22.8424576 C81.1936866,21.8265337 81.5763977,20.7201507 81.6042312,19.5233087 C81.6042312,18.966638 81.3885213,18.0690066 80.9571016,16.8304143 C80.8457674,16.6216628 80.6718078,16.4129113 80.4352228,16.2041598 C80.1986378,15.9954083 79.9168232,15.8075319 79.5897792,15.6405307 C79.2627352,15.4735295 78.89742,15.3343618 78.4938338,15.2230277 C78.0902476,15.1116936 77.6588278,15.0560265 77.1995745,15.0560265 C76.4898193,15.0560265 75.7591891,15.1882358 75.0076837,15.4526544 C74.8267657,15.2995699 74.6180142,15.2230277 74.3814291,15.2230277 C73.852592,15.2230277 73.5046728,15.4178624 73.3376716,15.8075319 C73.2263375,16.6842882 73.1428369,17.4671064 73.0871698,18.1559864 C73.0315027,18.8448663 73.0036692,19.4398081 73.0036692,19.9408117 C73.0036692,21.0680699 73.073253,22.1013898 73.2124207,23.0407716 C73.3515884,23.9801534 73.4211722,24.7977634 73.4211722,25.4936018 L73.4211722,25.8693545 C73.4211722,25.9806886 73.4142138,26.078106 73.4002971,26.1616066 C73.4977144,26.6208599 73.8665088,26.8504866 74.50668,26.8504866 Z M74.9450582,25.2848503 C74.8058905,24.7699299 74.6980356,24.2584887 74.6214934,23.7505267 C74.5449512,23.2425647 74.4892841,22.7659154 74.4544922,22.3205789 C74.4197003,21.8752423 74.3988251,21.4855729 74.3918667,21.1515705 C74.3849083,20.817568 74.3814291,20.5670662 74.3814291,20.400065 C74.3814291,18.4656344 74.4927633,17.206167 74.7154316,16.6216628 C74.7571819,16.6355796 74.8267657,16.6425379 74.9241831,16.6425379 C74.9659334,16.6425379 75.0737883,16.6286212 75.2477479,16.6007876 C75.4217075,16.5729541 75.6200214,16.5416414 75.8426897,16.5068495 C76.065358,16.4720575 76.2880262,16.4407448 76.5106945,16.4129113 C76.7333628,16.3850777 76.9073224,16.371161 77.0325733,16.371161 C77.4361595,16.371161 77.7840787,16.4407448 78.0763308,16.5799125 C78.479917,16.7608305 78.8104403,16.93479 79.0679004,17.1017912 C79.3253606,17.2687925 79.5271538,17.442752 79.6732798,17.62367 C79.8194059,17.804588 79.9272608,18.0063811 79.9968446,18.2290494 C80.0664285,18.4517177 80.1151372,18.7091778 80.1429707,19.0014299 L80.1429707,19.2936821 C80.1429707,19.9756036 80.0246782,20.598379 79.7880931,21.162008 C79.5515081,21.7256371 79.2731728,22.2196823 78.9530871,22.6441437 C78.6330015,23.0686051 78.316395,23.4165243 78.0032678,23.6879012 C77.6901405,23.9592782 77.4500763,24.136717 77.2830751,24.2202176 C76.0583996,24.9021392 75.2790606,25.2570167 74.9450582,25.2848503 Z M86.4472662,26.8504866 C87.1291877,26.5443177 87.769359,26.3564413 88.36778,26.2868575 C88.5208644,26.2729407 88.7261368,26.1929193 88.9835969,26.0467933 C89.2410571,25.9006672 89.4985173,25.7371452 89.7559775,25.5562272 C90.0134377,25.3753092 90.2430644,25.2117872 90.4448575,25.0656612 C90.6466506,24.9195351 90.7753807,24.8325553 90.8310478,24.8047218 C91.1372166,24.4011356 91.4190312,24.0358204 91.6764914,23.7087764 C91.9339516,23.3817324 92.1740158,23.0929595 92.3966841,22.8424576 C93.1342727,21.8265337 93.5169838,20.7201507 93.5448173,19.5233087 C93.5448173,18.966638 93.3291075,18.0690066 92.8976877,16.8304143 C92.7863535,16.6216628 92.612394,16.4129113 92.3758089,16.2041598 C92.1392239,15.9954083 91.8574093,15.8075319 91.5303653,15.6405307 C91.2033213,15.4735295 90.8380062,15.3343618 90.4344199,15.2230277 C90.0308337,15.1116936 89.5994139,15.0560265 89.1401606,15.0560265 C88.4304055,15.0560265 87.6997752,15.1882358 86.9482698,15.4526544 C86.7673518,15.2995699 86.5586003,15.2230277 86.3220153,15.2230277 C85.7931781,15.2230277 85.4452589,15.4178624 85.2782577,15.8075319 C85.1669236,16.6842882 85.083423,17.4671064 85.0277559,18.1559864 C84.9720889,18.8448663 84.9442553,19.4398081 84.9442553,19.9408117 C84.9442553,21.0680699 85.0138392,22.1013898 85.1530068,23.0407716 C85.2921745,23.9801534 85.3617583,24.7977634 85.3617583,25.4936018 L85.3617583,25.8693545 C85.3617583,25.9806886 85.3547999,26.078106 85.3408832,26.1616066 C85.4383005,26.6208599 85.8070949,26.8504866 86.4472662,26.8504866 Z M86.8856443,25.2848503 C86.7464766,24.7699299 86.6386217,24.2584887 86.5620795,23.7505267 C86.4855373,23.2425647 86.4298702,22.7659154 86.3950783,22.3205789 C86.3602864,21.8752423 86.3394112,21.4855729 86.3324528,21.1515705 C86.3254944,20.817568 86.3220153,20.5670662 86.3220153,20.400065 C86.3220153,18.4656344 86.4333494,17.206167 86.6560177,16.6216628 C86.697768,16.6355796 86.7673518,16.6425379 86.8647692,16.6425379 C86.9065195,16.6425379 87.0143744,16.6286212 87.188334,16.6007876 C87.3622936,16.5729541 87.5606075,16.5416414 87.7832758,16.5068495 C88.0059441,16.4720575 88.2286123,16.4407448 88.4512806,16.4129113 C88.6739489,16.3850777 88.8479085,16.371161 88.9731594,16.371161 C89.3767456,16.371161 89.7246648,16.4407448 90.0169169,16.5799125 C90.4205031,16.7608305 90.7510264,16.93479 91.0084866,17.1017912 C91.2659467,17.2687925 91.4677399,17.442752 91.6138659,17.62367 C91.759992,17.804588 91.8678469,18.0063811 91.9374308,18.2290494 C92.0070146,18.4517177 92.0557233,18.7091778 92.0835568,19.0014299 L92.0835568,19.2936821 C92.0835568,19.9756036 91.9652643,20.598379 91.7286792,21.162008 C91.4920942,21.7256371 91.2137589,22.2196823 90.8936732,22.6441437 C90.5735876,23.0686051 90.2569811,23.4165243 89.9438539,23.6879012 C89.6307266,23.9592782 89.3906624,24.136717 89.2236612,24.2202176 C87.9989857,24.9021392 87.2196467,25.2570167 86.8856443,25.2848503 Z M98.6102206,15.682281 C98.6593517,15.682281 98.8710495,15.6405924 98.9038036,15.6266757 C99.1085165,15.2787565 99.1035788,14.9899219 99.2305008,14.6907114 C99.3574228,14.3915009 99.455685,14.1131655 99.5252874,13.8557053 C99.5948898,13.5982451 99.6419738,13.3581809 99.6665393,13.1355126 C99.6911049,12.9128444 99.7033877,12.6971345 99.7033877,12.488383 C99.7033877,12.4187991 99.6951991,12.3422569 99.6788221,12.2587563 C99.5396173,11.6742521 99.3267159,11.382 99.0401178,11.382 C98.9254785,11.382 98.806745,11.4237503 98.6839173,11.5072509 L98.3768479,12.217006 C98.2262783,12.732658 98.3850364,15.3134867 98.3768479,15.3691538 C98.3850364,15.5779053 98.4628273,15.682281 98.6102206,15.682281 Z M106.424785,26.3703581 C107.371125,26.3703581 108.150464,26.1963985 108.762802,25.8484793 C109.37514,25.5005601 109.827435,25.0065149 110.119687,24.3663436 C110.203188,24.1854257 110.269292,24.0358204 110.318001,23.9175279 C110.36671,23.7992354 110.401501,23.6635469 110.422377,23.5104625 C110.443252,23.357378 110.460648,23.1590641 110.474564,22.9155207 C110.488481,22.6719773 110.502398,22.341454 110.516315,21.923951 C110.418897,21.5760318 110.248417,21.252467 110.004874,20.9532565 C109.76133,20.654046 109.476036,20.3896275 109.148992,20.1600008 C108.821948,19.9303741 108.480988,19.7251018 108.12611,19.5441839 C107.771232,19.3632659 107.43723,19.2101815 107.124103,19.0849305 C106.810976,18.9596796 106.543078,18.8587831 106.32041,18.7822409 C106.097741,18.7056986 105.958574,18.6535108 105.902907,18.6256772 C105.624571,18.4725928 105.381028,18.2429661 105.172276,17.9367973 C104.963525,17.6306284 104.859149,17.296626 104.859149,16.93479 C104.859149,16.7260385 104.921774,16.4998911 105.047025,16.2563477 C105.172276,16.0128042 105.339277,15.7866568 105.548029,15.5779053 C105.75678,15.3691538 105.996845,15.1951942 106.268222,15.0560265 C106.539599,14.9168588 106.821413,14.847275 107.113665,14.847275 C107.238916,14.847275 107.39548,14.8890253 107.583356,14.9725259 C107.771232,15.0560265 107.95563,15.1499647 108.136548,15.2543404 C108.317466,15.3587162 108.480988,15.4561335 108.627114,15.5465925 C108.77324,15.6370515 108.86022,15.682281 108.888053,15.682281 C109.361223,15.682281 109.597808,15.4874463 109.597808,15.0977768 C109.597808,14.9307756 109.514308,14.756816 109.347306,14.575898 C109.180305,14.3949801 108.981991,14.231458 108.752365,14.085332 C108.522738,13.9392059 108.293111,13.8174342 108.063485,13.7200169 C107.833858,13.6225995 107.656419,13.5738908 107.531168,13.5738908 C107.169332,13.5738908 106.376077,13.7826423 105.151401,14.2001453 C103.926726,15.1186519 103.314388,16.0719505 103.314388,17.0600409 C103.314388,17.5053775 103.60664,18.1942575 104.191144,19.1266809 C104.706065,19.4885168 105.193151,19.7598938 105.652405,19.9408117 C105.944657,20.0521459 106.27518,20.1739176 106.643974,20.3061269 C107.012769,20.4383361 107.364167,20.5948998 107.698169,20.7758177 C108.032172,20.9567357 108.310507,21.179404 108.533175,21.4438226 C108.755844,21.7082411 108.867178,22.0283268 108.867178,22.4040795 C108.867178,22.8215825 108.835865,23.1903768 108.77324,23.5104625 C108.710614,23.8305481 108.630593,24.0880083 108.533175,24.282843 C108.449675,24.3663436 108.331382,24.4533234 108.178298,24.5437824 C108.025213,24.6342414 107.858212,24.7107836 107.677294,24.7734091 C107.496376,24.8360345 107.318938,24.8882224 107.144978,24.9299727 C106.971018,24.971723 106.828372,24.9925982 106.717037,24.9925982 C105.965532,24.9925982 105.262735,24.8603889 104.608647,24.5959703 C104.51123,24.4985529 104.410333,24.4080939 104.305957,24.3245933 C104.201582,24.2410927 104.076331,24.1610713 103.930205,24.0845291 C103.784079,24.0079869 103.599682,23.9314447 103.377013,23.8549024 C103.154345,23.7783602 102.87601,23.6844221 102.542007,23.5730879 C102.110587,23.628755 101.894878,23.8792568 101.894878,24.3245933 C101.894878,24.5055113 101.988816,24.6829501 102.176692,24.8569097 C102.364568,25.0308693 102.618549,25.1943913 102.938635,25.3474757 L103.815391,25.7649787 C104.218978,25.9319799 104.601689,26.0746268 104.963525,26.1929193 C105.325361,26.3112118 105.812448,26.3703581 106.424785,26.3703581 Z M123.291907,26.6834853 C123.70941,26.6834853 123.932078,26.5443177 123.959912,26.2659823 L124.168663,24.1158418 C124.196497,23.7679227 124.22433,23.4547954 124.252164,23.1764601 C124.279997,22.8981247 124.286956,22.6545813 124.273039,22.4458298 L124.273039,22.1118274 C124.286956,21.9726597 124.31131,21.7708666 124.346102,21.506448 C124.380894,21.2420294 124.422644,20.9497773 124.471353,20.6296917 C124.520062,20.309606 124.565291,19.9860412 124.607041,19.6589972 C124.648792,19.3319532 124.690542,19.0292635 124.732292,18.7509281 C124.774043,18.4725928 124.808835,18.2429661 124.836668,18.0620482 C124.864502,17.8811302 124.878418,17.7837128 124.878418,17.7697961 C125.407256,18.549135 125.835196,19.2310566 126.16224,19.8155608 C126.489284,20.400065 126.774578,20.8871519 127.018121,21.2768214 C127.261665,21.6664908 127.494771,21.9587429 127.717439,22.1535777 C127.940107,22.3484124 128.211484,22.4458298 128.53157,22.4458298 C128.559403,22.4458298 128.576799,22.4423506 128.583758,22.4353922 C128.590716,22.4284338 128.608112,22.4249546 128.635945,22.4249546 C129.317867,21.8265337 129.770162,21.3185717 129.99283,20.9010686 C130.229415,20.6644836 130.466,20.4244194 130.702585,20.180876 C130.93917,19.9373325 131.161839,19.6694348 131.37059,19.3771827 L132.122096,18.31255 C132.177763,19.0779722 132.23343,19.7077059 132.289097,20.2017511 C132.344764,20.6957963 132.393473,21.106341 132.435223,21.433385 C132.476973,21.760429 132.508286,22.0352852 132.529161,22.2579534 C132.550036,22.4806217 132.560474,22.6963316 132.560474,22.9050831 C132.588307,23.4895873 132.633537,24.0323412 132.696162,24.5333448 C132.758788,25.0343485 132.831851,25.5075185 132.915351,25.9528551 C133.012769,26.133773 133.193687,26.224232 133.458105,26.224232 C133.861691,26.224232 134.098277,26.0850644 134.16786,25.806729 C134.209611,25.6814781 134.230486,25.5214353 134.230486,25.3266006 C134.230486,25.2152664 134.223527,25.0865363 134.209611,24.9404103 C134.195694,24.7942842 134.174819,24.6377206 134.146985,24.4707194 C134.077401,23.955799 134.021734,23.4721914 133.979984,23.0198964 C133.938234,22.5676015 133.917359,22.1466193 133.917359,21.7569498 C133.889525,21.6595325 133.854733,21.4646977 133.812983,21.1724456 C133.771232,20.8801935 133.729482,20.5740246 133.687732,20.253939 C133.645982,19.9338533 133.61119,19.638122 133.583356,19.3667451 C133.555523,19.0953681 133.541606,18.9248877 133.541606,18.8553039 L133.541606,18.6465524 C133.541606,18.1177152 133.416355,17.3383763 133.165853,16.3085355 C132.929268,16.099784 132.66485,15.9954083 132.372597,15.9954083 C132.247346,15.9954083 132.136012,16.0232418 132.038595,16.0789089 L131.140964,17.2270422 C130.709544,17.8254631 130.379021,18.2777581 130.149394,18.5839269 C129.919767,18.8900958 129.791037,19.057097 129.763204,19.0849305 C129.651869,19.3354324 129.408326,19.6485596 129.032573,20.0243123 L128.301943,20.7340674 C127.92619,20.0103956 127.58523,19.384141 127.279061,18.8553039 C126.972892,18.3264667 126.684119,17.8532967 126.412742,17.4357937 C126.141365,17.0182906 125.887384,16.6425379 125.650799,16.3085355 C125.414214,15.9745331 125.17067,15.6335723 124.920169,15.2856532 C124.822751,15.2299861 124.683584,15.2021525 124.502666,15.2021525 C124.154746,15.2021525 123.911203,15.2717364 123.772035,15.4109041 C123.660701,15.9119077 123.573721,16.3607234 123.511096,16.7573513 C123.448471,17.1539791 123.396283,17.5158151 123.354532,17.8428591 C123.312782,18.1699031 123.27799,18.476072 123.250157,18.7613657 C123.222323,19.0466594 123.201448,19.328474 123.187531,19.6068093 L123.187531,19.7529354 C123.187531,19.8503527 123.180573,19.982562 123.166656,20.1495632 C123.152739,20.3165644 123.124906,20.5183576 123.083155,20.7549426 C123.027488,21.1167785 122.985738,21.3638012 122.957905,21.4960104 C122.930071,21.6282197 122.912675,21.7430331 122.905717,21.8404504 C122.898758,21.9378678 122.8918,22.0735563 122.884841,22.2475159 C122.877883,22.4214754 122.867446,22.7311235 122.853529,23.1764601 C122.853529,23.3712948 122.843091,23.5139417 122.822216,23.6044006 C122.801341,23.6948596 122.783945,23.7679227 122.770028,23.8235897 C122.756111,23.8792568 122.738715,23.9349239 122.71784,23.9905909 C122.696965,24.046258 122.679569,24.136717 122.665652,24.2619679 C122.651736,24.3872188 122.637819,24.5681368 122.623902,24.8047218 C122.609985,25.0413068 122.603027,25.3613925 122.603027,25.7649787 C122.603027,26.1268147 122.644777,26.3703581 122.728278,26.495609 C122.811778,26.6208599 122.999655,26.6834853 123.291907,26.6834853 Z M137.800136,26.078106 C137.883637,26.078106 137.981054,26.06071 138.092389,26.0259181 C138.203723,25.9911262 138.287223,25.9737302 138.34289,25.9737302 C138.384641,25.9737302 138.447266,25.987647 138.530767,26.0154805 C138.795185,25.987647 139.014374,25.9632927 139.188334,25.9424175 C139.362294,25.9215424 139.522336,25.9041464 139.668462,25.8902296 C139.814589,25.8763129 139.964194,25.8623961 140.117278,25.8484793 C140.270363,25.8345626 140.451281,25.8206458 140.660032,25.806729 C140.896617,25.7928123 141.067098,25.7301868 141.171473,25.6188527 C141.275849,25.5075185 141.328037,25.3753092 141.328037,25.2222248 C141.328037,25.0552236 141.279328,24.9264935 141.181911,24.8360345 C141.084494,24.7455755 140.973159,24.6794709 140.847908,24.6377206 C140.722658,24.5959703 140.590448,24.571616 140.451281,24.5646576 C140.312113,24.5576992 140.200779,24.55422 140.117278,24.55422 L140.242529,22.8633328 C140.228612,22.8215825 140.221654,22.6058726 140.221654,22.2162031 L140.221654,21.5586359 C140.221654,21.3011757 140.228612,21.0054444 140.242529,20.671442 L140.179904,18.6465524 C140.15207,18.5352183 140.134674,18.3925714 140.127716,18.2186118 C140.120757,18.0446522 140.11032,17.8567759 140.096403,17.6549827 C140.082486,17.4531896 140.06857,17.2479173 140.054653,17.0391658 C140.040736,16.8304143 140.012902,16.6355796 139.971152,16.4546616 C140.082486,16.4546616 140.186862,16.4511824 140.284279,16.444224 C140.381697,16.4372656 140.472156,16.4337864 140.555656,16.4337864 C140.639157,16.4337864 140.719178,16.4372656 140.795721,16.444224 C140.872263,16.4511824 140.945326,16.4546616 141.01491,16.4546616 C141.293245,16.2180765 141.432413,15.9675747 141.432413,15.7031562 C141.432413,15.591822 141.415017,15.501363 141.380225,15.4317792 C141.345433,15.3621954 141.27237,15.3100075 141.161036,15.2752156 C141.049702,15.2404237 140.893138,15.2160693 140.691345,15.2021525 C140.489552,15.1882358 140.228612,15.1812774 139.908527,15.1812774 C139.783276,15.1395271 139.626712,15.1047352 139.438836,15.0769016 C139.250959,15.0490681 139.038729,15.0351513 138.802144,15.0351513 C138.468141,15.0351513 138.207202,15.0455889 138.019326,15.0664641 C137.831449,15.0873392 137.685323,15.1221311 137.580947,15.1708398 C137.476572,15.2195485 137.410467,15.282174 137.382633,15.3587162 C137.3548,15.4352584 137.340883,15.5222382 137.340883,15.6196556 C137.340883,15.8144903 137.438301,16.0510753 137.633135,16.3294107 C138.008888,16.371161 138.328974,16.3920361 138.593392,16.3920361 L138.593392,16.4964119 C138.593392,16.5799125 138.600351,16.7225593 138.614267,16.9243525 C138.628184,17.1261456 138.64558,17.3592514 138.666455,17.62367 C138.68733,17.8880886 138.708206,18.1699031 138.729081,18.4691136 C138.749956,18.7683241 138.760393,19.0501386 138.760393,19.3145572 L138.760393,19.8573111 C138.81606,19.9547285 138.843894,20.1286881 138.843894,20.3791899 C138.843894,20.3931067 138.826498,20.5566287 138.791706,20.8697559 C138.756914,21.1828832 138.739518,21.5899486 138.739518,22.0909522 C138.739518,22.3136205 138.760393,22.4945385 138.802144,22.6337061 C138.718643,23.3434613 138.676893,23.9210071 138.676893,24.3663436 L138.676893,24.5959703 C138.468141,24.6516374 138.273307,24.700346 138.092389,24.7420963 C137.911471,24.7838466 137.758386,24.8360345 137.633135,24.89866 C137.507884,24.9612854 137.406988,25.0378276 137.330446,25.1282866 C137.253903,25.2187456 137.215632,25.3474757 137.215632,25.5144769 C137.215632,25.8902296 137.410467,26.078106 137.800136,26.078106 Z M144.563685,26.913112 C144.75852,26.913112 144.918563,26.8852785 145.043814,26.8296114 C145.238648,26.5234425 145.419566,26.241628 145.586568,25.9841678 C145.753569,25.7267076 145.906653,25.479685 146.045821,25.2431 L147.235705,23.6565885 C147.722791,23.2390855 148.300337,22.5362888 148.968342,21.5481983 C149.427595,22.0770355 149.845098,22.5432472 150.220851,22.9468334 C150.596604,23.3504196 150.923648,23.7052972 151.201983,24.0114661 C151.410735,24.3037182 151.598611,24.5855327 151.765612,24.8569097 C151.932613,25.1282866 152.089177,25.3683509 152.235303,25.5771024 C152.381429,25.7858539 152.524076,25.9528551 152.663244,26.078106 C152.802411,26.2033569 152.941579,26.2659823 153.080747,26.2659823 C153.275581,26.2659823 153.435624,26.1859609 153.560875,26.0259181 C153.686126,25.8658753 153.748752,25.6675614 153.748752,25.4309763 C153.748752,25.4031428 153.745272,25.3718301 153.738314,25.3370381 C153.731356,25.3022462 153.727876,25.2709335 153.727876,25.2431 C153.393874,24.700346 153.094663,24.2515303 152.830245,23.8966527 C152.565826,23.5417752 152.322283,23.2460439 152.099615,23.0094589 C151.876946,22.7728738 151.685591,22.5676015 151.525548,22.3936419 C151.365505,22.2196823 151.222858,22.0422435 151.097607,21.8613256 L149.845098,20.4626905 C149.859015,20.4487737 149.949474,20.344398 150.116475,20.1495632 C150.283477,19.9547285 150.460915,19.745977 150.648792,19.5233087 C150.836668,19.3006404 151.014107,19.0918889 151.181108,18.8970542 C151.348109,18.7022195 151.445527,18.5978437 151.47336,18.5839269 C151.849113,18.1942575 152.155282,17.8637342 152.391867,17.5923573 C152.628452,17.3209803 152.816328,17.0983121 152.955496,16.9243525 C153.094663,16.7503929 153.192081,16.6112252 153.247748,16.5068495 C153.303415,16.4024737 153.331248,16.3294107 153.331248,16.2876604 C153.331248,16.1345759 153.247748,15.9849707 153.080747,15.8388446 C152.913745,15.6927186 152.746744,15.6196556 152.579743,15.6196556 C152.454492,15.6196556 152.245741,15.7623024 151.953489,16.0475961 C151.661236,16.3328899 151.334192,16.6773299 150.972356,17.0809161 L149.928599,18.31255 C149.733764,18.5073847 149.549367,18.7022195 149.375407,18.8970542 C149.201448,19.0918889 149.037926,19.2867237 148.884841,19.4815584 C148.606506,19.1614728 148.356004,18.966638 148.133336,18.8970542 C148.091586,18.8135536 148.015043,18.7196154 147.903709,18.6152397 C147.792375,18.5108639 147.677562,18.403009 147.559269,18.2916748 C147.440977,18.1803407 147.329643,18.0759649 147.225267,17.9785476 C147.120891,17.8811302 147.054787,17.804588 147.026953,17.7489209 L145.586568,16.4964119 C145.503067,16.4685783 145.440442,16.4546616 145.398691,16.4546616 C145.009022,16.4546616 144.723728,16.7329969 144.54281,17.2896676 C144.681978,17.5540862 144.925521,17.8254631 145.27344,18.1037985 C145.66311,18.4238841 145.990154,18.7022195 146.254572,18.9388045 C146.518991,19.1753895 146.752097,19.3876202 146.95389,19.5754966 C147.155683,19.7633729 147.329643,19.9303741 147.475769,20.0765002 C147.621895,20.2226263 147.7715,20.3583147 147.924585,20.4835656 C147.72975,20.7897345 147.503602,21.1028618 147.246142,21.4229474 C146.988682,21.7430331 146.724263,22.0631187 146.452886,22.3832043 C146.181509,22.70329 145.913612,23.012938 145.649193,23.3121485 C145.384775,23.611359 145.148189,23.8862152 144.939438,24.136717 C144.925521,24.1506337 144.855937,24.2445719 144.730686,24.4185315 C144.605436,24.5924911 144.469747,24.790805 144.323621,25.0134733 C144.177495,25.2361416 144.034848,25.4553307 143.89568,25.6710405 C143.756513,25.8867504 143.673012,26.0363557 143.645179,26.1198563 C143.645179,26.3842749 143.714762,26.5825888 143.85393,26.7147981 C143.993098,26.8470074 144.229683,26.913112 144.563685,26.913112 Z M159.969546,26.1407314 C160.122631,26.1407314 160.258319,26.1233355 160.376612,26.0885436 C160.494904,26.0537516 160.592322,25.9632927 160.668864,25.8171666 C160.745406,25.6710405 160.804552,25.4518515 160.846303,25.1595994 C160.888053,24.8673473 160.908928,24.463761 160.908928,23.9488406 L160.908928,23.447837 C160.908928,23.266919 160.90197,23.0790427 160.888053,22.8842079 C160.90197,22.8146241 160.908928,22.7311235 160.908928,22.6337061 L160.908928,22.3205789 C160.908928,21.9865765 160.891532,21.5760318 160.85674,21.088945 C160.821948,20.6018582 160.76976,20.0312707 160.700177,19.3771827 L160.387049,17.0182906 C161.027221,16.8512894 161.556058,16.7677888 161.973561,16.7677888 C161.987478,16.7677888 162.070978,16.7782264 162.224063,16.7991016 C162.377147,16.8199767 162.547627,16.8443311 162.735504,16.8721646 C162.92338,16.8999981 163.111257,16.9243525 163.299133,16.9452276 C163.487009,16.9661028 163.615739,16.9765403 163.685323,16.9765403 C163.880158,16.9765403 164.033242,16.9487068 164.144576,16.8930397 C164.269827,16.7121218 164.332453,16.5033703 164.332453,16.2667852 C164.332453,15.9745331 164.235035,15.77274 164.040201,15.6614059 C163.191278,15.6057388 162.585899,15.5674677 162.224063,15.5465925 C161.862227,15.5257174 161.622162,15.5118006 161.50387,15.5048422 C161.385577,15.4978838 161.32991,15.4978838 161.336869,15.5048422 C161.343827,15.5118006 161.284681,15.5152798 161.15943,15.5152798 C160.839344,15.5152798 160.5123,15.536155 160.178298,15.5779053 L159.071915,15.7031562 L155.64839,16.3294107 C155.495306,16.552079 155.418764,16.7538721 155.418764,16.93479 C155.418764,17.3662098 155.669265,17.5819197 156.170269,17.5819197 C156.267686,17.5401694 156.410333,17.4984191 156.59821,17.4566688 C156.786086,17.4149185 157.005275,17.3801266 157.255777,17.3522931 C157.506279,17.3244595 157.770697,17.3001052 158.049033,17.27923 C158.327368,17.2583549 158.605703,17.2409589 158.884039,17.2270422 C159.106707,17.8672134 159.238916,18.549135 159.280666,19.2728069 C159.280666,19.7738105 159.287625,20.2435014 159.301542,20.6818796 C159.315458,21.1202577 159.332854,21.506448 159.353729,21.8404504 C159.374605,22.1744528 159.39548,22.4458298 159.416355,22.6545813 C159.43723,22.8633328 159.447668,22.9885837 159.447668,23.030334 C159.447668,23.2251687 159.426792,23.4339202 159.385042,23.6565885 C159.343292,23.8792568 159.322417,24.1297586 159.322417,24.4080939 C159.322417,24.5333448 159.318938,24.6933877 159.311979,24.8882224 C159.305021,25.0830571 159.315458,25.2744127 159.343292,25.462289 C159.371125,25.6501654 159.430272,25.8102082 159.520731,25.9424175 C159.61119,26.0746268 159.760795,26.1407314 159.969546,26.1407314 Z M174.770028,26.5999847 C175.06228,26.5999847 175.23624,26.5095258 175.291907,26.3286078 C175.31974,26.2172737 175.333657,26.133773 175.333657,26.078106 C175.333657,25.9946054 175.305824,25.8589169 175.250157,25.6710405 C175.194489,25.4831642 175.128385,25.2813711 175.051843,25.0656612 C174.9753,24.8499513 174.905717,24.644679 174.843091,24.4498442 C174.780466,24.2550095 174.749153,24.1088834 174.749153,24.0114661 C174.693486,23.9279655 174.627381,23.7574851 174.550839,23.5000249 C174.474297,23.2425647 174.390796,22.9607502 174.300337,22.6545813 C174.209878,22.3484124 174.102023,22.0422435 173.976772,21.7360747 C173.851521,21.4299058 173.719312,21.1863624 173.580145,21.0054444 C173.524477,20.9497773 173.444456,20.8140889 173.34008,20.598379 C173.235705,20.3826691 173.12437,20.1530424 173.006078,19.909499 C172.887785,19.6659556 172.776451,19.4398081 172.672075,19.2310566 C172.5677,19.0223051 172.494637,18.8831374 172.452886,18.8135536 C172.452886,18.7578865 172.400699,18.6256772 172.296323,18.4169257 C172.191947,18.2081742 172.063217,17.9611516 171.910132,17.6758579 C171.757048,17.3905642 171.593526,17.0983121 171.419566,16.7991016 C171.245607,16.4998911 171.085564,16.2215557 170.939438,15.9640955 C170.793312,15.7066354 170.67154,15.501363 170.574123,15.3482786 C170.476705,15.1951942 170.434955,15.1325687 170.448872,15.1604022 C170.337538,14.9238172 170.121828,14.8055247 169.801742,14.8055247 C169.398156,14.8055247 169.147654,14.9725259 169.050237,15.3065283 C169.008487,15.4596127 168.921507,15.682281 168.789297,15.9745331 C168.657088,16.2667852 168.5214,16.5764333 168.382232,16.9034773 C168.243064,17.2305213 168.110855,17.5575654 167.985604,17.8846094 C167.860353,18.2116534 167.776853,18.4795512 167.735102,18.6883027 L167.025347,20.5879414 C167.025347,20.6296917 167.000993,20.7514634 166.952284,20.9532565 C166.903576,21.1550496 166.847908,21.3846763 166.785283,21.6421365 C166.722658,21.8995967 166.66699,22.1570569 166.618282,22.4145171 C166.569573,22.6719773 166.545219,22.8702912 166.545219,23.0094589 L166.545219,23.1764601 C166.545219,23.2321271 166.552177,23.2877942 166.566094,23.3434613 C166.510427,23.5661295 166.451281,23.7992354 166.388655,24.0427788 C166.32603,24.2863222 166.266883,24.5194281 166.211216,24.7420963 C166.155549,24.9647646 166.11032,25.1700369 166.075528,25.3579133 C166.040736,25.5457896 166.02334,25.6884365 166.02334,25.7858539 C166.02334,26.0085221 166.1973,26.1198563 166.545219,26.1198563 C166.893138,26.1198563 167.108848,26.0224389 167.192348,25.8276042 C167.331516,25.3126838 167.456767,24.8325553 167.568101,24.3872188 C167.679435,23.9418822 167.769894,23.5313376 167.839478,23.1555849 C168.076063,23.0025005 168.500525,22.8563744 169.112862,22.7172067 C169.7252,22.5780391 170.400163,22.4945385 171.137752,22.4667049 L172.661638,22.4040795 C172.745138,22.4736633 172.835597,22.5884766 172.933015,22.7485195 C173.030432,22.9085623 173.113933,23.1068762 173.183517,23.3434613 L173.434018,24.3454685 L174.164649,26.4121084 C174.2899,26.5373593 174.491693,26.5999847 174.770028,26.5999847 Z M168.152605,21.6316989 C168.361357,20.6992755 168.625775,19.9060198 168.945861,19.2519318 C169.25203,18.0829233 169.586032,17.2131254 169.947868,16.6425379 C170.19837,17.0739577 170.417559,17.4705856 170.605436,17.8324215 C170.793312,18.1942575 170.949876,18.5143431 171.075126,18.7926784 C171.311711,19.0710138 171.499588,19.4119746 171.638756,19.8155608 L172.098009,21.1724456 C171.931008,21.2141959 171.74661,21.2455086 171.544817,21.2663838 C171.343024,21.2872589 171.141231,21.3046549 170.939438,21.3185717 C170.737645,21.3324884 170.546289,21.3464052 170.365371,21.360322 C170.184453,21.3742387 170.031369,21.3951139 169.906118,21.4229474 C169.794784,21.3951139 169.690408,21.3811971 169.592991,21.3811971 C169.523407,21.3811971 169.415552,21.3951139 169.269426,21.4229474 C169.1233,21.4507809 168.973695,21.4786145 168.82061,21.506448 C168.667526,21.5342815 168.524879,21.5621151 168.39267,21.5899486 C168.26046,21.6177821 168.180439,21.6316989 168.152605,21.6316989 Z M179.571313,21.3185717 C179.571313,20.0660626 179.578271,19.4258913 179.592188,19.3980578 C179.592188,19.1893063 179.574792,18.876179 179.54,18.458676 C179.505208,18.041173 179.487812,17.5958365 179.487812,17.1226664 C179.487812,16.9974155 179.592188,16.8930397 179.800939,16.8095391 C180.009691,16.7260385 180.235838,16.6634131 180.479382,16.6216628 C180.722925,16.5799125 180.942114,16.5485998 181.136949,16.5277246 C181.331784,16.5068495 181.415284,16.4964119 181.387451,16.4964119 C181.624036,16.4964119 181.881496,16.5312038 182.159831,16.6007876 C182.786086,16.7956224 183.214026,17.0182906 183.443653,17.2687925 C183.67328,17.5192943 183.788093,17.9020054 183.788093,18.4169257 L183.788093,18.7718033 C183.788093,18.8970542 183.774176,19.0292635 183.746343,19.1684312 C183.440174,20.0312707 182.674752,20.6018582 181.450076,20.8801935 C181.157824,20.9915276 180.862093,21.0924242 180.562882,21.1828832 C180.263672,21.2733422 179.988816,21.3185717 179.738314,21.3185717 L179.571313,21.3185717 Z M178.068302,21.0935839 L178.070621,21.1701261 C178.073714,21.2319784 178.079899,21.3092938 178.089177,21.4020723 C178.103094,21.5412399 178.113531,21.687366 178.12049,21.8404504 C178.127448,21.9935349 178.137886,22.1431401 178.151802,22.2892662 C178.165719,22.4353922 178.172678,22.5432472 178.172678,22.612831 L178.172678,22.7172067 C178.200511,23.1764601 178.221386,23.5730879 178.235303,23.9070903 C178.24922,24.2410927 178.263137,24.5263865 178.277053,24.7629715 C178.29097,25.0273901 178.304887,25.2500583 178.318804,25.4309763 L178.318804,25.4101012 C178.346637,25.6466862 178.360554,25.8728337 178.360554,26.0885436 C178.360554,26.3042534 178.381429,26.4921298 178.423179,26.6521726 C178.46493,26.8122154 178.534514,26.9409455 178.631931,27.0383629 C178.729348,27.1357803 178.882433,27.184489 179.091184,27.184489 C179.286019,27.184489 179.432145,27.1427387 179.529562,27.0592381 C179.62698,26.9757375 179.693084,26.8678825 179.727876,26.7356732 C179.762668,26.6034639 179.780064,26.4608171 179.780064,26.3077326 L179.780064,25.8902296 C179.780064,25.6397278 179.769627,25.4135804 179.748752,25.2117872 C179.727876,25.0099941 179.707001,24.7977634 179.686126,24.5750951 C179.665251,24.3524269 179.644376,24.0949667 179.623501,23.8027146 C179.602625,23.5104625 179.592188,23.1416681 179.592188,22.6963316 L179.696564,22.6963316 C179.849648,22.7102484 180.016649,22.6928524 180.197567,22.6441437 C180.378485,22.595435 180.580278,22.5293304 180.802947,22.4458298 C181.206533,22.2927453 181.547494,22.177932 181.825829,22.1013898 C182.104164,22.0248476 182.358145,21.9483054 182.587772,21.8717631 C182.817399,21.7952209 183.040067,21.7012828 183.255777,21.5899486 C183.471487,21.4786145 183.704593,21.3046549 183.955094,21.0680699 C184.219513,20.8314848 184.431744,20.6227333 184.591786,20.4418153 C184.751829,20.2608974 184.87708,20.090417 184.967539,19.9303741 C185.057998,19.7703313 185.120624,19.5998509 185.155415,19.418933 C185.190207,19.238015 185.22152,19.0292635 185.249354,18.7926784 C185.249354,18.2360078 185.204124,17.7802336 185.113665,17.4253561 C185.023206,17.0704785 184.890997,16.7782264 184.717037,16.5485998 C184.543078,16.3189731 184.320409,16.1276176 184.049033,15.9745331 C183.777656,15.8214487 183.454091,15.6614059 183.078338,15.4944047 C182.633001,15.4248208 182.274645,15.3691538 182.003268,15.3274035 C181.731891,15.2856532 181.540535,15.264778 181.429201,15.264778 C180.942114,15.264778 180.329777,15.3621954 179.592188,15.5570301 L179.383436,15.5570301 C179.174685,15.5570301 178.986809,15.5639885 178.819807,15.5779053 C178.652806,15.591822 178.510159,15.6300931 178.391867,15.6927186 C178.273574,15.755344 178.183115,15.8527614 178.12049,15.9849707 C178.057864,16.11718 178.026552,16.3015771 178.026552,16.5381622 C178.026552,16.6634131 178.030031,16.7782264 178.036989,16.8826022 C178.043948,16.9869779 178.047427,17.0809161 178.047427,17.1644167 C178.047427,17.2340005 178.043948,17.2896676 178.036989,17.3314179 C178.030031,17.3731682 178.026552,17.4079601 178.026552,17.4357937 C178.068302,17.6027949 178.096135,17.7941504 178.110052,18.0098603 C178.123969,18.2255702 178.130927,18.4656344 178.130927,18.730053 C178.130927,19.5372255 178.117011,20.1391257 178.089177,20.5357535 C178.061344,20.9323814 178.054385,21.1306953 178.068302,21.1306953 L178.068302,21.0935839 Z M194.413545,26.5999847 C195.401635,26.5999847 195.89568,26.3425246 195.89568,25.8276042 C195.89568,25.4657682 195.721721,25.2152664 195.373802,25.0760988 L195.1233,25.0760988 C194.831048,25.0760988 194.427462,25.0969739 193.912541,25.1387242 C193.550705,25.1665577 193.27237,25.1874329 193.077535,25.2013497 C192.8827,25.2152664 192.778325,25.2222248 192.764408,25.2222248 C192.680907,25.208308 192.489552,25.1909121 192.190341,25.1700369 C191.891131,25.1491618 191.574524,25.1282866 191.240522,25.1074115 C190.906519,25.0865363 190.589913,25.062182 190.290703,25.0343485 C189.991492,25.0065149 189.793178,24.9786814 189.695761,24.9508479 C189.737511,24.1854257 189.758386,23.5591711 189.758386,23.0720843 L189.758386,22.3727668 C189.758386,22.1988072 189.765345,22.0004932 189.779261,21.777825 C189.793178,21.5551567 189.814053,21.342926 189.841887,21.1411329 C189.86972,20.9393398 189.904512,20.8106097 189.946263,20.7549426 C190.141097,20.7410258 190.325494,20.7305883 190.499454,20.7236299 C190.673414,20.7166715 190.836936,20.7131923 190.99002,20.7131923 C191.087437,20.7131923 191.181376,20.7166715 191.271835,20.7236299 C191.362294,20.7305883 191.442315,20.7340674 191.511899,20.7340674 C191.6789,20.6923171 192.096403,20.671442 192.764408,20.671442 C193.334995,20.671442 193.731623,20.6262125 193.954291,20.5357535 C194.17696,20.4452945 194.288294,20.2469806 194.288294,19.9408117 C194.288294,19.7598938 194.256981,19.6068093 194.194356,19.4815584 C194.13173,19.3563075 194.030834,19.2936821 193.891666,19.2936821 C193.808165,19.2936821 193.693352,19.2902029 193.547226,19.2832445 C193.4011,19.2762861 193.237578,19.2728069 193.05666,19.2728069 C192.875742,19.2728069 192.701782,19.2693277 192.534781,19.2623693 C192.36778,19.2554109 192.221654,19.2519318 192.096403,19.2519318 C191.818068,19.2519318 191.501461,19.2867237 191.146584,19.3563075 C190.791706,19.4258913 190.391599,19.4676416 189.946263,19.4815584 C189.960179,19.4815584 189.953221,19.384141 189.925387,19.1893063 C189.897554,18.9944716 189.883637,18.7161362 189.883637,18.3543003 C189.883637,18.2151326 189.894075,18.0272563 189.91495,17.7906712 C189.935825,17.5540862 189.963659,17.3175011 189.99845,17.0809161 C190.033242,16.8443311 190.078472,16.6286212 190.134139,16.4337864 C190.189806,16.2389517 190.252431,16.1067424 190.322015,16.0371586 C190.934353,15.8423238 191.456232,15.7449065 191.887652,15.7449065 L192.012902,15.7449065 C192.235571,15.6753226 192.660032,15.6266139 193.286287,15.5987804 C193.648123,15.5848636 193.926458,15.5605093 194.121293,15.5257174 C194.316127,15.4909255 194.455295,15.4387376 194.538796,15.3691538 C194.622296,15.2995699 194.671005,15.2195485 194.684922,15.1290895 C194.698838,15.0386305 194.705797,14.9307756 194.705797,14.8055247 C194.705797,14.61069 194.653609,14.4402096 194.549233,14.2940835 C194.444857,14.1479574 194.337003,14.0748944 194.225668,14.0748944 L194.163043,14.0748944 C194.17696,14.0748944 194.062146,14.0818528 193.818603,14.0957696 C193.57506,14.1096863 193.300203,14.1305615 192.994035,14.158395 C192.687866,14.1862286 192.395614,14.2140621 192.117278,14.2418956 C191.838943,14.2697292 191.658025,14.2975627 191.574524,14.3253962 C191.630191,14.3253962 191.532774,14.3497506 191.282272,14.3984593 C191.03177,14.4471679 190.739518,14.502835 190.405516,14.5654605 C190.071513,14.6280859 189.754907,14.6941906 189.455697,14.7637744 C189.156486,14.8333582 188.979047,14.8959837 188.92338,14.9516507 C188.714629,15.3413202 188.554586,16.0858673 188.443252,17.1852919 L188.338876,19.3771827 C188.394543,19.5441839 188.422377,19.8642695 188.422377,20.3374396 C188.422377,20.6992755 188.391064,21.1585288 188.328438,21.7151995 C188.265813,22.2718702 188.2345,22.9050831 188.2345,23.6148382 C188.2345,24.0184245 188.255375,24.4394067 188.297126,24.8777848 C188.338876,25.316163 188.394543,25.7788955 188.464127,26.2659823 C188.686795,26.4329835 189.055589,26.5164841 189.57051,26.5164841 C189.626177,26.5164841 189.747949,26.5095258 189.935825,26.495609 C190.123701,26.4816922 190.384641,26.4608171 190.718643,26.4329835 C191.358814,26.4886506 191.845901,26.5269217 192.179904,26.5477969 C192.513906,26.568672 192.694824,26.586068 192.722658,26.5999847 C192.806158,26.586068 192.914013,26.5791096 193.046222,26.5791096 L193.515913,26.5791096 C193.641164,26.5791096 193.78729,26.5825888 193.954291,26.5895472 C194.121293,26.5965056 194.274377,26.5999847 194.413545,26.5999847 Z M201.44847,26.3703581 C202.394811,26.3703581 203.17415,26.1963985 203.786487,25.8484793 C204.398825,25.5005601 204.85112,25.0065149 205.143372,24.3663436 C205.226873,24.1854257 205.292977,24.0358204 205.341686,23.9175279 C205.390395,23.7992354 205.425187,23.6635469 205.446062,23.5104625 C205.466937,23.357378 205.484333,23.1590641 205.49825,22.9155207 C205.512166,22.6719773 205.526083,22.341454 205.54,21.923951 C205.442583,21.5760318 205.272102,21.252467 205.028559,20.9532565 C204.785015,20.654046 204.499722,20.3896275 204.172678,20.1600008 C203.845634,19.9303741 203.504673,19.7251018 203.149795,19.5441839 C202.794918,19.3632659 202.460915,19.2101815 202.147788,19.0849305 C201.834661,18.9596796 201.566763,18.8587831 201.344095,18.7822409 C201.121426,18.7056986 200.982259,18.6535108 200.926592,18.6256772 C200.648256,18.4725928 200.404713,18.2429661 200.195961,17.9367973 C199.98721,17.6306284 199.882834,17.296626 199.882834,16.93479 C199.882834,16.7260385 199.94546,16.4998911 200.070711,16.2563477 C200.195961,16.0128042 200.362963,15.7866568 200.571714,15.5779053 C200.780466,15.3691538 201.02053,15.1951942 201.291907,15.0560265 C201.563284,14.9168588 201.845098,14.847275 202.13735,14.847275 C202.262601,14.847275 202.419165,14.8890253 202.607041,14.9725259 C202.794918,15.0560265 202.979315,15.1499647 203.160233,15.2543404 C203.341151,15.3587162 203.504673,15.4561335 203.650799,15.5465925 C203.796925,15.6370515 203.883905,15.682281 203.911738,15.682281 C204.384908,15.682281 204.621493,15.4874463 204.621493,15.0977768 C204.621493,14.9307756 204.537993,14.756816 204.370992,14.575898 C204.20399,14.3949801 204.005676,14.231458 203.77605,14.085332 C203.546423,13.9392059 203.316796,13.8174342 203.08717,13.7200169 C202.857543,13.6225995 202.680104,13.5738908 202.554853,13.5738908 C202.193018,13.5738908 201.399762,13.7826423 200.175086,14.2001453 C198.950411,15.1186519 198.338073,16.0719505 198.338073,17.0600409 C198.338073,17.5053775 198.630325,18.1942575 199.214829,19.1266809 C199.72975,19.4885168 200.216837,19.7598938 200.67609,19.9408117 C200.968342,20.0521459 201.298865,20.1739176 201.66766,20.3061269 C202.036454,20.4383361 202.387852,20.5948998 202.721855,20.7758177 C203.055857,20.9567357 203.334192,21.179404 203.556861,21.4438226 C203.779529,21.7082411 203.890863,22.0283268 203.890863,22.4040795 C203.890863,22.8215825 203.85955,23.1903768 203.796925,23.5104625 C203.734299,23.8305481 203.654278,24.0880083 203.556861,24.282843 C203.47336,24.3663436 203.355068,24.4533234 203.201983,24.5437824 C203.048899,24.6342414 202.881897,24.7107836 202.70098,24.7734091 C202.520062,24.8360345 202.342623,24.8882224 202.168663,24.9299727 C201.994704,24.971723 201.852057,24.9925982 201.740723,24.9925982 C200.989217,24.9925982 200.28642,24.8603889 199.632332,24.5959703 C199.534915,24.4985529 199.434018,24.4080939 199.329643,24.3245933 C199.225267,24.2410927 199.100016,24.1610713 198.95389,24.0845291 C198.807764,24.0079869 198.623367,23.9314447 198.400699,23.8549024 C198.17803,23.7783602 197.899695,23.6844221 197.565692,23.5730879 C197.134273,23.628755 196.918563,23.8792568 196.918563,24.3245933 C196.918563,24.5055113 197.012501,24.6829501 197.200377,24.8569097 C197.388254,25.0308693 197.642235,25.1943913 197.96232,25.3474757 L198.839077,25.7649787 C199.242663,25.9319799 199.625374,26.0746268 199.98721,26.1929193 C200.349046,26.3112118 200.836133,26.3703581 201.44847,26.3703581 Z"></path>
    </g>
</svg>