<?xml version="1.0" encoding="UTF-8"?>
<svg width="212px" height="44px" viewBox="0 0 212 44" version="1.1" xmlns="http://www.w3.org/2000/svg">
    <g transform="translate(4.000000, 4.000000)" fill="none">
        <mask id="mask" fill="#FFFFFF">
            <path d="M13.0993614,35.9981177 C12.5722604,35.9981177 12.0578924,35.9944473 11.5349262,35.9880477 C10.4515593,35.9803688 9.37072458,35.9290626 8.30128616,35.8345498 C7.3040888,35.7411224 6.33807261,35.5673304 5.43510129,35.3189062 C4.54040974,35.0725404 3.72437912,34.7494987 3.01827048,34.3621562 C2.30194108,33.9793765 1.70556413,33.5354173 1.25277298,33.047872 C0.794992464,32.557158 0.478181101,32.0311718 0.313374898,31.4882359 C0.135398505,30.9048451 0.0391059029,30.314945 0.025327418,29.7236223 C0.0143591236,29.5251386 0,28.864279 0,28.864279 L0,7.12371222 C0,7.12371222 0.0152933317,6.47300742 0.0254139188,6.28183624 C0.0386067125,5.69145022 0.134339372,5.10246553 0.311783284,4.51998013 C0.476893697,3.97555691 0.793950323,3.44805394 1.25197718,2.95573251 C1.70310421,2.46852396 2.29617019,2.02423326 3.0081845,1.64008366 C3.71939851,1.25228409 4.53803946,0.927578905 5.43425358,0.677809265 C6.33514961,0.430183251 7.29934016,0.257617161 8.29452181,0.165892502 C9.36747243,0.0704303301 10.4520594,0.0188188601 11.539182,0.0114911639 L13.1002091,0 L190.891331,0 L192.471008,0.0119523162 C193.548242,0.0189159029 194.622976,0.0700669302 195.686067,0.164970198 C196.691324,0.257845406 197.665563,0.431615582 198.576749,0.680566768 C200.372191,1.18392496 201.833107,1.98028511 202.754735,2.95802886 C203.205451,3.44695159 203.517618,3.97015171 203.680639,4.50987242 C203.860196,5.09713714 203.960689,5.69075029 203.981316,6.2859772 C203.986333,6.55250444 203.986333,6.83879536 203.986333,7.12371222 C204,7.47663495 204,7.8125515 204,8.15122556 L204,27.8477674 C204,28.189679 204,28.5233086 203.986333,28.8596675 C203.986333,29.1657221 203.986333,29.4460839 203.979586,29.7346335 C203.959405,30.3192388 203.860588,30.9022564 203.683926,31.4790129 C203.522498,32.0258654 203.207412,32.5559571 202.749718,33.0506954 C202.293726,33.5329489 201.700774,33.9730624 200.992715,34.3548154 C200.285971,34.7442394 199.4685,35.0691712 198.571732,35.3171181 C197.66307,35.567452 196.690265,35.7418867 195.686067,35.8345498 C194.61671,35.929567 193.535771,35.9808764 192.452324,35.9880477 C191.945602,35.9944473 191.415007,35.9981177 190.899808,35.9981177 L189.024472,36 L13.0993614,35.9981177 Z"></path>
        </mask>
        <path d="M190.887548,0.499985688 L13.1002091,0.5 L11.5428626,0.511477617 C10.469147,0.518715041 9.39824487,0.569667543 8.33883259,0.663925187 C7.37539519,0.752726541 6.44037506,0.919804313 5.56677192,1.15992843 C4.71126672,1.39835601 3.92786993,1.70811035 3.24754617,2.07906656 C2.58688104,2.43551758 2.03639503,2.84450401 1.61885451,3.29543977 C1.21687572,3.72751861 0.935061501,4.18764281 0.790262866,4.66509143 C0.62618733,5.20369452 0.537475155,5.74767397 0.524714729,6.30826919 C0.515330407,6.48553281 0.501524509,7.06491864 0.500000111,7.12957844 L0.500412918,28.8774019 C0.503063774,28.9961263 0.515045109,29.5237477 0.525191738,29.7119749 C0.537922625,30.2583385 0.627178458,30.8033289 0.791615219,31.342338 C0.936253615,31.8188316 1.21769859,32.2772909 1.61838207,32.7068002 C2.03807308,33.1587029 2.59145718,33.567174 3.25391795,33.9211684 C3.93330275,34.2938168 4.71320569,34.6015122 5.56784263,34.8368484 C6.44360565,35.077787 7.3806711,35.2461077 8.34792692,35.3367299 C9.40135583,35.4298209 10.468663,35.4804775 11.5384701,35.4880602 C12.0619654,35.4944598 12.5743218,35.4981177 13.0993614,35.4981177 L189.024477,35.5 L190.899306,35.498118 C191.412911,35.4981177 191.941349,35.4944612 192.446009,35.4880876 C193.518744,35.4809782 194.585997,35.4303261 195.641815,35.336512 C196.614071,35.2467933 197.557627,35.0778734 198.438931,34.8350767 C199.295055,34.5983674 200.076292,34.2888958 200.751416,33.9168947 C201.411975,33.5607277 201.96343,33.1545144 202.386411,32.7071725 C202.783106,32.2783262 203.062974,31.8164924 203.204384,31.3374543 C203.36943,30.7985313 203.461197,30.2587205 203.479883,29.7173837 C203.486379,29.4382503 203.486333,29.1616333 203.486745,28.8393679 C203.500138,28.5097567 203.5,28.1828181 203.5,27.8477674 L203.5,8.15122556 C203.5,7.81893029 203.500117,7.48933761 203.486333,7.12371222 C203.486333,6.84199601 203.486365,6.55892078 203.481404,6.29538741 C203.462485,5.7512319 203.369018,5.20072172 203.20249,4.65606719 C203.059081,4.18129058 202.781753,3.72502262 202.38711,3.29692639 C201.520489,2.37758448 200.134901,1.63667792 198.441777,1.16200457 C197.560831,0.921327057 196.615471,0.752966834 195.640069,0.662849803 C194.59215,0.569303373 193.531196,0.518816161 192.467776,0.51194187 L190.887548,0.499985688 Z" stroke-opacity="0.5" stroke="#CCCCCC"></path>
        <rect mask="url(#mask)" x="0" y="0" width="36" height="36" fill="#B7B7B7"></rect>
        <path d="M51.7407226,24.0054444 C51.8820313,24.0054444 52.0072822,23.9893866 52.1164753,23.957271 C52.2256684,23.9251554 52.3155921,23.8416548 52.3862465,23.7067692 C52.4569008,23.5718836 52.5114974,23.3695552 52.5500361,23.099784 C52.5885749,22.8300128 52.6078442,22.4574717 52.6078442,21.9821606 L52.6078442,21.5196957 C52.6078442,21.3526945 52.6014211,21.1792702 52.5885749,20.9994227 C52.6014211,20.9351915 52.6078442,20.858114 52.6078442,20.7681903 L52.6078442,20.4791497 C52.6078442,20.1708398 52.5917864,19.7918756 52.5596708,19.3422569 C52.5275552,18.8926383 52.4793818,18.3659422 52.4151505,17.7621686 L52.12611,15.5847298 C52.7170373,15.4305749 53.2051947,15.3534974 53.5905821,15.3534974 C53.6034283,15.3534974 53.6805058,15.3631321 53.8218145,15.3824014 C53.9631232,15.4016708 54.1204898,15.4241517 54.2939141,15.4498442 C54.4673384,15.4755367 54.6407627,15.4980177 54.8141871,15.517287 C54.9876114,15.5365564 55.1064392,15.5461911 55.1706704,15.5461911 C55.3505179,15.5461911 55.4918266,15.5204986 55.5945965,15.4691136 C55.7102128,15.3021124 55.7680209,15.1094187 55.7680209,14.8910325 C55.7680209,14.6212613 55.6780971,14.4349908 55.4982497,14.3322208 C54.8887667,14.2922547 54.4152794,14.2620026 54.0777879,14.2414644 L53.8218145,14.2262393 C53.4878121,14.2069699 53.2662144,14.1941236 53.1570213,14.1877005 C53.0478282,14.1812774 52.9964432,14.1812774 53.0028663,14.1877005 C53.0092894,14.1941236 52.9546929,14.1973352 52.8390767,14.1973352 C52.543613,14.1973352 52.2417262,14.2166046 51.9334163,14.2551433 L50.9121397,14.3707595 L47.7519631,14.9488406 C47.6106544,15.1543806 47.54,15.3406511 47.54,15.5076523 C47.54,15.905886 47.7712324,16.1050028 48.2336973,16.1050028 C48.323621,16.0664641 48.4552951,16.0279253 48.6287194,15.9893866 C48.8021437,15.9508479 49.0044721,15.9187322 49.2357045,15.8930397 C49.466937,15.8673473 49.7110157,15.8448663 49.9679406,15.8255969 C50.2248655,15.8063276 50.4817904,15.7902698 50.7387154,15.7774235 C50.9442553,16.3683509 51.0662947,16.9978169 51.1048334,17.6658218 C51.1048334,18.1282866 51.1112565,18.5618475 51.1241028,18.9665042 C51.136949,19.371161 51.1530068,19.7276443 51.1722762,20.0359542 C51.1915456,20.3442642 51.2108149,20.594766 51.2300843,20.7874597 C51.2493537,20.9801534 51.2589884,21.0957696 51.2589884,21.1343083 C51.2589884,21.3141558 51.239719,21.5068495 51.2011802,21.7123894 C51.1626415,21.9179293 51.1433721,22.1491618 51.1433721,22.4060867 C51.1433721,22.5217029 51.1401606,22.6694348 51.1337375,22.8492822 C51.1273143,23.0291297 51.136949,23.2057656 51.1626415,23.3791899 C51.188334,23.5526142 51.2429305,23.700346 51.3264312,23.8223854 C51.4099318,23.9444247 51.5480289,24.0054444 51.7407226,24.0054444 Z M61.4910237,23.465902 C61.9920273,23.465902 62.419165,23.4209402 62.7724368,23.3310165 C63.1257086,23.2410927 63.4275953,23.1383228 63.6780971,23.0227065 C63.928599,22.9070903 64.1341389,22.7914741 64.294717,22.6758579 C64.4552951,22.5602417 64.5933922,22.4767411 64.7090084,22.4253561 C65.4797832,21.5775038 65.9486712,20.8324215 66.1156724,20.1901092 L66.1542112,18.8027146 C66.1285187,18.044786 66.0096909,17.3575118 65.7977278,16.740892 C65.5857648,16.1242722 65.312782,15.6007876 64.9787796,15.1704384 C64.6447772,14.7400891 64.2593898,14.4060867 63.8226174,14.1684312 C63.385845,13.9307756 62.9362264,13.8119478 62.4737615,13.8119478 C61.869988,13.8119478 61.2276756,13.9018715 60.5468246,14.081719 C60.1614372,14.2615664 59.788896,14.499222 59.4292011,14.7946857 C59.0695062,15.0901493 58.7451385,15.4594789 58.456098,15.9026744 C58.1670574,16.3458699 57.935825,16.8789892 57.7624006,17.5020321 C57.5889763,18.1250751 57.5022642,18.8605227 57.5022642,19.7083749 L57.5022642,19.9974155 C57.5022642,20.0873392 57.5086873,20.1772629 57.5215335,20.2671867 C57.8683822,21.3719639 58.3758089,22.1812774 59.0438137,22.6951273 C59.7118185,23.2089771 60.5275552,23.465902 61.4910237,23.465902 Z M61.3368687,22.2519318 C60.9643276,22.2519318 60.623902,22.1748543 60.3155921,22.0206993 C60.0072822,21.8665444 59.7439342,21.664216 59.525548,21.4137142 C59.3071618,21.1632124 59.1401606,20.8741718 59.0245444,20.5465925 C58.9089281,20.2190132 58.85112,19.8817993 58.85112,19.5349506 C58.85112,18.8797921 59.0373906,18.0319398 59.4099318,16.9913938 C59.6411642,16.3490815 60.0490325,15.8480779 60.6335367,15.488383 C61.2180409,15.1286881 61.9085267,14.9488406 62.704994,14.9488406 C62.9105339,14.9488406 63.1449779,15.0516106 63.408326,15.2571505 C63.671674,15.4626905 63.9125411,15.7420963 64.1309273,16.0953681 C64.3493135,16.4486399 64.5355841,16.8629314 64.6897391,17.3382425 C64.843894,17.8135536 64.9209715,18.3209803 64.9209715,18.8605227 C64.9209715,19.0018314 64.9113368,19.1848904 64.8920674,19.4096997 C64.8727981,19.634509 64.8374709,19.9074918 64.7860859,20.2286479 C64.6576234,20.5241116 64.5098916,20.7938828 64.3428904,21.0379615 C64.1758892,21.2820401 63.9607146,21.4940032 63.6973665,21.6738507 C63.4340185,21.8536981 63.1128623,21.9950068 62.733898,22.0977768 C62.3549338,22.2005468 61.8892573,22.2519318 61.3368687,22.2519318 Z M70.5861662,24.660603 C71.2156323,24.3779855 71.8065596,24.2045612 72.3589482,24.14033 C72.5002569,24.1274837 72.6897391,24.0536178 72.9273946,23.9187322 C73.1650502,23.7838466 73.4027057,23.6329033 73.6403613,23.465902 C73.8780169,23.2989008 74.0899799,23.1479574 74.2762505,23.0130719 C74.4625211,22.8781863 74.5813489,22.7978972 74.6327338,22.7722047 C74.9153513,22.3996636 75.1754878,22.0624496 75.4131433,21.7605628 C75.6507989,21.458676 75.8723966,21.1921164 76.0779366,20.960884 C76.7587876,20.023108 77.1120594,19.0018314 77.1377519,17.8970542 C77.1377519,17.3832043 76.9386351,16.5546214 76.5404014,15.4113055 C76.4376315,15.2186118 76.2770534,15.0259181 76.0586672,14.8332244 C75.840281,14.6405307 75.5801445,14.4671064 75.2782577,14.3129514 C74.9763709,14.1587965 74.639157,14.030334 74.2666158,13.927564 C73.8940747,13.8247941 73.495841,13.7734091 73.0719149,13.7734091 C72.4167563,13.7734091 71.7423284,13.8954484 71.0486311,14.1395271 C70.8816299,13.9982184 70.6889362,13.927564 70.47055,13.927564 C69.9823926,13.927564 69.6612365,14.1074115 69.5070815,14.4671064 C69.4043115,15.2764199 69.327234,15.9990213 69.2758491,16.6349105 C69.2244641,17.2707997 69.1987716,17.8199767 69.1987716,18.2824416 C69.1987716,19.3229876 69.2630028,20.2768214 69.3914653,21.143943 C69.5199277,22.0110646 69.584159,22.7657816 69.584159,23.4080939 L69.584159,23.7549426 C69.584159,23.8577126 69.5777358,23.9476363 69.5648896,24.0247138 C69.6548133,24.4486399 69.9952389,24.660603 70.5861662,24.660603 Z M70.990823,23.2154002 C70.8623605,22.7400891 70.7628021,22.2679896 70.6921477,21.7991016 C70.6214934,21.3302136 70.5701084,20.8902296 70.5379928,20.4791497 C70.5058772,20.0680699 70.4866078,19.7083749 70.4801847,19.400065 C70.4737615,19.0917551 70.47055,18.8605227 70.47055,18.7063677 C70.47055,16.9207395 70.57332,15.7581542 70.7788599,15.2186118 C70.8173986,15.231458 70.8816299,15.2378812 70.9715536,15.2378812 C71.0100923,15.2378812 71.1096507,15.2250349 71.2702288,15.1993424 C71.4308069,15.1736499 71.6138659,15.1447459 71.8194059,15.1126303 C72.0249458,15.0805147 72.2304857,15.0516106 72.4360257,15.0259181 C72.6415656,15.0002256 72.8021437,14.9873794 72.9177599,14.9873794 C73.2903011,14.9873794 73.6114572,15.0516106 73.8812284,15.1800731 C74.2537696,15.3470743 74.5588679,15.5076523 74.7965235,15.6618073 C75.034179,15.8159623 75.2204496,15.9765403 75.3553352,16.1435415 C75.4902208,16.3105428 75.5897792,16.4968133 75.6540104,16.7023533 C75.7182417,16.9078932 75.7632035,17.1455488 75.788896,17.41532 L75.788896,17.6850911 C75.788896,18.3145572 75.6797029,18.8894267 75.4613167,19.4096997 C75.2429305,19.9299727 74.9860056,20.3860145 74.690542,20.777825 C74.3950783,21.1696355 74.1028262,21.4907916 73.8137856,21.7412935 C73.5247451,21.9917953 73.3031473,22.1555849 73.1489924,22.2326624 C72.0185227,22.8621285 71.2991329,23.1897077 70.990823,23.2154002 Z M81.6082457,24.660603 C82.2377118,24.3779855 82.8286391,24.2045612 83.3810277,24.14033 C83.5223364,24.1274837 83.7118185,24.0536178 83.9494741,23.9187322 C84.1871297,23.7838466 84.4247852,23.6329033 84.6624408,23.465902 C84.9000963,23.2989008 85.1120594,23.1479574 85.29833,23.0130719 C85.4846006,22.8781863 85.6034283,22.7978972 85.6548133,22.7722047 C85.9374308,22.3996636 86.1975672,22.0624496 86.4352228,21.7605628 C86.6728784,21.458676 86.8944761,21.1921164 87.1000161,20.960884 C87.7808671,20.023108 88.1341389,19.0018314 88.1598314,17.8970542 C88.1598314,17.3832043 87.9607146,16.5546214 87.5624809,15.4113055 C87.459711,15.2186118 87.2991329,15.0259181 87.0807467,14.8332244 C86.8623605,14.6405307 86.602224,14.4671064 86.3003372,14.3129514 C85.9984504,14.1587965 85.6612365,14.030334 85.2886953,13.927564 C84.9161542,13.8247941 84.5179205,13.7734091 84.0939944,13.7734091 C83.4388358,13.7734091 82.7644079,13.8954484 82.0707106,14.1395271 C81.9037094,13.9982184 81.7110157,13.927564 81.4926295,13.927564 C81.0044721,13.927564 80.6833159,14.1074115 80.529161,14.4671064 C80.426391,15.2764199 80.3493135,15.9990213 80.2979285,16.6349105 C80.2465436,17.2707997 80.2208511,17.8199767 80.2208511,18.2824416 C80.2208511,19.3229876 80.2850823,20.2768214 80.4135448,21.143943 C80.5420072,22.0110646 80.6062385,22.7657816 80.6062385,23.4080939 L80.6062385,23.7549426 C80.6062385,23.8577126 80.5998153,23.9476363 80.5869691,24.0247138 C80.6768928,24.4486399 81.0173183,24.660603 81.6082457,24.660603 Z M82.0129024,23.2154002 C81.88444,22.7400891 81.7848816,22.2679896 81.7142272,21.7991016 C81.6435729,21.3302136 81.5921879,20.8902296 81.5600723,20.4791497 C81.5279566,20.0680699 81.5086873,19.7083749 81.5022642,19.400065 C81.495841,19.0917551 81.4926295,18.8605227 81.4926295,18.7063677 C81.4926295,16.9207395 81.5953994,15.7581542 81.8009394,15.2186118 C81.8394781,15.231458 81.9037094,15.2378812 81.9936331,15.2378812 C82.0321718,15.2378812 82.1317302,15.2250349 82.2923083,15.1993424 C82.4528864,15.1736499 82.6359454,15.1447459 82.8414853,15.1126303 C83.0470253,15.0805147 83.2525652,15.0516106 83.4581052,15.0259181 C83.6636451,15.0002256 83.8242232,14.9873794 83.9398394,14.9873794 C84.3123806,14.9873794 84.6335367,15.0516106 84.9033079,15.1800731 C85.2758491,15.3470743 85.5809474,15.5076523 85.818603,15.6618073 C86.0562585,15.8159623 86.2425291,15.9765403 86.3774147,16.1435415 C86.5123003,16.3105428 86.6118587,16.4968133 86.6760899,16.7023533 C86.7403212,16.9078932 86.785283,17.1455488 86.8109755,17.41532 L86.8109755,17.6850911 C86.8109755,18.3145572 86.7017824,18.8894267 86.4833962,19.4096997 C86.26501,19.9299727 86.0080851,20.3860145 85.7126214,20.777825 C85.4171578,21.1696355 85.1249057,21.4907916 84.8358651,21.7412935 C84.5468246,21.9917953 84.3252268,22.1555849 84.1710719,22.2326624 C83.0406022,22.8621285 82.3212124,23.1897077 82.0129024,23.2154002 Z M92.8355883,14.3514902 C92.88094,14.3514902 93.0763534,14.3130084 93.1065879,14.3001622 C93.2955537,13.979006 93.2909958,13.7123894 93.4081546,13.4361951 C93.5253134,13.1600008 93.6160169,12.9030759 93.6802653,12.6654203 C93.7445137,12.4277648 93.7879758,12.206167 93.8106517,12.0006271 C93.8333276,11.7950871 93.8446655,11.5959703 93.8446655,11.4032766 C93.8446655,11.3390454 93.8371069,11.268391 93.8219896,11.1913135 C93.6934929,10.6517712 93.4969685,10.382 93.2324164,10.382 C93.1265956,10.382 93.0169954,10.4205387 92.9036159,10.4976162 L92.6201673,11.1527748 C92.4811799,11.6287613 92.6277259,14.0110646 92.6201673,14.0624496 C92.6277259,14.2551433 92.6995329,14.3514902 92.8355883,14.3514902 Z M100.049033,24.2174075 C100.922577,24.2174075 101.641967,24.0568294 102.207202,23.7356732 C102.772437,23.4145171 103.18994,22.9584753 103.459711,22.367548 C103.536788,22.2005468 103.597808,22.0624496 103.64277,21.9532565 C103.687732,21.8440634 103.719847,21.7188125 103.739117,21.5775038 C103.758386,21.4361951 103.774444,21.2531361 103.78729,21.0283268 C103.800136,20.8035175 103.812983,20.4984191 103.825829,20.1130317 C103.735905,19.7918756 103.578539,19.4932003 103.353729,19.217006 C103.12892,18.9408117 102.865572,18.696733 102.563685,18.48477 C102.261798,18.2728069 101.947065,18.0833248 101.619486,17.9163236 C101.291907,17.7493224 100.983597,17.6080136 100.694556,17.4923974 C100.405516,17.3767812 100.158226,17.2836459 99.9526857,17.2129916 C99.7471457,17.1423372 99.6186833,17.0941638 99.5672983,17.0684713 C99.3103733,16.9271626 99.085564,16.7151995 98.8928703,16.4325821 C98.7001766,16.1499647 98.6038298,15.8416548 98.6038298,15.5076523 C98.6038298,15.3149587 98.6616379,15.1062071 98.7772541,14.8813978 C98.8928703,14.6565885 99.0470253,14.447837 99.239719,14.2551433 C99.4324127,14.0624496 99.6540104,13.9018715 99.9045122,13.7734091 C100.155014,13.6449466 100.415151,13.5807154 100.684922,13.5807154 C100.800538,13.5807154 100.945058,13.6192541 101.118483,13.6963316 C101.291907,13.7734091 101.46212,13.8601212 101.629121,13.9564681 C101.796122,14.0528149 101.947065,14.1427387 102.081951,14.2262393 C102.216837,14.3097399 102.297126,14.3514902 102.322818,14.3514902 C102.759591,14.3514902 102.977977,14.1716427 102.977977,13.8119478 C102.977977,13.6577929 102.900899,13.4972148 102.746744,13.3302136 C102.592589,13.1632124 102.40953,13.012269 102.197567,12.8773834 C101.985604,12.7424978 101.773641,12.6300931 101.561678,12.5401694 C101.349715,12.4502457 101.185925,12.4052838 101.070309,12.4052838 C100.736307,12.4052838 100.004071,12.5979775 98.873601,12.9833649 C97.7431313,13.8312172 97.1778964,14.7111851 97.1778964,15.6232686 C97.1778964,16.0343485 97.4476676,16.6702377 97.98721,17.5309362 C98.4625211,17.8649386 98.9121397,18.1154404 99.3360658,18.2824416 C99.605837,18.3852116 99.9109354,18.4976162 100.251361,18.6196556 C100.591786,18.7416949 100.916154,18.8862152 101.224464,19.0532164 C101.532774,19.2202176 101.789699,19.4257575 101.995239,19.6698362 C102.200779,19.9139149 102.303549,20.2093786 102.303549,20.5562272 C102.303549,20.9416146 102.274645,21.2820401 102.216837,21.5775038 C102.159029,21.8729675 102.085163,22.110623 101.995239,22.2904705 C101.918161,22.367548 101.808968,22.447837 101.66766,22.5313376 C101.526351,22.6148382 101.372196,22.6854926 101.205195,22.7433007 C101.038193,22.8011088 100.874404,22.8492822 100.713826,22.887821 C100.553248,22.9263597 100.421574,22.9456291 100.318804,22.9456291 C99.6251064,22.9456291 98.9763709,22.8235897 98.3725974,22.579511 C98.2826736,22.4895873 98.1895383,22.4060867 98.0931915,22.3290092 C97.9968446,22.2519318 97.8812284,22.1780658 97.7463428,22.1074115 C97.6114572,22.0367571 97.4412445,21.9661028 97.2357045,21.8954484 C97.0301646,21.8247941 96.7732397,21.7380819 96.4649297,21.6353119 C96.0666961,21.6866969 95.8675793,21.9179293 95.8675793,22.3290092 C95.8675793,22.4960104 95.9542914,22.6598001 96.1277158,22.8203782 C96.3011401,22.9809562 96.5355841,23.1318996 96.8310478,23.2732084 L97.6403613,23.6585957 C98.0129024,23.8127507 98.3661742,23.9444247 98.7001766,24.0536178 C99.034179,24.1628109 99.4837977,24.2174075 100.049033,24.2174075 Z M115.618683,24.506448 C116.004071,24.506448 116.209611,24.3779855 116.235303,24.1210606 L116.427997,22.1363155 C116.453689,21.8151594 116.479382,21.5261188 116.505074,21.2691939 C116.530767,21.012269 116.53719,20.7874597 116.524344,20.594766 L116.524344,20.286456 C116.53719,20.1579936 116.559671,19.971723 116.591786,19.7276443 C116.623902,19.4835656 116.662441,19.2137945 116.707403,18.9183308 C116.752365,18.6228671 116.794115,18.3241919 116.832654,18.0223051 C116.871192,17.7204183 116.909731,17.4410124 116.94827,17.1840875 C116.986809,16.9271626 117.018924,16.7151995 117.044617,16.5481983 C117.070309,16.3811971 117.083155,16.2912734 117.083155,16.2784271 C117.571313,16.9978169 117.966335,17.627283 118.268222,18.1668254 C118.570108,18.7063677 118.833456,19.1559864 119.058266,19.5156813 C119.283075,19.8753762 119.49825,20.1451473 119.70379,20.3249948 C119.90933,20.5048422 120.159831,20.594766 120.455295,20.594766 C120.480988,20.594766 120.497045,20.5915544 120.503468,20.5851313 C120.509892,20.5787081 120.525949,20.5754966 120.551642,20.5754966 C121.181108,20.023108 121.598611,19.55422 121.804151,19.1688326 C122.022537,18.9504464 122.240923,18.7288487 122.45931,18.5040393 C122.677696,18.27923 122.883236,18.0319398 123.075929,17.7621686 L123.769627,16.7794308 C123.821012,17.4859743 123.872397,18.067267 123.923782,18.5233087 C123.975167,18.9793505 124.020128,19.3583147 124.058667,19.6602015 C124.097206,19.9620883 124.12611,20.2158017 124.145379,20.4213416 C124.164649,20.6268816 124.174283,20.8259984 124.174283,21.0186921 C124.199976,21.5582344 124.241726,22.0592381 124.299534,22.5217029 C124.357342,22.9841678 124.424785,23.4209402 124.501863,23.8320201 C124.591786,23.9990213 124.758788,24.0825219 125.002866,24.0825219 C125.375407,24.0825219 125.593794,23.9540594 125.658025,23.6971345 C125.696564,23.5815183 125.715833,23.4337864 125.715833,23.253939 C125.715833,23.151169 125.70941,23.0323412 125.696564,22.8974556 C125.683717,22.7625701 125.664448,22.6180498 125.638756,22.4638948 C125.574524,21.9885837 125.523139,21.5421766 125.484601,21.1246736 C125.446062,20.7071706 125.426792,20.3185717 125.426792,19.9588768 C125.4011,19.868953 125.368984,19.6891056 125.330446,19.4193344 C125.291907,19.1495632 125.253368,18.8669458 125.214829,18.5714821 C125.176291,18.2760185 125.144175,18.0030357 125.118483,17.7525339 C125.09279,17.5020321 125.079944,17.3446656 125.079944,17.2804344 L125.079944,17.0877407 C125.079944,16.5995833 124.964328,15.8801935 124.733095,14.9295713 C124.514709,14.7368776 124.27063,14.6405307 124.000859,14.6405307 C123.885243,14.6405307 123.782473,14.6662232 123.692549,14.7176082 L122.863966,15.7774235 C122.465733,16.3298121 122.160634,16.7473151 121.948671,17.0299326 C121.736708,17.31255 121.61788,17.4667049 121.592188,17.4923974 C121.489418,17.7236299 121.264609,18.0126704 120.91776,18.3595191 L120.243332,19.0146776 C119.896483,18.3466728 119.58175,17.7685917 119.299133,17.2804344 C119.016515,16.792277 118.749956,16.3555046 118.499454,15.9701172 C118.248952,15.5847298 118.014508,15.2378812 117.796122,14.9295713 C117.577736,14.6212613 117.352927,14.3065283 117.121694,13.9853721 C117.03177,13.9339872 116.903308,13.9082947 116.736307,13.9082947 C116.415151,13.9082947 116.190341,13.9725259 116.061879,14.1009884 C115.959109,14.5634532 115.87882,14.9777447 115.821012,15.3438627 C115.763204,15.7099807 115.71503,16.0439831 115.676491,16.3458699 C115.637953,16.6477567 115.605837,16.9303741 115.580145,17.1937222 C115.554452,17.4570703 115.535183,17.7172067 115.522336,17.9741317 L115.522336,18.1090173 C115.522336,18.198941 115.515913,18.3209803 115.503067,18.4751353 C115.490221,18.6292902 115.464528,18.8155608 115.42599,19.033947 C115.374605,19.3679494 115.336066,19.5959703 115.310373,19.7180096 C115.284681,19.840049 115.268623,19.9460305 115.2622,20.0359542 C115.255777,20.125878 115.249354,20.2511289 115.242931,20.4117069 C115.236507,20.572285 115.226873,20.858114 115.214026,21.2691939 C115.214026,21.4490413 115.204392,21.5807154 115.185122,21.664216 C115.165853,21.7477166 115.149795,21.8151594 115.136949,21.8665444 C115.124103,21.9179293 115.108045,21.9693143 115.088776,22.0206993 C115.069506,22.0720843 115.053448,22.1555849 115.040602,22.2712011 C115.027756,22.3868173 115.01491,22.5538185 115.002063,22.7722047 C114.989217,22.9905909 114.982794,23.2860546 114.982794,23.6585957 C114.982794,23.9925982 115.021333,24.2174075 115.09841,24.3330237 C115.175488,24.4486399 115.348912,24.506448 115.618683,24.506448 Z M129.010895,23.9476363 C129.087973,23.9476363 129.177896,23.9315785 129.280666,23.8994629 C129.383436,23.8673473 129.460514,23.8512894 129.511899,23.8512894 C129.550438,23.8512894 129.608246,23.8641357 129.685323,23.8898282 C129.929402,23.8641357 130.13173,23.8416548 130.292308,23.8223854 C130.452886,23.803116 130.600618,23.7870582 130.735504,23.774212 C130.870389,23.7613657 131.008487,23.7485195 131.149795,23.7356732 C131.291104,23.722827 131.458105,23.7099807 131.650799,23.6971345 C131.869185,23.6842882 132.026552,23.6264801 132.122898,23.5237102 C132.219245,23.4209402 132.267419,23.2989008 132.267419,23.1575921 C132.267419,23.0034372 132.222457,22.8846094 132.132533,22.8011088 C132.042609,22.7176082 131.939839,22.6565885 131.824223,22.6180498 C131.708607,22.579511 131.586568,22.5570301 131.458105,22.550607 C131.329643,22.5441839 131.226873,22.5409723 131.149795,22.5409723 L131.265411,20.9801534 C131.252565,20.9416146 131.246142,20.7424978 131.246142,20.3828029 L131.246142,19.7758177 C131.246142,19.5381622 131.252565,19.2651794 131.265411,18.9568695 L131.207603,17.0877407 C131.181911,16.9849707 131.165853,16.8532967 131.15943,16.6927186 C131.153007,16.5321405 131.143372,16.3587162 131.130526,16.1724456 C131.11768,15.986175 131.104833,15.7966929 131.091987,15.6039992 C131.079141,15.4113055 131.053448,15.231458 131.01491,15.0644568 C131.11768,15.0644568 131.214026,15.0612453 131.30395,15.0548222 C131.393874,15.048399 131.477375,15.0451875 131.554452,15.0451875 C131.63153,15.0451875 131.705395,15.048399 131.77605,15.0548222 C131.846704,15.0612453 131.914147,15.0644568 131.978378,15.0644568 C132.235303,14.8460707 132.363766,14.6148382 132.363766,14.3707595 C132.363766,14.2679896 132.347708,14.184489 132.315592,14.1202577 C132.283477,14.0560265 132.216034,14.0078531 132.113264,13.9757375 C132.010494,13.9436218 131.865974,13.9211409 131.679703,13.9082947 C131.493432,13.8954484 131.252565,13.8890253 130.957102,13.8890253 C130.841485,13.8504866 130.696965,13.8183709 130.523541,13.7926784 C130.350116,13.7669859 130.154211,13.7541397 129.935825,13.7541397 C129.627515,13.7541397 129.386648,13.7637744 129.213224,13.7830438 C129.039799,13.8023131 128.904914,13.8344287 128.808567,13.8793906 C128.71222,13.9243525 128.6512,13.9821606 128.625508,14.0528149 C128.599815,14.1234693 128.586969,14.2037583 128.586969,14.2936821 C128.586969,14.4735295 128.676893,14.6919157 128.85674,14.9488406 C129.203589,14.9873794 129.499053,15.0066487 129.743131,15.0066487 L129.743131,15.1029956 C129.743131,15.1800731 129.749554,15.3117471 129.762401,15.4980177 C129.775247,15.6842882 129.791305,15.8994629 129.810574,16.1435415 C129.829843,16.3876202 129.849113,16.6477567 129.868382,16.923951 C129.887652,17.2001453 129.897286,17.4602818 129.897286,17.7043605 L129.897286,18.2053641 C129.948671,18.2952878 129.974364,18.4558659 129.974364,18.6870984 C129.974364,18.6999446 129.958306,18.850888 129.92619,19.1399285 C129.894075,19.4289691 129.878017,19.8047218 129.878017,20.2671867 C129.878017,20.4727266 129.897286,20.6397278 129.935825,20.7681903 C129.858747,21.4233489 129.820209,21.9564681 129.820209,22.367548 L129.820209,22.579511 C129.627515,22.630896 129.447668,22.6758579 129.280666,22.7143966 C129.113665,22.7529354 128.972356,22.8011088 128.85674,22.8589169 C128.741124,22.916725 128.647989,22.9873794 128.577334,23.07088 C128.50668,23.1543806 128.471353,23.2732084 128.471353,23.4273633 C128.471353,23.774212 128.6512,23.9476363 129.010895,23.9476363 Z M135.254171,24.7184111 C135.434018,24.7184111 135.58175,24.6927186 135.697367,24.6413336 C135.877214,24.3587162 136.044215,24.0985797 136.19837,23.8609241 C136.352525,23.6232686 136.493834,23.3952477 136.622296,23.1768615 L137.72065,21.7123894 C138.170269,21.327002 138.703388,20.6782666 139.320008,19.7661831 C139.743934,20.2543404 140.129322,20.6846897 140.47617,21.0572308 C140.823019,21.429772 141.124906,21.7573513 141.381831,22.0399687 C141.574524,22.3097399 141.747949,22.5698764 141.902104,22.8203782 C142.056259,23.07088 142.200779,23.2924777 142.335664,23.4851714 C142.47055,23.6778651 142.602224,23.8320201 142.730686,23.9476363 C142.859149,24.0632525 142.987611,24.1210606 143.116074,24.1210606 C143.295921,24.1210606 143.443653,24.0471947 143.559269,23.8994629 C143.674886,23.751731 143.732694,23.568672 143.732694,23.3502858 C143.732694,23.3245933 143.729482,23.2956893 143.723059,23.2635737 C143.716636,23.231458 143.713424,23.202554 143.713424,23.1768615 C143.405114,22.6758579 143.12892,22.2615664 142.884841,21.9339872 C142.640763,21.6064079 142.415953,21.3334251 142.210413,21.1150389 C142.004874,20.8966527 141.828238,20.7071706 141.680506,20.5465925 C141.532774,20.3860145 141.4011,20.2222248 141.285484,20.0552236 L140.129322,18.7641758 C140.142168,18.7513296 140.225668,18.6549827 140.379823,18.4751353 C140.533978,18.2952878 140.697768,18.1025941 140.871192,17.8970542 C141.044617,17.6915143 141.208406,17.4988206 141.362561,17.3189731 C141.516716,17.1391257 141.60664,17.0427788 141.632332,17.0299326 C141.979181,16.6702377 142.261798,16.3651393 142.480185,16.1146375 C142.698571,15.8641357 142.871995,15.6585957 143.000458,15.4980177 C143.12892,15.3374396 143.218844,15.2089771 143.270229,15.1126303 C143.321614,15.0162834 143.347306,14.9488406 143.347306,14.9103019 C143.347306,14.7689932 143.270229,14.630896 143.116074,14.4960104 C142.961919,14.3611248 142.807764,14.2936821 142.653609,14.2936821 C142.537993,14.2936821 142.345299,14.4253561 142.075528,14.6887041 C141.805757,14.9520522 141.50387,15.2699968 141.169868,15.6425379 L140.206399,16.7794308 C140.026552,16.9592782 139.856339,17.1391257 139.695761,17.3189731 C139.535183,17.4988206 139.384239,17.678668 139.242931,17.8585155 C138.986006,17.5630518 138.754773,17.3832043 138.549233,17.3189731 C138.510695,17.2418956 138.44004,17.1551835 138.33727,17.0588366 C138.2345,16.9624898 138.128519,16.8629314 138.019326,16.7601614 C137.910132,16.6573914 137.807363,16.5610446 137.711016,16.4711208 C137.614669,16.3811971 137.553649,16.3105428 137.527957,16.2591578 L136.19837,15.1029956 C136.121293,15.0773031 136.063485,15.0644568 136.024946,15.0644568 C135.665251,15.0644568 135.401903,15.3213818 135.234902,15.8352316 C135.363364,16.0793103 135.588173,16.3298121 135.90933,16.5867371 C136.269024,16.8822007 136.570911,17.1391257 136.81499,17.3575118 C137.059069,17.575898 137.274243,17.7718033 137.460514,17.9452276 C137.646784,18.1186519 137.807363,18.2728069 137.942248,18.4076925 C138.077134,18.5425781 138.215231,18.667829 138.35654,18.7834452 C138.176692,19.0660626 137.967941,19.3551032 137.730285,19.6505668 C137.492629,19.9460305 137.248551,20.2414942 136.998049,20.5369578 C136.747547,20.8324215 136.500257,21.1182505 136.256178,21.3944448 C136.0121,21.6706391 135.793713,21.9243525 135.60102,22.1555849 C135.588173,22.1684312 135.523942,22.2551433 135.408326,22.4157214 C135.29271,22.5762995 135.167459,22.7593585 135.032573,22.9648984 C134.897688,23.1704384 134.766014,23.3727668 134.637551,23.5718836 C134.509089,23.7710004 134.432011,23.9090976 134.406319,23.986175 C134.406319,24.2302537 134.47055,24.4133127 134.599012,24.5353521 C134.727475,24.6573914 134.945861,24.7184111 135.254171,24.7184111 Z M149.474966,24.0054444 C149.616275,24.0054444 149.741525,23.9893866 149.850719,23.957271 C149.959912,23.9251554 150.049835,23.8416548 150.12049,23.7067692 C150.191144,23.5718836 150.245741,23.3695552 150.284279,23.099784 C150.322818,22.8300128 150.342088,22.4574717 150.342088,21.9821606 L150.342088,21.5196957 C150.342088,21.3526945 150.335664,21.1792702 150.322818,20.9994227 C150.335664,20.9351915 150.342088,20.858114 150.342088,20.7681903 L150.342088,20.4791497 C150.342088,20.1708398 150.32603,19.7918756 150.293914,19.3422569 C150.261798,18.8926383 150.213625,18.3659422 150.149394,17.7621686 L149.860353,15.5847298 C150.451281,15.4305749 150.939438,15.3534974 151.324825,15.3534974 C151.337672,15.3534974 151.414749,15.3631321 151.556058,15.3824014 C151.697367,15.4016708 151.854733,15.4241517 152.028157,15.4498442 C152.201582,15.4755367 152.375006,15.4980177 152.54843,15.517287 C152.721855,15.5365564 152.840682,15.5461911 152.904914,15.5461911 C153.084761,15.5461911 153.22607,15.5204986 153.32884,15.4691136 C153.444456,15.3021124 153.502264,15.1094187 153.502264,14.8910325 C153.502264,14.6212613 153.41234,14.4349908 153.232493,14.3322208 C152.448872,14.2808358 151.89006,14.2455086 151.556058,14.2262393 C151.222055,14.2069699 151.000458,14.1941236 150.891265,14.1877005 C150.782071,14.1812774 150.730686,14.1812774 150.73711,14.1877005 C150.743533,14.1941236 150.688936,14.1973352 150.57332,14.1973352 C150.277856,14.1973352 149.975969,14.2166046 149.66766,14.2551433 L148.646383,14.3707595 L145.486206,14.9488406 C145.344898,15.1543806 145.274243,15.3406511 145.274243,15.5076523 C145.274243,15.905886 145.505476,16.1050028 145.967941,16.1050028 C146.057864,16.0664641 146.189538,16.0279253 146.362963,15.9893866 C146.536387,15.9508479 146.738715,15.9187322 146.969948,15.8930397 C147.20118,15.8673473 147.445259,15.8448663 147.702184,15.8255969 C147.959109,15.8063276 148.216034,15.7902698 148.472959,15.7774235 C148.678499,16.3683509 148.800538,16.9978169 148.839077,17.6658218 C148.839077,18.1282866 148.8455,18.5618475 148.858346,18.9665042 C148.871192,19.371161 148.88725,19.7276443 148.906519,20.0359542 C148.925789,20.3442642 148.945058,20.594766 148.964328,20.7874597 C148.983597,20.9801534 148.993232,21.0957696 148.993232,21.1343083 C148.993232,21.3141558 148.973962,21.5068495 148.935424,21.7123894 C148.896885,21.9179293 148.877615,22.1491618 148.877615,22.4060867 C148.877615,22.5217029 148.874404,22.6694348 148.867981,22.8492822 C148.861558,23.0291297 148.871192,23.2057656 148.896885,23.3791899 C148.922577,23.5526142 148.977174,23.700346 149.060674,23.8223854 C149.144175,23.9444247 149.282272,24.0054444 149.474966,24.0054444 Z M163.136949,24.4293705 C163.40672,24.4293705 163.567298,24.3458699 163.618683,24.1788687 C163.644376,24.0760988 163.657222,23.9990213 163.657222,23.9476363 C163.657222,23.8705588 163.63153,23.7453079 163.580145,23.5718836 C163.52876,23.3984593 163.46774,23.2121887 163.397086,23.0130719 C163.326431,22.813955 163.2622,22.6244729 163.204392,22.4446255 C163.146584,22.264778 163.11768,22.1298924 163.11768,22.0399687 C163.066295,21.9628912 163.005275,21.8055247 162.934621,21.5678691 C162.863966,21.3302136 162.786889,21.0700771 162.703388,20.7874597 C162.619888,20.5048422 162.520329,20.2222248 162.404713,19.9396074 C162.289097,19.65699 162.167057,19.4321807 162.038595,19.2651794 C161.98721,19.2137945 161.913344,19.0885436 161.816997,18.8894267 C161.72065,18.6903099 161.61788,18.4783468 161.508687,18.2535375 C161.399494,18.0287282 161.296724,17.8199767 161.200377,17.627283 C161.104031,17.4345893 161.036588,17.3061269 160.998049,17.2418956 C160.998049,17.1905106 160.949876,17.0684713 160.853529,16.8757776 C160.757182,16.6830839 160.638354,16.455063 160.497045,16.191715 C160.355737,15.9283669 160.204793,15.6585957 160.044215,15.3824014 C159.883637,15.1062071 159.735905,14.8492822 159.60102,14.6116267 C159.466134,14.3739711 159.353729,14.184489 159.263806,14.0431802 C159.173882,13.9018715 159.135343,13.8440634 159.148189,13.8697559 C159.04542,13.6513697 158.846303,13.5421766 158.550839,13.5421766 C158.178298,13.5421766 157.947065,13.6963316 157.857142,14.0046415 C157.818603,14.1459502 157.738314,14.3514902 157.616275,14.6212613 C157.494235,14.8910325 157.368984,15.1768615 157.240522,15.4787483 C157.112059,15.7806351 156.99002,16.0825219 156.874404,16.3844087 C156.758788,16.6862955 156.68171,16.9335857 156.643171,17.1262794 L155.988013,18.8797921 C155.988013,18.9183308 155.965532,19.0307354 155.92057,19.217006 C155.875608,19.4032766 155.824223,19.6152397 155.766415,19.8528952 C155.708607,20.0905508 155.657222,20.3282063 155.61226,20.5658619 C155.567298,20.8035175 155.544817,20.9865765 155.544817,21.1150389 L155.544817,21.2691939 C155.544817,21.3205789 155.55124,21.3719639 155.564087,21.4233489 C155.512702,21.6288888 155.458105,21.8440634 155.400297,22.0688727 C155.342489,22.2936821 155.287892,22.5088567 155.236507,22.7143966 C155.185122,22.9199366 155.143372,23.1094187 155.111257,23.282843 C155.079141,23.4562674 155.063083,23.5879414 155.063083,23.6778651 C155.063083,23.8834051 155.223661,23.986175 155.544817,23.986175 C155.865974,23.986175 156.06509,23.8962513 156.142168,23.7164039 C156.27063,23.2410927 156.386246,22.7978972 156.489016,22.3868173 C156.591786,21.9757375 156.675287,21.5967732 156.739518,21.2499245 C156.957904,21.1086158 157.349715,20.9737302 157.91495,20.8452678 C158.480185,20.7168053 159.103228,20.6397278 159.784079,20.6140353 L161.190743,20.5562272 C161.26782,20.6204585 161.351321,20.72644 161.441244,20.8741718 C161.531168,21.0219037 161.608246,21.2049627 161.672477,21.4233489 L161.903709,22.3482786 L162.578137,24.2559462 C162.693754,24.3715624 162.880024,24.4293705 163.136949,24.4293705 Z M157.028559,19.8432605 C157.221253,18.982562 157.465331,18.250326 157.760795,17.6465524 C158.043412,16.5674677 158.351722,15.7645773 158.685725,15.2378812 C158.916957,15.6361148 159.119285,16.0022328 159.29271,16.3362352 C159.466134,16.6702377 159.610654,16.9657013 159.726271,17.2226263 C159.944657,17.4795512 160.118081,17.7942842 160.246544,18.1668254 L160.67047,19.4193344 C160.516315,19.4578731 160.346102,19.4867772 160.159831,19.5060466 C159.973561,19.5253159 159.78729,19.5413737 159.60102,19.55422 C159.414749,19.5670662 159.238113,19.5799125 159.071112,19.5927587 C158.904111,19.605605 158.762802,19.6248743 158.647186,19.6505668 C158.544416,19.6248743 158.448069,19.6120281 158.358145,19.6120281 C158.293914,19.6120281 158.194356,19.6248743 158.05947,19.6505668 C157.924585,19.6762593 157.786487,19.7019518 157.645179,19.7276443 C157.50387,19.7533368 157.372196,19.7790293 157.250157,19.8047218 C157.128117,19.8304143 157.054251,19.8432605 157.028559,19.8432605 Z M167.568904,19.55422 C167.568904,18.3980578 167.575327,17.8071305 167.588173,17.781438 C167.588173,17.5887443 167.572116,17.2997037 167.54,16.9143163 C167.507884,16.5289289 167.491827,16.1178491 167.491827,15.6810767 C167.491827,15.5654605 167.588173,15.4691136 167.780867,15.3920361 C167.973561,15.3149587 168.182312,15.2571505 168.407122,15.2186118 C168.631931,15.1800731 168.834259,15.151169 169.014107,15.1318996 C169.193954,15.1126303 169.271032,15.1029956 169.245339,15.1029956 C169.463725,15.1029956 169.701381,15.1351112 169.958306,15.1993424 C170.536387,15.3791899 170.931409,15.5847298 171.143372,15.8159623 C171.355335,16.0471947 171.461317,16.4004665 171.461317,16.8757776 L171.461317,17.2033569 C171.461317,17.3189731 171.44847,17.4410124 171.422778,17.5694749 C171.140161,18.3659422 170.433617,18.8926383 169.303147,19.1495632 C169.033376,19.2523332 168.760393,19.3454685 168.484199,19.4289691 C168.208005,19.5124697 167.954291,19.55422 167.723059,19.55422 L167.568904,19.55422 Z M166.181509,19.346539 L166.18365,19.4171934 C166.186505,19.4742878 166.192215,19.5456558 166.200779,19.6312975 C166.213625,19.7597599 166.22326,19.8946455 166.229683,20.0359542 C166.236106,20.1772629 166.245741,20.3153601 166.258587,20.4502457 C166.271433,20.5851313 166.277856,20.6846897 166.277856,20.7489209 L166.277856,20.8452678 C166.303549,21.2691939 166.322818,21.6353119 166.335664,21.9436218 C166.348511,22.2519318 166.361357,22.5152798 166.374203,22.733666 C166.387049,22.9777447 166.399896,23.1832846 166.412742,23.3502858 L166.412742,23.3310165 C166.438434,23.5494026 166.451281,23.7581542 166.451281,23.957271 C166.451281,24.1563878 166.47055,24.3298121 166.509089,24.477544 C166.547627,24.6252758 166.611859,24.7441036 166.701782,24.8340273 C166.791706,24.923951 166.933015,24.9689129 167.125709,24.9689129 C167.305556,24.9689129 167.440442,24.9303741 167.530365,24.8532967 C167.620289,24.7762192 167.681309,24.6766608 167.713424,24.5546214 C167.74554,24.4325821 167.761598,24.3009081 167.761598,24.1595994 L167.761598,23.774212 C167.761598,23.5429795 167.751963,23.334228 167.732694,23.1479574 C167.713424,22.9616869 167.694155,22.7657816 167.674886,22.5602417 C167.655616,22.3547017 167.636347,22.1170462 167.617077,21.847275 C167.597808,21.5775038 167.588173,21.2370783 167.588173,20.8259984 L167.68452,20.8259984 C167.825829,20.8388446 167.979984,20.8227868 168.146985,20.777825 C168.313986,20.7328631 168.500257,20.6718434 168.705797,20.594766 C169.078338,20.4534572 169.393071,20.3474757 169.649996,20.2768214 C169.906921,20.206167 170.141365,20.1355126 170.353328,20.0648583 C170.565291,19.9942039 170.770831,19.9074918 170.969948,19.8047218 C171.169065,19.7019518 171.384239,19.5413737 171.615472,19.3229876 C171.85955,19.1046014 172.055456,18.9119077 172.203187,18.7449065 C172.350919,18.5779053 172.466536,18.4205387 172.550036,18.2728069 C172.633537,18.1250751 172.691345,17.9677086 172.72346,17.8007073 C172.755576,17.6337061 172.78448,17.4410124 172.810173,17.2226263 C172.810173,16.7087764 172.768422,16.2880618 172.684922,15.9604825 C172.601421,15.6329033 172.479382,15.3631321 172.318804,15.151169 C172.158226,14.9392059 171.952686,14.7625701 171.702184,14.6212613 C171.451682,14.4799526 171.153007,14.3322208 170.806158,14.1780658 C170.395078,14.1138346 170.064287,14.0624496 169.813786,14.0239109 C169.563284,13.9853721 169.386648,13.9661028 169.283878,13.9661028 C168.834259,13.9661028 168.269024,14.0560265 167.588173,14.2358739 L167.39548,14.2358739 C167.202786,14.2358739 167.029362,14.2422971 166.875207,14.2551433 C166.721052,14.2679896 166.589378,14.3033167 166.480185,14.3611248 C166.370992,14.418933 166.287491,14.5088567 166.229683,14.630896 C166.171875,14.7529354 166.142971,14.9231481 166.142971,15.1415343 C166.142971,15.2571505 166.146182,15.3631321 166.152605,15.4594789 C166.159029,15.5558258 166.16224,15.6425379 166.16224,15.7196154 C166.16224,15.7838466 166.159029,15.8352316 166.152605,15.8737704 C166.146182,15.9123091 166.142971,15.9444247 166.142971,15.9701172 C166.181509,16.1242722 166.207202,16.3009081 166.220048,16.5000249 C166.232894,16.6991417 166.239318,16.9207395 166.239318,17.1648181 C166.239318,17.9099004 166.226471,18.4655006 166.200779,18.8316186 C166.175086,19.1977367 166.168663,19.3807957 166.181509,19.3807957 L166.181509,19.346539 Z M181.269426,24.4293705 C182.181509,24.4293705 182.637551,24.191715 182.637551,23.7164039 C182.637551,23.3824014 182.476973,23.151169 182.155817,23.0227065 L181.924585,23.0227065 C181.654813,23.0227065 181.282272,23.0419759 180.806961,23.0805147 C180.472959,23.1062071 180.216034,23.1254765 180.036186,23.1383228 C179.856339,23.151169 179.759992,23.1575921 179.747146,23.1575921 C179.670068,23.1447459 179.493432,23.1286881 179.217238,23.1094187 C178.941044,23.0901493 178.648792,23.07088 178.340482,23.0516106 C178.032172,23.0323412 177.73992,23.0098603 177.463725,22.9841678 C177.187531,22.9584753 177.004472,22.9327828 176.914548,22.9070903 C176.953087,22.2005468 176.972356,21.6224657 176.972356,21.172847 L176.972356,20.5273232 C176.972356,20.3667451 176.97878,20.1836861 176.991626,19.9781461 C177.004472,19.7726062 177.023741,19.5767009 177.049434,19.3904303 C177.075126,19.2041598 177.107242,19.085332 177.145781,19.033947 C177.325628,19.0211008 177.495841,19.0114661 177.656419,19.005043 C177.816997,18.9986198 177.967941,18.9954083 178.109249,18.9954083 C178.199173,18.9954083 178.285885,18.9986198 178.369386,19.005043 C178.452886,19.0114661 178.526752,19.0146776 178.590984,19.0146776 C178.745138,18.9761389 179.130526,18.9568695 179.747146,18.9568695 C180.273842,18.9568695 180.63996,18.9151192 180.8455,18.8316186 C181.05104,18.748118 181.15381,18.565059 181.15381,18.2824416 C181.15381,18.1154404 181.124906,17.9741317 181.067098,17.8585155 C181.009289,17.7428992 180.916154,17.6850911 180.787692,17.6850911 C180.710614,17.6850911 180.604633,17.6818796 180.469747,17.6754564 C180.334862,17.6690333 180.183918,17.6658218 180.016917,17.6658218 C179.849916,17.6658218 179.689338,17.6626102 179.535183,17.6561871 C179.381028,17.649764 179.246142,17.6465524 179.130526,17.6465524 C178.873601,17.6465524 178.581349,17.678668 178.25377,17.7428992 C177.92619,17.8071305 177.556861,17.8456692 177.145781,17.8585155 C177.158627,17.8585155 177.152204,17.7685917 177.126511,17.5887443 C177.100819,17.4088968 177.087973,17.1519719 177.087973,16.8179695 C177.087973,16.689507 177.097607,16.5160827 177.116877,16.2976965 C177.136146,16.0793103 177.161839,15.8609241 177.193954,15.6425379 C177.22607,15.4241517 177.26782,15.2250349 177.319205,15.0451875 C177.37059,14.86534 177.428398,14.7433007 177.492629,14.6790695 C178.057864,14.499222 178.539599,14.4092983 178.937832,14.4092983 L179.053448,14.4092983 C179.258988,14.345067 179.650799,14.3001052 180.22888,14.2744127 C180.562882,14.2615664 180.819807,14.2390855 180.999655,14.2069699 C181.179502,14.1748543 181.307965,14.1266809 181.385042,14.0624496 C181.46212,13.9982184 181.507081,13.9243525 181.519928,13.8408519 C181.532774,13.7573513 181.539197,13.6577929 181.539197,13.5421766 C181.539197,13.3623292 181.491024,13.2049627 181.394677,13.0700771 C181.29833,12.9351915 181.198772,12.8677487 181.096002,12.8677487 L181.038193,12.8677487 C181.05104,12.8677487 180.945058,12.8741718 180.720249,12.8870181 C180.49544,12.8998643 180.241726,12.9191337 179.959109,12.9448262 C179.676491,12.9705187 179.40672,12.9962112 179.149795,13.0219037 C178.89287,13.0475961 178.725869,13.0732886 178.648792,13.0989811 C178.700177,13.0989811 178.610253,13.1214621 178.37902,13.1664239 C178.147788,13.2113858 177.878017,13.2627708 177.569707,13.3205789 C177.261397,13.378387 176.969145,13.4394067 176.692951,13.5036379 C176.416756,13.5678691 176.252967,13.6256772 176.201582,13.6770622 C176.008888,14.0367571 175.861156,14.7240313 175.758386,15.7388848 L175.662039,17.7621686 C175.713424,17.9163236 175.739117,18.2117872 175.739117,18.6485596 C175.739117,18.982562 175.710213,19.4064882 175.652405,19.920338 C175.594597,20.4341879 175.565692,21.0186921 175.565692,21.6738507 C175.565692,22.0463918 175.584962,22.4349908 175.623501,22.8396475 C175.662039,23.2443043 175.713424,23.671442 175.777656,24.1210606 C175.983196,24.2752156 176.323621,24.3522931 176.798932,24.3522931 C176.850317,24.3522931 176.962722,24.3458699 177.136146,24.3330237 C177.30957,24.3201774 177.550438,24.3009081 177.858747,24.2752156 C178.449675,24.3266006 178.899293,24.3619277 179.207603,24.3811971 C179.515913,24.4004665 179.682914,24.4165243 179.708607,24.4293705 C179.785684,24.4165243 179.885243,24.4101012 180.007282,24.4101012 L180.440843,24.4101012 C180.556459,24.4101012 180.691345,24.4133127 180.8455,24.4197358 C180.999655,24.426159 181.140963,24.4293705 181.269426,24.4293705 Z M187.763204,24.2174075 C188.636748,24.2174075 189.356138,24.0568294 189.921373,23.7356732 C190.486608,23.4145171 190.904111,22.9584753 191.173882,22.367548 C191.250959,22.2005468 191.311979,22.0624496 191.356941,21.9532565 C191.401903,21.8440634 191.434018,21.7188125 191.453288,21.5775038 C191.472557,21.4361951 191.488615,21.2531361 191.501461,21.0283268 C191.514308,20.8035175 191.527154,20.4984191 191.54,20.1130317 C191.450076,19.7918756 191.29271,19.4932003 191.0679,19.217006 C190.843091,18.9408117 190.579743,18.696733 190.277856,18.48477 C189.975969,18.2728069 189.661236,18.0833248 189.333657,17.9163236 C189.006078,17.7493224 188.697768,17.6080136 188.408727,17.4923974 C188.119687,17.3767812 187.872397,17.2836459 187.666857,17.2129916 C187.461317,17.1423372 187.332854,17.0941638 187.281469,17.0684713 C187.024544,16.9271626 186.799735,16.7151995 186.607041,16.4325821 C186.414348,16.1499647 186.318001,15.8416548 186.318001,15.5076523 C186.318001,15.3149587 186.375809,15.1062071 186.491425,14.8813978 C186.607041,14.6565885 186.761196,14.447837 186.95389,14.2551433 C187.146584,14.0624496 187.368181,13.9018715 187.618683,13.7734091 C187.869185,13.6449466 188.129322,13.5807154 188.399093,13.5807154 C188.514709,13.5807154 188.659229,13.6192541 188.832654,13.6963316 C189.006078,13.7734091 189.176291,13.8601212 189.343292,13.9564681 C189.510293,14.0528149 189.661236,14.1427387 189.796122,14.2262393 C189.931008,14.3097399 190.011297,14.3514902 190.036989,14.3514902 C190.473762,14.3514902 190.692148,14.1716427 190.692148,13.8119478 C190.692148,13.6577929 190.61507,13.4972148 190.460915,13.3302136 C190.30676,13.1632124 190.123701,13.012269 189.911738,12.8773834 C189.699775,12.7424978 189.487812,12.6300931 189.275849,12.5401694 C189.063886,12.4502457 188.900096,12.4052838 188.78448,12.4052838 C188.450478,12.4052838 187.718242,12.5979775 186.587772,12.9833649 C185.457302,13.8312172 184.892067,14.7111851 184.892067,15.6232686 C184.892067,16.0343485 185.161839,16.6702377 185.701381,17.5309362 C186.176692,17.8649386 186.626311,18.1154404 187.050237,18.2824416 C187.320008,18.3852116 187.625106,18.4976162 187.965532,18.6196556 C188.305957,18.7416949 188.630325,18.8862152 188.938635,19.0532164 C189.246945,19.2202176 189.50387,19.4257575 189.70941,19.6698362 C189.91495,19.9139149 190.01772,20.2093786 190.01772,20.5562272 C190.01772,20.9416146 189.988816,21.2820401 189.931008,21.5775038 C189.8732,21.8729675 189.799334,22.110623 189.70941,22.2904705 C189.632332,22.367548 189.523139,22.447837 189.381831,22.5313376 C189.240522,22.6148382 189.086367,22.6854926 188.919366,22.7433007 C188.752365,22.8011088 188.588575,22.8492822 188.427997,22.887821 C188.267419,22.9263597 188.135745,22.9456291 188.032975,22.9456291 C187.339277,22.9456291 186.690542,22.8235897 186.086768,22.579511 C185.996845,22.4895873 185.903709,22.4060867 185.807363,22.3290092 C185.711016,22.2519318 185.595399,22.1780658 185.460514,22.1074115 C185.325628,22.0367571 185.155415,21.9661028 184.949876,21.8954484 C184.744336,21.8247941 184.487411,21.7380819 184.179101,21.6353119 C183.780867,21.6866969 183.58175,21.9179293 183.58175,22.3290092 C183.58175,22.4960104 183.668462,22.6598001 183.841887,22.8203782 C184.015311,22.9809562 184.249755,23.1318996 184.545219,23.2732084 L185.354532,23.6585957 C185.727073,23.8127507 186.080345,23.9444247 186.414348,24.0536178 C186.74835,24.1628109 187.197969,24.2174075 187.763204,24.2174075 Z" fill="#1C41BF"></path>
        <path d="M14.8125,24.34375 C14.8125,25.8109029 13.623049,27 12.1566585,27 C10.689451,27 9.5,25.8109029 9.5,24.34375 C9.5,22.8765971 10.689451,21.6875 12.1566585,21.6875 C13.623049,21.6883178 14.8125,22.8765971 14.8125,24.34375 Z M9.5,13.4085 C16.9941667,13.4410833 23.066,19.4959167 23.0879583,27 L26.5,27 C26.47875,17.6280417 18.881875,10.0325833 9.5,10 C9.5,12.2723333 9.5,13.4085 9.5,13.4085 Z M9.5,15.7941667 L9.5,19.2019583 C13.7854167,19.245875 17.2633333,22.7195417 17.30725,27 L20.7192917,27 C20.675375,20.8304167 15.677375,15.8380833 9.5,15.7941667 Z" fill-opacity="0.9" fill="#FFFFFF"></path>
    </g>
</svg>