<?xml version="1.0" encoding="UTF-8"?>
<svg width="124px" height="44px" viewBox="0 0 124 44" version="1.1" xmlns="http://www.w3.org/2000/svg" xmlns:xlink="http://www.w3.org/1999/xlink">
    <defs>
        <path id="path" d="M8.9735982,-3.62544108e-16 L109.026402,3.62544108e-16 C112.146717,-2.10648567e-16 113.278219,0.324889639 114.41896,0.934964463 C115.559701,1.54503929 116.454961,2.4402993 117.065036,3.58104004 C117.67511,4.72178078 118,5.85328261 118,8.9735982 L118,29.0264018 C118,32.1467174 117.67511,33.2782192 117.065036,34.41896 C116.454961,35.5597007 115.559701,36.4549607 114.41896,37.0650355 C113.278219,37.6751104 112.146717,38 109.026402,38 L8.9735982,38 C5.85328261,38 4.72178078,37.6751104 3.58104004,37.0650355 C2.4402993,36.4549607 1.54503929,35.5597007 0.934964463,34.41896 C0.324889639,33.2782192 1.40432378e-16,32.1467174 -2.41696072e-16,29.0264018 L2.41696072e-16,8.9735982 C-1.40432378e-16,5.85328261 0.324889639,4.72178078 0.934964463,3.58104004 C1.54503929,2.4402993 2.4402993,1.54503929 3.58104004,0.934964463 C4.72178078,0.324889639 5.85328261,2.10648567e-16 8.9735982,-3.62544108e-16 Z"></path>
    </defs>
    <g fill="none" transform="translate(3.000000, 3.000000)">
        <mask id="mask" fill="white">
            <use xlink:href="#path"></use>
        </mask>
        <path fill="rgba(51, 51, 51, 0.9)" stroke="rgba(102, 102, 102, 0.2)" stroke-width="1" d="M8.9735982,0.25 L109.026402,0.25 C112.075918,0.25 113.18526,0.558681255 114.30106,1.15541776 C115.397589,1.741848 116.258152,2.60241054 116.844582,3.69893975 C117.441319,4.81474001 117.75,5.92408192 117.75,8.9735982 L117.75,8.9735982 L117.75,29.0264018 C117.75,32.0759181 117.441319,33.18526 116.844582,34.3010602 C116.258152,35.3975895 115.397589,36.258152 114.30106,36.8445822 C113.18526,37.4413187 112.075918,37.75 109.026402,37.75 L109.026402,37.75 L8.9735982,37.75 C5.92408192,37.75 4.81474001,37.4413187 3.69893975,36.8445822 C2.60241054,36.258152 1.741848,35.3975895 1.15541776,34.3010602 C0.558681255,33.18526 0.25,32.0759181 0.25,29.0264018 L0.25,29.0264018 L0.25,8.9735982 C0.25,5.92408192 0.558681255,4.81474001 1.15541776,3.69893975 C1.741848,2.60241054 2.60241054,1.741848 3.69893975,1.15541776 C4.81474001,0.558681255 5.92408192,0.25 8.9735982,0.25 L8.9735982,0.25 Z"></path>
        <path fill="rgb(255, 255, 243)" mask="url(#mask)" d="M37.601374,28.5 L37.601374,23.0712891 C37.601374,21.8012695 38.3650459,21.1704102 39.3196358,21.1704102 C40.3406319,21.1704102 41.0212959,21.784668 41.0212959,23.0878906 L41.0212959,28.5 L42.8142647,28.5 L42.8142647,23.0878906 C42.8142647,21.9257812 43.4534248,21.1704102 44.5491279,21.1704102 C45.6199287,21.1704102 46.2341865,21.8676758 46.2341865,22.9799805 L46.2341865,28.5 L48.07696,28.5 L48.07696,22.5151367 C48.07696,20.7470703 47.0061592,19.5932617 45.1716865,19.5932617 C43.7190498,19.5932617 42.8059639,20.3071289 42.498835,21.0541992 L42.4241279,21.0541992 C42.1003975,20.1660156 41.2869209,19.5932617 39.9338936,19.5932617 C38.6887764,19.5932617 37.9251045,20.2822266 37.6677803,20.9047852 L37.5764717,20.9047852 L37.5764717,19.7260742 L35.7669014,19.7260742 L35.7669014,28.5 L37.601374,28.5 Z M52.7752022,28.6328125 C54.070124,28.6328125 54.8420967,28.0932617 55.2239326,27.4208984 L55.2903389,27.4208984 L55.2903389,28.5 L57.0418037,28.5 L57.0418037,22.5234375 C57.0418037,20.5644531 55.589167,19.5932617 53.6384834,19.5932617 C51.2976631,19.5932617 50.3015694,20.8383789 50.2268623,22.3325195 L51.9534248,22.3325195 C52.0198311,21.5522461 52.592585,21.0292969 53.5969795,21.0292969 C54.6262764,21.0292969 55.2239326,21.5854492 55.2239326,22.5898438 L55.2239326,23.4282227 L52.9993233,23.4282227 C50.9822334,23.4282227 49.9031319,24.4160156 49.9031319,25.9765625 C49.9031319,27.6118164 51.073542,28.6328125 52.7752022,28.6328125 Z M53.3313545,27.2299805 C52.5178779,27.2299805 51.7542061,26.7900391 51.7542061,25.8769531 C51.7542061,25.1464844 52.2439522,24.6401367 53.3147529,24.6401367 L55.2239326,24.6401367 L55.2239326,25.6113281 C55.2239326,26.565918 54.4021553,27.2299805 53.3313545,27.2299805 Z M62.7361397,28.6494141 C64.7781319,28.6494141 66.0481514,27.6035156 66.2805733,25.8520508 L64.5374092,25.8520508 C64.4128975,26.5327148 63.8650459,27.1220703 62.8440498,27.1220703 C61.5906319,27.1220703 60.8020576,26.0927734 60.8020576,24.4658203 L60.8020576,23.71875 C60.8020576,22.1000977 61.5574287,21.1040039 62.835749,21.1040039 C63.7073311,21.1040039 64.3381904,21.7514648 64.4876045,22.4902344 L66.2307686,22.4902344 C66.1643623,20.9545898 64.8694404,19.5766602 62.7361397,19.5766602 C60.3621162,19.5766602 58.9509834,21.2783203 58.9509834,23.6772461 L58.9509834,24.4658203 C58.9509834,26.9228516 60.3538154,28.6494141 62.7361397,28.6494141 Z M72.4563545,28.7241211 C75.3533272,28.7241211 77.179499,26.8647461 77.179499,23.6606445 L77.179499,22.1083984 C77.179499,18.8959961 75.3782295,16.9453125 72.4729561,16.9453125 C69.5842842,16.9453125 67.7498115,18.8876953 67.7498115,22.1083984 L67.7498115,23.6606445 C67.7498115,26.8647461 69.5510811,28.7241211 72.4563545,28.7241211 Z M72.4646553,27.1220703 C70.8543037,27.1220703 69.6506904,26.0097656 69.6506904,23.6606445 L69.6506904,22.0917969 C69.6506904,19.7509766 70.8543037,18.5556641 72.4646553,18.5556641 C74.0750069,18.5556641 75.2703194,19.7509766 75.2703194,22.0917969 L75.2703194,23.6606445 C75.2703194,26.0097656 74.0750069,27.1220703 72.4646553,27.1220703 Z M82.7493233,28.7241211 C85.3142647,28.7241211 87.1155342,27.4707031 87.1155342,25.2460938 C87.1155342,23.3203125 85.8206123,22.5151367 84.1189522,22.1000977 L82.2678779,21.6435547 C81.2136787,21.402832 80.6990303,20.871582 80.6990303,20.1328125 C80.6990303,19.0786133 81.5789131,18.4643555 82.873835,18.4643555 C84.3430733,18.4643555 85.0818428,19.2612305 85.1648506,20.2241211 L86.9744209,20.2241211 C86.932917,18.1074219 85.0984444,16.9204102 82.8987373,16.9204102 C80.6990303,16.9204102 78.8064522,18.1074219 78.8064522,20.2739258 C78.8064522,22.1166992 80.1179756,22.9882812 81.5789131,23.3286133 L83.4382881,23.793457 C84.6502022,24.0839844 85.2312569,24.5488281 85.2312569,25.4121094 C85.2312569,26.4829102 84.3596748,27.171875 82.8904365,27.171875 C81.2883858,27.171875 80.4251045,26.3334961 80.3420967,25.3540039 L78.4993233,25.3540039 C78.5408272,26.8813477 79.5950264,28.7241211 82.7493233,28.7241211 Z M96.5618233,28.5 L96.5618233,17.1694336 L94.7688545,17.1694336 C93.8889717,17.6674805 92.8762764,18.2900391 92.0129951,18.8959961 L92.0129951,20.6972656 C92.8098701,20.1411133 93.9885811,19.4106445 94.6443428,19.0288086 L94.7024483,19.0288086 L94.7024483,28.5 L96.5618233,28.5 Z M103.401667,28.5 L103.401667,17.1694336 L101.608698,17.1694336 C100.728815,17.6674805 99.7161201,18.2900391 98.8528389,18.8959961 L98.8528389,20.6972656 C99.6497139,20.1411133 100.828425,19.4106445 101.484187,19.0288086 L101.542292,19.0288086 L101.542292,28.5 L103.401667,28.5 Z"></path>
        <path fill="rgb(255, 255, 243)" mask="url(#mask)" d="M37.4573311,13 C39.2371162,13 40.1160225,11.9233398 40.1160225,9.99414062 C40.1160225,8.06494141 39.2459053,7.00146484 37.4573311,7.00146484 L35.3875069,7.00146484 L35.3875069,13 L37.4573311,13 Z M37.3474678,12.1606445 L36.3850654,12.1606445 L36.3850654,7.84082031 L37.3474678,7.84082031 C38.5295967,7.84082031 39.0920967,8.56152344 39.0920967,10.0073242 C39.0920967,11.4443359 38.5339912,12.1606445 37.3474678,12.1606445 Z M43.1746162,13.0791016 C44.3875069,13.0791016 45.2356514,12.3188477 45.2356514,10.9697266 L45.2356514,10.3676758 C45.2356514,9.0625 44.3875069,8.27587891 43.1746162,8.27587891 C41.9573311,8.27587891 41.104792,9.10205078 41.104792,10.3720703 L41.104792,10.9741211 C41.104792,12.3276367 41.9441475,13.0791016 43.1746162,13.0791016 Z M43.1790108,12.2924805 C42.4583076,12.2924805 42.089167,11.7167969 42.089167,10.9389648 L42.089167,10.4204102 C42.089167,9.64257812 42.4846748,9.0625 43.1790108,9.0625 C43.8733467,9.0625 44.2556709,9.64257812 44.2556709,10.4204102 L44.2556709,10.9389648 C44.2556709,11.7211914 43.8909248,12.2924805 43.1790108,12.2924805 Z M48.2546944,13 L49.2083076,9.57226562 L49.2346748,9.57226562 L50.2058662,13 L51.1990303,13 L52.42071,8.35498047 L51.445124,8.35498047 L50.6848701,11.8969727 L50.6409248,11.8969727 L49.6785225,8.35498047 L48.7600654,8.35498047 L47.8240303,11.8969727 L47.780085,11.8969727 L47.0330147,8.35498047 L45.9827217,8.35498047 L47.2571358,13 L48.2546944,13 Z M54.3586983,13 L54.3586983,10.4204102 C54.3586983,9.66894531 54.7366279,9.11523438 55.4573311,9.11523438 C56.0066475,9.11523438 56.3757881,9.44042969 56.3757881,10.1479492 L56.3757881,13 L57.351374,13 L57.351374,9.86230469 C57.351374,8.80322266 56.7229561,8.28466797 55.7869209,8.28466797 C54.8464912,8.28466797 54.5081123,8.82519531 54.38946,9.18994141 L54.3411201,9.18994141 L54.3411201,8.35498047 L53.3831123,8.35498047 L53.3831123,13 L54.3586983,13 Z M59.8035225,13 L59.8035225,6.68505859 L58.8279365,6.68505859 L58.8279365,13 L59.8035225,13 Z M63.1565498,13.0791016 C64.3694404,13.0791016 65.217585,12.3188477 65.217585,10.9697266 L65.217585,10.3676758 C65.217585,9.0625 64.3694404,8.27587891 63.1565498,8.27587891 C61.9392647,8.27587891 61.0867256,9.10205078 61.0867256,10.3720703 L61.0867256,10.9741211 C61.0867256,12.3276367 61.9260811,13.0791016 63.1565498,13.0791016 Z M63.1609444,12.2924805 C62.4402412,12.2924805 62.0711006,11.7167969 62.0711006,10.9389648 L62.0711006,10.4204102 C62.0711006,9.64257812 62.4666084,9.0625 63.1609444,9.0625 C63.8552803,9.0625 64.2376045,9.64257812 64.2376045,10.4204102 L64.2376045,10.9389648 C64.2376045,11.7211914 63.8728584,12.2924805 63.1609444,12.2924805 Z M67.7400459,13.0703125 C68.4255928,13.0703125 68.8298897,12.7539062 69.0364326,12.3979492 L69.0803779,12.3979492 L69.0803779,13 L70.007624,13 L70.007624,9.85351562 C70.007624,8.69775391 69.1858467,8.28466797 68.1926826,8.28466797 C67.0369209,8.28466797 66.4524483,8.80761719 66.3953194,9.58544922 L67.3225654,9.58544922 C67.3972725,9.27783203 67.6345772,9.05810547 68.1619209,9.05810547 C68.6980537,9.05810547 69.0364326,9.30859375 69.0364326,9.84033203 L69.0364326,10.2753906 L67.8630928,10.2753906 C66.7908272,10.2753906 66.2195381,10.8291016 66.2195381,11.6508789 C66.2195381,12.5166016 66.839167,13.0703125 67.7400459,13.0703125 Z M68.0432686,12.3144531 C67.6038154,12.3144531 67.1995186,12.0859375 67.1995186,11.6025391 C67.1995186,11.2158203 67.4500069,10.9301758 68.0169014,10.9301758 L69.0364326,10.9301758 L69.0364326,11.4311523 C69.0364326,11.9365234 68.5969795,12.3144531 68.0432686,12.3144531 Z M72.9959053,13.0615234 C73.6726631,13.0615234 74.2307686,12.7275391 74.3713936,12.2573242 L74.4197334,12.2573242 L74.4197334,13 L75.3689522,13 L75.3689522,6.68505859 L74.3933662,6.68505859 L74.3933662,9.05371094 L74.3450264,9.05371094 C74.1648506,8.58349609 73.663874,8.29345703 73.0090889,8.29345703 C71.9412178,8.29345703 71.2336983,9.05371094 71.2336983,10.2797852 L71.2336983,11.0751953 C71.2336983,12.3012695 71.9280342,13.0615234 72.9959053,13.0615234 Z M73.3035225,12.2617188 C72.6355537,12.2617188 72.2268623,11.7783203 72.2268623,10.9301758 L72.2268623,10.4204102 C72.2268623,9.57666016 72.6311592,9.09326172 73.2815498,9.09326172 C73.9231514,9.09326172 74.3933662,9.57226562 74.3933662,10.2885742 L74.3933662,10.9916992 C74.3933662,11.7827148 73.9627022,12.2617188 73.3035225,12.2617188 Z M80.2468819,13 L80.2468819,9.15039062 L81.2927803,9.15039062 L81.2927803,8.38574219 L80.2336983,8.38574219 L80.2336983,8.00341797 C80.2336983,7.51123047 80.4534248,7.36181641 80.967585,7.36181641 C81.0906319,7.36181641 81.3147529,7.37060547 81.38946,7.37939453 L81.38946,6.64990234 C81.2752022,6.63671875 81.0203194,6.61474609 80.8005928,6.61474609 C79.710749,6.61474609 79.2756904,7.01904297 79.2756904,7.92431641 L79.2756904,8.38574219 L78.5066475,8.38574219 L78.5066475,9.15039062 L79.2756904,9.15039062 L79.2756904,13 L80.2468819,13 Z M84.3294014,13.0791016 C85.542292,13.0791016 86.3904365,12.3188477 86.3904365,10.9697266 L86.3904365,10.3676758 C86.3904365,9.0625 85.542292,8.27587891 84.3294014,8.27587891 C83.1121162,8.27587891 82.2595772,9.10205078 82.2595772,10.3720703 L82.2595772,10.9741211 C82.2595772,12.3276367 83.0989326,13.0791016 84.3294014,13.0791016 Z M84.3337959,12.2924805 C83.6130928,12.2924805 83.2439522,11.7167969 83.2439522,10.9389648 L83.2439522,10.4204102 C83.2439522,9.64257812 83.63946,9.0625 84.3337959,9.0625 C85.0281319,9.0625 85.4104561,9.64257812 85.4104561,10.4204102 L85.4104561,10.9389648 C85.4104561,11.7211914 85.04571,12.2924805 84.3337959,12.2924805 Z M88.6931709,13 L88.6931709,10.2358398 C88.6931709,9.60742188 89.0754951,9.14160156 89.8577217,9.14160156 C90.0203194,9.14160156 90.1917061,9.15478516 90.2752022,9.17675781 L90.2752022,8.31542969 C90.182917,8.29785156 90.0774483,8.2890625 89.9456123,8.2890625 C89.1677803,8.2890625 88.8294014,8.76806641 88.7283272,9.08007812 L88.6755928,9.08007812 L88.6755928,8.35498047 L87.7044014,8.35498047 L87.7044014,13 L88.6931709,13 Z"></path>
        <path fill="rgba(255, 255, 243, 0.9)" mask="url(#mask)" d="M17.2982369,29.9999829 C23.4251815,29.9999829 28.4912281,25.0212136 28.4912281,19 C28.4912281,12.9787693 23.4166656,8 17.2897559,8 C11.1628982,8 6.10526316,12.9787693 6.10526316,19 C6.10526316,25.0212136 11.1628982,29.9999829 17.2982369,29.9999829 Z M17.2982369,28.0985461 C12.1642375,28.0985461 8.04853955,24.0371354 8.04853955,18.9999915 C8.04853955,13.9628441 12.1642375,9.90143678 17.2897559,9.90143678 C22.4152742,9.90143678 26.5478953,13.9628441 26.5478953,18.9999915 C26.556398,24.0371354 22.42379,28.0985461 17.2982369,28.0985461 Z M17.2982369,13.5375281 C16.806057,13.5375281 16.4496437,13.8711096 16.4496437,14.3548037 L16.4496437,19.9256882 L16.5345065,22.0022592 L15.4652665,20.7596506 L14.0820533,19.3669294 C13.9378057,19.2168169 13.7341384,19.1250824 13.5050106,19.1250824 C13.0552534,19.1250824 12.7243007,19.4503291 12.7243007,19.875645 C12.7243007,20.1091572 12.7922014,20.2926433 12.9449475,20.4427558 L16.6278504,24.0955134 C16.8399987,24.312344 17.0436659,24.4040802 17.2982369,24.4040802 C17.5528079,24.4040802 17.7649562,24.304004 17.9686235,24.0955134 L21.6514569,20.4427558 C21.8042203,20.2926433 21.880689,20.1091572 21.880689,19.875645 C21.880689,19.4503291 21.5412725,19.1250824 21.0914632,19.1250824 C20.8623354,19.1250824 20.6586682,19.208482 20.5144205,19.3669294 L19.1396884,20.7513157 L18.0619673,22.0189459 L18.1468301,19.9256882 L18.1468301,14.3548037 C18.1468301,13.8711096 17.7904168,13.5375281 17.2982369,13.5375281 Z"></path>
    </g>
</svg>