<?xml version="1.0" encoding="UTF-8"?>
<svg width="24px" height="24px" viewBox="0 0 24 24" version="1.1" xmlns="http://www.w3.org/2000/svg">
    <path fill="#C2874E" d="M8.98360656,17.5081967 C8.98360656,18.8845191 7.86779368,20 6.49218645,20 C5.11581288,20 4,18.8845191 4,17.5081967 C4,16.1318743 5.11581288,15.0163934 6.49218645,15.0163934 C7.86779368,15.0171606 8.98360656,16.1318743 8.98360656,17.5081967 Z M4,7.208 C11.0533333,7.23866667 16.768,12.9373333 16.7886667,20 L20,20 C19.98,11.1793333 12.83,4.03066667 4,4 C4,6.13866667 4,7.208 4,7.208 Z M4.01406375,9.42076503 L4,12.624009 C8.05304642,12.682866 11.3281898,15.9622955 11.3520618,19.9860057 L14.579235,20 C14.5631593,14.2005568 9.85655993,9.48738184 4.01406375,9.42076503 Z"></path>
</svg>