<?xml version="1.0" encoding="UTF-8"?>
<svg width="31px" height="31px" viewBox="0 0 31 31" version="1.1" xmlns="http://www.w3.org/2000/svg">
    <g transform="translate(4.500000, 4.500000)" fill="rgba(194, 135, 78, 0.9)">
        <path d="M6.85245902,18.5737705 C6.85245902,20.4662138 5.31821631,22 3.42675637,22 C1.53424271,22 0,20.4662138 0,18.5737705 C0,16.6813272 1.53424271,15.147541 3.42675637,15.147541 C5.31821631,15.1485958 6.85245902,16.6813272 6.85245902,18.5737705 Z M0,4.411 C9.69833333,4.45316667 17.556,12.2888333 17.5844167,22 L22,22 C21.9725,9.87158333 12.14125,0.0421666667 0,0 C0,2.94066667 0,4.411 0,4.411 Z M0.0193376595,7.45355191 L0,11.8580124 C5.57293882,11.9389408 10.076261,16.4481563 10.109085,21.9807578 L14.5464481,22 C14.524344,14.0257655 8.05276991,7.54515003 0.0193376595,7.45355191 Z"></path>
    </g>
</svg>